<ttFont>
    <TTGlyph name=".notdef" xMin="7" yMin="0" xMax="507" yMax="700">
      <contour>
        <pt x="7" y="700" on="1"/>
        <pt x="507" y="700" on="1"/>
        <pt x="507" y="0" on="1"/>
        <pt x="7" y="0" on="1"/>
      </contour>
      <contour>
        <pt x="426" y="650" on="1"/>
        <pt x="86" y="650" on="1"/>
        <pt x="257" y="395" on="1"/>
      </contour>
      <contour>
        <pt x="227" y="350" on="1"/>
        <pt x="56" y="605" on="1"/>
        <pt x="56" y="95" on="1"/>
      </contour>
      <contour>
        <pt x="456" y="605" on="1"/>
        <pt x="287" y="350" on="1"/>
        <pt x="456" y="95" on="1"/>
      </contour>
      <contour>
        <pt x="427" y="50" on="1"/>
        <pt x="256" y="305" on="1"/>
        <pt x="87" y="50" on="1"/>
      </contour>
    </TTGlyph>
    <TTGlyph name="A" xMin="10" yMin="-2" xMax="495" yMax="702">
      <contour>
        <pt x="10" y="-2" on="0"/>
        <pt x="10" y="16" on="1"/>
        <pt x="10" y="19" on="0"/>
        <pt x="12" y="31" on="1"/>
        <pt x="185" y="680" on="1"/>
        <pt x="192" y="702" on="0"/>
        <pt x="231" y="702" on="1"/>
        <pt x="273" y="702" on="1"/>
        <pt x="315" y="702" on="0"/>
        <pt x="319" y="680" on="1"/>
        <pt x="492" y="31" on="1"/>
        <pt x="495" y="22" on="0"/>
        <pt x="495" y="16" on="1"/>
        <pt x="495" y="-2" on="0"/>
        <pt x="456" y="-2" on="1"/>
        <pt x="429" y="-2" on="1"/>
        <pt x="392" y="-2" on="0"/>
        <pt x="388" y="15" on="1"/>
        <pt x="350" y="167" on="1"/>
        <pt x="153" y="167" on="1"/>
        <pt x="116" y="15" on="1"/>
        <pt x="112" y="-2" on="0"/>
        <pt x="76" y="-2" on="1"/>
        <pt x="50" y="-2" on="1"/>
      </contour>
      <contour>
        <pt x="330" y="257" on="1"/>
        <pt x="266" y="513" on="1"/>
        <pt x="262" y="529" on="0"/>
        <pt x="255" y="578" on="1"/>
        <pt x="250" y="578" on="1"/>
        <pt x="246" y="554" on="1"/>
        <pt x="244" y="537" on="0"/>
        <pt x="238" y="513" on="1"/>
        <pt x="175" y="257" on="1"/>
      </contour>
    </TTGlyph>
    <TTGlyph name="AE" xMin="2" yMin="-2" xMax="687" yMax="700">
      <contour>
        <pt x="2" y="-2" on="0"/>
        <pt x="2" y="16" on="1"/>
        <pt x="2" y="24" on="0"/>
        <pt x="5" y="33" on="1"/>
        <pt x="258" y="673" on="1"/>
        <pt x="264" y="687" on="0"/>
        <pt x="280" y="700" on="0"/>
        <pt x="293" y="700" on="1"/>
        <pt x="664" y="700" on="1"/>
        <pt x="686" y="700" on="0"/>
        <pt x="686" y="664" on="1"/>
        <pt x="686" y="644" on="1"/>
        <pt x="686" y="608" on="0"/>
        <pt x="664" y="608" on="1"/>
        <pt x="402" y="608" on="1"/>
        <pt x="431" y="404" on="1"/>
        <pt x="642" y="404" on="1"/>
        <pt x="664" y="404" on="0"/>
        <pt x="664" y="368" on="1"/>
        <pt x="664" y="348" on="1"/>
        <pt x="664" y="312" on="0"/>
        <pt x="642" y="312" on="1"/>
        <pt x="445" y="312" on="1"/>
        <pt x="477" y="92" on="1"/>
        <pt x="665" y="92" on="1"/>
        <pt x="687" y="92" on="0"/>
        <pt x="687" y="56" on="1"/>
        <pt x="687" y="36" on="1"/>
        <pt x="687" y="0" on="0"/>
        <pt x="665" y="0" on="1"/>
        <pt x="409" y="0" on="1"/>
        <pt x="396" y="0" on="0"/>
        <pt x="383" y="14" on="0"/>
        <pt x="381" y="29" on="1"/>
        <pt x="362" y="167" on="1"/>
        <pt x="162" y="167" on="1"/>
        <pt x="104" y="15" on="1"/>
        <pt x="96" y="-2" on="0"/>
        <pt x="69" y="-2" on="1"/>
        <pt x="46" y="-2" on="1"/>
      </contour>
      <contour>
        <pt x="349" y="259" on="1"/>
        <pt x="315" y="505" on="1"/>
        <pt x="314" y="567" on="1"/>
        <pt x="311" y="567" on="1"/>
        <pt x="291" y="506" on="1"/>
        <pt x="197" y="259" on="1"/>
      </contour>
    </TTGlyph>
    <TTGlyph name="AEacute" xMin="2" yMin="-2" xMax="687" yMax="910">
      <component glyphName="AE" x="0" y="0" flags="0x0"/>
      <component glyphName="acutecomb" x="485" y="177" flags="0x4"/>
    </TTGlyph>
    <TTGlyph name="Aacute" xMin="10" yMin="-2" xMax="495" yMax="910">
      <component glyphName="A" x="0" y="0" flags="0x0"/>
      <component glyphName="acutecomb" x="348" y="177" flags="0x4"/>
    </TTGlyph>
    <TTGlyph name="Abreve" xMin="10" yMin="-2" xMax="495" yMax="892">
      <component glyphName="A" x="0" y="0" flags="0x0"/>
      <component glyphName="uni0306" x="252" y="177" flags="0x4"/>
    </TTGlyph>
    <TTGlyph name="Acircumflex" xMin="10" yMin="-2" xMax="495" yMax="895">
      <component glyphName="A" x="0" y="0" flags="0x0"/>
      <component glyphName="uni0302" x="251" y="177" flags="0x4"/>
    </TTGlyph>
    <TTGlyph name="Adieresis" xMin="10" yMin="-2" xMax="495" yMax="879">
      <component glyphName="A" x="0" y="0" flags="0x0"/>
      <component glyphName="uni0308" x="255" y="177" flags="0x4"/>
    </TTGlyph>
    <TTGlyph name="Agrave" xMin="10" yMin="-2" xMax="495" yMax="910">
      <component glyphName="A" x="0" y="0" flags="0x0"/>
      <component glyphName="gravecomb" x="252" y="177" flags="0x4"/>
    </TTGlyph>
    <TTGlyph name="Amacron" xMin="10" yMin="-2" xMax="495" yMax="862">
      <component glyphName="A" x="0" y="0" flags="0x0"/>
      <component glyphName="uni0304" x="257" y="177" flags="0x4"/>
    </TTGlyph>
    <TTGlyph name="Aogonek" xMin="10" yMin="-172" xMax="525" yMax="702">
      <contour>
        <pt x="525" y="-101" on="0"/>
        <pt x="525" y="-127" on="1"/>
        <pt x="525" y="-146" on="0"/>
        <pt x="511" y="-155" on="1"/>
        <pt x="484" y="-172" on="0"/>
        <pt x="447" y="-172" on="1"/>
        <pt x="392" y="-172" on="0"/>
        <pt x="354" y="-114" on="0"/>
        <pt x="354" y="-82" on="1"/>
        <pt x="354" y="-60" on="0"/>
        <pt x="369" y="-5" on="0"/>
        <pt x="387" y="20" on="1"/>
        <pt x="350" y="167" on="1"/>
        <pt x="153" y="167" on="1"/>
        <pt x="116" y="15" on="1"/>
        <pt x="112" y="-2" on="0"/>
        <pt x="76" y="-2" on="1"/>
        <pt x="50" y="-2" on="1"/>
        <pt x="10" y="-2" on="0"/>
        <pt x="10" y="16" on="1"/>
        <pt x="10" y="19" on="0"/>
        <pt x="12" y="31" on="1"/>
        <pt x="185" y="680" on="1"/>
        <pt x="192" y="702" on="0"/>
        <pt x="231" y="702" on="1"/>
        <pt x="273" y="702" on="1"/>
        <pt x="315" y="702" on="0"/>
        <pt x="319" y="680" on="1"/>
        <pt x="492" y="31" on="1"/>
        <pt x="495" y="22" on="0"/>
        <pt x="495" y="16" on="1"/>
        <pt x="495" y="-2" on="0"/>
        <pt x="456" y="-2" on="1"/>
        <pt x="432" y="-2" on="1"/>
        <pt x="417" y="-37" on="0"/>
        <pt x="417" y="-64" on="1"/>
        <pt x="417" y="-89" on="0"/>
        <pt x="445" y="-107" on="0"/>
        <pt x="466" y="-107" on="1"/>
        <pt x="474" y="-107" on="0"/>
        <pt x="499" y="-101" on="0"/>
        <pt x="502" y="-101" on="1"/>
      </contour>
      <contour>
        <pt x="330" y="257" on="1"/>
        <pt x="266" y="513" on="1"/>
        <pt x="262" y="529" on="0"/>
        <pt x="255" y="578" on="1"/>
        <pt x="250" y="578" on="1"/>
        <pt x="246" y="554" on="1"/>
        <pt x="244" y="537" on="0"/>
        <pt x="238" y="513" on="1"/>
        <pt x="175" y="257" on="1"/>
      </contour>
    </TTGlyph>
    <TTGlyph name="Aring" xMin="10" yMin="-2" xMax="495" yMax="915">
      <component glyphName="A" x="0" y="0" flags="0x0"/>
      <component glyphName="uni030A" x="251" y="177" flags="0x4"/>
    </TTGlyph>
    <TTGlyph name="Aringacute" xMin="10" yMin="-2" xMax="495" yMax="1009">
      <contour>
        <pt x="223" y="871" on="0"/>
        <pt x="223" y="883" on="1"/>
        <pt x="223" y="890" on="0"/>
        <pt x="243" y="938" on="0"/>
        <pt x="263" y="983" on="1"/>
        <pt x="275" y="1009" on="0"/>
        <pt x="323" y="1009" on="1"/>
        <pt x="341" y="1009" on="0"/>
        <pt x="356" y="1002" on="0"/>
        <pt x="356" y="993" on="1"/>
        <pt x="356" y="987" on="0"/>
        <pt x="333" y="952" on="0"/>
        <pt x="309" y="918" on="1"/>
        <pt x="287" y="888" on="1"/>
        <pt x="272" y="871" on="0"/>
        <pt x="245" y="871" on="1"/>
      </contour>
      <contour>
        <pt x="495" y="22" on="0"/>
        <pt x="495" y="16" on="1"/>
        <pt x="495" y="-2" on="0"/>
        <pt x="456" y="-2" on="1"/>
        <pt x="429" y="-2" on="1"/>
        <pt x="392" y="-2" on="0"/>
        <pt x="388" y="15" on="1"/>
        <pt x="350" y="167" on="1"/>
        <pt x="153" y="167" on="1"/>
        <pt x="116" y="15" on="1"/>
        <pt x="112" y="-2" on="0"/>
        <pt x="76" y="-2" on="1"/>
        <pt x="50" y="-2" on="1"/>
        <pt x="10" y="-2" on="0"/>
        <pt x="10" y="16" on="1"/>
        <pt x="10" y="19" on="0"/>
        <pt x="12" y="31" on="1"/>
        <pt x="185" y="680" on="1"/>
        <pt x="188" y="689" on="0"/>
        <pt x="193" y="692" on="1"/>
        <pt x="165" y="715" on="0"/>
        <pt x="165" y="759" on="1"/>
        <pt x="165" y="799" on="0"/>
        <pt x="213" y="849" on="0"/>
        <pt x="252" y="849" on="1"/>
        <pt x="292" y="849" on="0"/>
        <pt x="340" y="799" on="0"/>
        <pt x="340" y="759" on="1"/>
        <pt x="340" y="717" on="0"/>
        <pt x="312" y="692" on="1"/>
        <pt x="317" y="688" on="0"/>
        <pt x="319" y="680" on="1"/>
        <pt x="492" y="31" on="1"/>
      </contour>
      <contour>
        <pt x="231" y="805" on="0"/>
        <pt x="209" y="781" on="0"/>
        <pt x="208" y="759" on="1"/>
        <pt x="210" y="714" on="0"/>
        <pt x="252" y="714" on="1"/>
        <pt x="273" y="714" on="0"/>
        <pt x="296" y="737" on="0"/>
        <pt x="296" y="759" on="1"/>
        <pt x="296" y="781" on="0"/>
        <pt x="273" y="805" on="0"/>
        <pt x="252" y="805" on="1"/>
      </contour>
      <contour>
        <pt x="330" y="257" on="1"/>
        <pt x="266" y="513" on="1"/>
        <pt x="262" y="529" on="0"/>
        <pt x="255" y="578" on="1"/>
        <pt x="250" y="578" on="1"/>
        <pt x="246" y="554" on="1"/>
        <pt x="244" y="537" on="0"/>
        <pt x="238" y="513" on="1"/>
        <pt x="175" y="257" on="1"/>
      </contour>
    </TTGlyph>
    <TTGlyph name="Atilde" xMin="10" yMin="-2" xMax="495" yMax="870">
      <component glyphName="A" x="0" y="0" flags="0x0"/>
      <component glyphName="tildecomb" x="251" y="177" flags="0x4"/>
    </TTGlyph>
    <TTGlyph name="B" xMin="72" yMin="0" xMax="495" yMax="700">
      <contour>
        <pt x="87" y="0" on="0"/>
        <pt x="72" y="16" on="0"/>
        <pt x="72" y="33" on="1"/>
        <pt x="72" y="667" on="1"/>
        <pt x="72" y="684" on="0"/>
        <pt x="87" y="700" on="0"/>
        <pt x="103" y="700" on="1"/>
        <pt x="277" y="700" on="1"/>
        <pt x="375" y="700" on="0"/>
        <pt x="472" y="607" on="0"/>
        <pt x="472" y="525" on="1"/>
        <pt x="472" y="473" on="0"/>
        <pt x="420" y="385" on="0"/>
        <pt x="382" y="370" on="1"/>
        <pt x="383" y="366" on="1"/>
        <pt x="424" y="352" on="0"/>
        <pt x="495" y="275" on="0"/>
        <pt x="495" y="200" on="1"/>
        <pt x="495" y="101" on="0"/>
        <pt x="386" y="0" on="0"/>
        <pt x="278" y="0" on="1"/>
        <pt x="103" y="0" on="1"/>
      </contour>
      <contour>
        <pt x="273" y="403" on="1"/>
        <pt x="315" y="403" on="0"/>
        <pt x="364" y="463" on="0"/>
        <pt x="364" y="511" on="1"/>
        <pt x="364" y="563" on="0"/>
        <pt x="319" y="611" on="0"/>
        <pt x="272" y="611" on="1"/>
        <pt x="179" y="611" on="1"/>
        <pt x="179" y="403" on="1"/>
      </contour>
      <contour>
        <pt x="292" y="89" on="1"/>
        <pt x="337" y="89" on="0"/>
        <pt x="386" y="151" on="0"/>
        <pt x="386" y="207" on="1"/>
        <pt x="386" y="260" on="0"/>
        <pt x="333" y="315" on="0"/>
        <pt x="282" y="315" on="1"/>
        <pt x="179" y="315" on="1"/>
        <pt x="179" y="89" on="1"/>
      </contour>
    </TTGlyph>
    <TTGlyph name="C" xMin="46" yMin="-7" xMax="439" yMax="707">
      <contour>
        <pt x="173" y="-7" on="0"/>
        <pt x="46" y="167" on="0"/>
        <pt x="46" y="351" on="1"/>
        <pt x="46" y="531" on="0"/>
        <pt x="176" y="707" on="0"/>
        <pt x="310" y="707" on="1"/>
        <pt x="336" y="707" on="0"/>
        <pt x="388" y="697" on="0"/>
        <pt x="407" y="690" on="1"/>
        <pt x="419" y="686" on="0"/>
        <pt x="428" y="670" on="0"/>
        <pt x="428" y="657" on="1"/>
        <pt x="427" y="633" on="0"/>
        <pt x="408" y="586" on="0"/>
        <pt x="392" y="594" on="1"/>
        <pt x="354" y="612" on="0"/>
        <pt x="312" y="612" on="1"/>
        <pt x="233" y="612" on="0"/>
        <pt x="158" y="485" on="0"/>
        <pt x="158" y="351" on="1"/>
        <pt x="158" y="217" on="0"/>
        <pt x="233" y="88" on="0"/>
        <pt x="312" y="88" on="1"/>
        <pt x="358" y="88" on="0"/>
        <pt x="398" y="109" on="1"/>
        <pt x="404" y="111" on="0"/>
        <pt x="407" y="111" on="1"/>
        <pt x="422" y="111" on="0"/>
        <pt x="439" y="71" on="0"/>
        <pt x="439" y="48" on="1"/>
        <pt x="439" y="24" on="0"/>
        <pt x="413" y="13" on="1"/>
        <pt x="395" y="5" on="0"/>
        <pt x="339" y="-7" on="0"/>
        <pt x="308" y="-7" on="1"/>
      </contour>
    </TTGlyph>
    <TTGlyph name="Cacute" xMin="46" yMin="-7" xMax="439" yMax="910">
      <component glyphName="C" x="0" y="0" flags="0x0"/>
      <component glyphName="acutecomb" x="392" y="177" flags="0x4"/>
    </TTGlyph>
    <TTGlyph name="Cacute.loclPLK" xMin="46" yMin="-7" xMax="439" yMax="910">
      <component glyphName="C" x="0" y="0" flags="0x0"/>
      <component glyphName="acute.loclPLK" x="207" y="177" flags="0x4"/>
    </TTGlyph>
    <TTGlyph name="Ccaron" xMin="46" yMin="-7" xMax="439" yMax="900">
      <component glyphName="C" x="0" y="0" flags="0x0"/>
      <component glyphName="uni030C" x="292" y="177" flags="0x4"/>
    </TTGlyph>
    <TTGlyph name="Ccedilla" xMin="46" yMin="-211" xMax="439" yMax="707">
      <contour>
        <pt x="404" y="111" on="0"/>
        <pt x="407" y="111" on="1"/>
        <pt x="422" y="111" on="0"/>
        <pt x="439" y="71" on="0"/>
        <pt x="439" y="48" on="1"/>
        <pt x="439" y="24" on="0"/>
        <pt x="413" y="13" on="1"/>
        <pt x="379" y="-3" on="0"/>
        <pt x="327" y="-6" on="1"/>
        <pt x="313" y="-56" on="1"/>
        <pt x="341" y="-58" on="0"/>
        <pt x="384" y="-90" on="0"/>
        <pt x="384" y="-126" on="1"/>
        <pt x="384" y="-171" on="0"/>
        <pt x="330" y="-211" on="0"/>
        <pt x="286" y="-211" on="1"/>
        <pt x="251" y="-211" on="0"/>
        <pt x="188" y="-184" on="0"/>
        <pt x="188" y="-165" on="1"/>
        <pt x="188" y="-154" on="0"/>
        <pt x="204" y="-134" on="0"/>
        <pt x="211" y="-134" on="1"/>
        <pt x="217" y="-134" on="0"/>
        <pt x="235" y="-142" on="1"/>
        <pt x="261" y="-155" on="0"/>
        <pt x="279" y="-155" on="1"/>
        <pt x="291" y="-155" on="0"/>
        <pt x="310" y="-142" on="0"/>
        <pt x="310" y="-129" on="1"/>
        <pt x="310" y="-116" on="0"/>
        <pt x="295" y="-104" on="0"/>
        <pt x="280" y="-99" on="1"/>
        <pt x="268" y="-94" on="0"/>
        <pt x="258" y="-86" on="0"/>
        <pt x="258" y="-79" on="1"/>
        <pt x="258" y="-73" on="0"/>
        <pt x="268" y="-39" on="0"/>
        <pt x="279" y="-6" on="1"/>
        <pt x="159" y="3" on="0"/>
        <pt x="46" y="176" on="0"/>
        <pt x="46" y="351" on="1"/>
        <pt x="46" y="531" on="0"/>
        <pt x="176" y="707" on="0"/>
        <pt x="310" y="707" on="1"/>
        <pt x="336" y="707" on="0"/>
        <pt x="388" y="697" on="0"/>
        <pt x="407" y="690" on="1"/>
        <pt x="419" y="686" on="0"/>
        <pt x="428" y="670" on="0"/>
        <pt x="428" y="657" on="1"/>
        <pt x="427" y="633" on="0"/>
        <pt x="408" y="586" on="0"/>
        <pt x="392" y="594" on="1"/>
        <pt x="354" y="612" on="0"/>
        <pt x="312" y="612" on="1"/>
        <pt x="233" y="612" on="0"/>
        <pt x="158" y="485" on="0"/>
        <pt x="158" y="351" on="1"/>
        <pt x="158" y="217" on="0"/>
        <pt x="233" y="88" on="0"/>
        <pt x="312" y="88" on="1"/>
        <pt x="358" y="88" on="0"/>
        <pt x="398" y="109" on="1"/>
      </contour>
    </TTGlyph>
    <TTGlyph name="Ccircumflex" xMin="46" yMin="-7" xMax="439" yMax="895">
      <component glyphName="C" x="0" y="0" flags="0x0"/>
      <component glyphName="uni0302" x="295" y="177" flags="0x4"/>
    </TTGlyph>
    <TTGlyph name="Cdotaccent" xMin="46" yMin="-7" xMax="439" yMax="879">
      <component glyphName="C" x="0" y="0" flags="0x0"/>
      <component glyphName="uni0307" x="297" y="177" flags="0x4"/>
    </TTGlyph>
    <TTGlyph name="D" xMin="72" yMin="0" xMax="528" yMax="700">
      <contour>
        <pt x="86" y="0" on="0"/>
        <pt x="72" y="16" on="0"/>
        <pt x="72" y="33" on="1"/>
        <pt x="72" y="667" on="1"/>
        <pt x="72" y="684" on="0"/>
        <pt x="86" y="700" on="0"/>
        <pt x="102" y="700" on="1"/>
        <pt x="276" y="700" on="1"/>
        <pt x="528" y="700" on="0"/>
        <pt x="528" y="350" on="1"/>
        <pt x="528" y="167" on="0"/>
        <pt x="398" y="0" on="0"/>
        <pt x="276" y="0" on="1"/>
        <pt x="102" y="0" on="1"/>
      </contour>
      <contour>
        <pt x="273" y="92" on="1"/>
        <pt x="342" y="92" on="0"/>
        <pt x="416" y="214" on="0"/>
        <pt x="416" y="350" on="1"/>
        <pt x="416" y="608" on="0"/>
        <pt x="273" y="608" on="1"/>
        <pt x="182" y="608" on="1"/>
        <pt x="182" y="92" on="1"/>
      </contour>
    </TTGlyph>
    <TTGlyph name="Dcaron" xMin="72" yMin="0" xMax="528" yMax="900">
      <component glyphName="D" x="0" y="0" flags="0x0"/>
      <component glyphName="uni030C" x="270" y="177" flags="0x4"/>
    </TTGlyph>
    <TTGlyph name="Dcroat" xMin="9" yMin="0" xMax="528" yMax="700">
      <component glyphName="Eth" x="0" y="0" flags="0x0"/>
    </TTGlyph>
    <TTGlyph name="E" xMin="72" yMin="0" xMax="414" yMax="700">
      <contour>
        <pt x="86" y="0" on="0"/>
        <pt x="72" y="16" on="0"/>
        <pt x="72" y="33" on="1"/>
        <pt x="72" y="667" on="1"/>
        <pt x="72" y="684" on="0"/>
        <pt x="86" y="700" on="0"/>
        <pt x="102" y="700" on="1"/>
        <pt x="392" y="700" on="1"/>
        <pt x="414" y="700" on="0"/>
        <pt x="414" y="664" on="1"/>
        <pt x="414" y="644" on="1"/>
        <pt x="414" y="608" on="0"/>
        <pt x="392" y="608" on="1"/>
        <pt x="181" y="608" on="1"/>
        <pt x="181" y="404" on="1"/>
        <pt x="370" y="404" on="1"/>
        <pt x="392" y="404" on="0"/>
        <pt x="392" y="368" on="1"/>
        <pt x="392" y="348" on="1"/>
        <pt x="392" y="312" on="0"/>
        <pt x="370" y="312" on="1"/>
        <pt x="181" y="312" on="1"/>
        <pt x="181" y="92" on="1"/>
        <pt x="392" y="92" on="1"/>
        <pt x="404" y="92" on="0"/>
        <pt x="414" y="75" on="0"/>
        <pt x="414" y="56" on="1"/>
        <pt x="414" y="36" on="1"/>
        <pt x="414" y="17" on="0"/>
        <pt x="404" y="0" on="0"/>
        <pt x="392" y="0" on="1"/>
        <pt x="102" y="0" on="1"/>
      </contour>
    </TTGlyph>
    <TTGlyph name="Eacute" xMin="72" yMin="0" xMax="414" yMax="910">
      <component glyphName="E" x="0" y="0" flags="0x0"/>
      <component glyphName="acutecomb" x="341" y="177" flags="0x4"/>
    </TTGlyph>
    <TTGlyph name="Ebreve" xMin="72" yMin="0" xMax="414" yMax="892">
      <component glyphName="E" x="0" y="0" flags="0x0"/>
      <component glyphName="uni0306" x="245" y="177" flags="0x4"/>
    </TTGlyph>
    <TTGlyph name="Ecaron" xMin="72" yMin="0" xMax="414" yMax="900">
      <component glyphName="E" x="0" y="0" flags="0x0"/>
      <component glyphName="uni030C" x="241" y="177" flags="0x4"/>
    </TTGlyph>
    <TTGlyph name="Ecircumflex" xMin="72" yMin="0" xMax="414" yMax="895">
      <component glyphName="E" x="0" y="0" flags="0x0"/>
      <component glyphName="uni0302" x="244" y="177" flags="0x4"/>
    </TTGlyph>
    <TTGlyph name="Edieresis" xMin="72" yMin="0" xMax="414" yMax="879">
      <component glyphName="E" x="0" y="0" flags="0x0"/>
      <component glyphName="uni0308" x="248" y="177" flags="0x4"/>
    </TTGlyph>
    <TTGlyph name="Edotaccent" xMin="72" yMin="0" xMax="414" yMax="879">
      <component glyphName="E" x="0" y="0" flags="0x0"/>
      <component glyphName="uni0307" x="246" y="177" flags="0x4"/>
    </TTGlyph>
    <TTGlyph name="Egrave" xMin="72" yMin="0" xMax="414" yMax="910">
      <component glyphName="E" x="0" y="0" flags="0x0"/>
      <component glyphName="gravecomb" x="245" y="177" flags="0x4"/>
    </TTGlyph>
    <TTGlyph name="Emacron" xMin="72" yMin="0" xMax="414" yMax="862">
      <component glyphName="E" x="0" y="0" flags="0x0"/>
      <component glyphName="uni0304" x="250" y="177" flags="0x4"/>
    </TTGlyph>
    <TTGlyph name="Eng" xMin="67" yMin="-212" xMax="523" yMax="702">
      <contour>
        <pt x="523" y="702" on="0"/>
        <pt x="523" y="677" on="1"/>
        <pt x="523" y="-71" on="1"/>
        <pt x="523" y="-147" on="0"/>
        <pt x="454" y="-212" on="0"/>
        <pt x="407" y="-212" on="1"/>
        <pt x="328" y="-212" on="0"/>
        <pt x="328" y="-176" on="1"/>
        <pt x="328" y="-163" on="0"/>
        <pt x="342" y="-122" on="0"/>
        <pt x="352" y="-122" on="1"/>
        <pt x="356" y="-122" on="0"/>
        <pt x="374" y="-127" on="0"/>
        <pt x="387" y="-127" on="1"/>
        <pt x="404" y="-127" on="0"/>
        <pt x="423" y="-100" on="0"/>
        <pt x="423" y="-66" on="1"/>
        <pt x="423" y="6" on="1"/>
        <pt x="193" y="444" on="1"/>
        <pt x="180" y="467" on="0"/>
        <pt x="167" y="507" on="1"/>
        <pt x="162" y="505" on="1"/>
        <pt x="170" y="468" on="0"/>
        <pt x="170" y="438" on="1"/>
        <pt x="170" y="23" on="1"/>
        <pt x="170" y="-2" on="0"/>
        <pt x="126" y="-2" on="1"/>
        <pt x="111" y="-2" on="1"/>
        <pt x="67" y="-2" on="0"/>
        <pt x="67" y="23" on="1"/>
        <pt x="67" y="677" on="1"/>
        <pt x="67" y="702" on="0"/>
        <pt x="111" y="702" on="1"/>
        <pt x="135" y="702" on="1"/>
        <pt x="151" y="702" on="0"/>
        <pt x="172" y="693" on="0"/>
        <pt x="178" y="680" on="1"/>
        <pt x="395" y="268" on="1"/>
        <pt x="408" y="243" on="0"/>
        <pt x="423" y="200" on="1"/>
        <pt x="428" y="202" on="1"/>
        <pt x="420" y="239" on="0"/>
        <pt x="420" y="272" on="1"/>
        <pt x="420" y="677" on="1"/>
        <pt x="420" y="702" on="0"/>
        <pt x="464" y="702" on="1"/>
        <pt x="479" y="702" on="1"/>
      </contour>
    </TTGlyph>
    <TTGlyph name="Eogonek" xMin="72" yMin="-177" xMax="495" yMax="700">
      <contour>
        <pt x="495" y="-106" on="0"/>
        <pt x="495" y="-132" on="1"/>
        <pt x="495" y="-151" on="0"/>
        <pt x="481" y="-160" on="1"/>
        <pt x="454" y="-177" on="0"/>
        <pt x="417" y="-177" on="1"/>
        <pt x="362" y="-177" on="0"/>
        <pt x="324" y="-119" on="0"/>
        <pt x="324" y="-87" on="1"/>
        <pt x="324" y="-44" on="0"/>
        <pt x="348" y="0" on="1"/>
        <pt x="102" y="0" on="1"/>
        <pt x="86" y="0" on="0"/>
        <pt x="72" y="16" on="0"/>
        <pt x="72" y="33" on="1"/>
        <pt x="72" y="667" on="1"/>
        <pt x="72" y="684" on="0"/>
        <pt x="86" y="700" on="0"/>
        <pt x="102" y="700" on="1"/>
        <pt x="392" y="700" on="1"/>
        <pt x="414" y="700" on="0"/>
        <pt x="414" y="664" on="1"/>
        <pt x="414" y="644" on="1"/>
        <pt x="414" y="608" on="0"/>
        <pt x="392" y="608" on="1"/>
        <pt x="181" y="608" on="1"/>
        <pt x="181" y="404" on="1"/>
        <pt x="370" y="404" on="1"/>
        <pt x="392" y="404" on="0"/>
        <pt x="392" y="368" on="1"/>
        <pt x="392" y="348" on="1"/>
        <pt x="392" y="312" on="0"/>
        <pt x="370" y="312" on="1"/>
        <pt x="181" y="312" on="1"/>
        <pt x="181" y="92" on="1"/>
        <pt x="392" y="92" on="1"/>
        <pt x="404" y="92" on="0"/>
        <pt x="414" y="75" on="0"/>
        <pt x="414" y="56" on="1"/>
        <pt x="414" y="36" on="1"/>
        <pt x="414" y="18" on="0"/>
        <pt x="410" y="10" on="1"/>
        <pt x="399" y="-11" on="0"/>
        <pt x="387" y="-53" on="0"/>
        <pt x="387" y="-69" on="1"/>
        <pt x="387" y="-94" on="0"/>
        <pt x="415" y="-112" on="0"/>
        <pt x="436" y="-112" on="1"/>
        <pt x="444" y="-112" on="0"/>
        <pt x="469" y="-106" on="0"/>
        <pt x="472" y="-106" on="1"/>
      </contour>
    </TTGlyph>
    <TTGlyph name="Eth" xMin="9" yMin="0" xMax="528" yMax="700">
      <contour>
        <pt x="528" y="700" on="0"/>
        <pt x="528" y="350" on="1"/>
        <pt x="528" y="167" on="0"/>
        <pt x="398" y="0" on="0"/>
        <pt x="276" y="0" on="1"/>
        <pt x="102" y="0" on="1"/>
        <pt x="86" y="0" on="0"/>
        <pt x="72" y="16" on="0"/>
        <pt x="72" y="33" on="1"/>
        <pt x="72" y="312" on="1"/>
        <pt x="31" y="312" on="1"/>
        <pt x="20" y="312" on="0"/>
        <pt x="9" y="328" on="0"/>
        <pt x="9" y="347" on="1"/>
        <pt x="9" y="367" on="1"/>
        <pt x="9" y="403" on="0"/>
        <pt x="31" y="403" on="1"/>
        <pt x="72" y="403" on="1"/>
        <pt x="72" y="667" on="1"/>
        <pt x="72" y="684" on="0"/>
        <pt x="86" y="700" on="0"/>
        <pt x="102" y="700" on="1"/>
        <pt x="276" y="700" on="1"/>
      </contour>
      <contour>
        <pt x="342" y="92" on="0"/>
        <pt x="416" y="214" on="0"/>
        <pt x="416" y="350" on="1"/>
        <pt x="416" y="608" on="0"/>
        <pt x="273" y="608" on="1"/>
        <pt x="182" y="608" on="1"/>
        <pt x="182" y="403" on="1"/>
        <pt x="245" y="403" on="1"/>
        <pt x="257" y="403" on="0"/>
        <pt x="267" y="386" on="0"/>
        <pt x="267" y="367" on="1"/>
        <pt x="267" y="347" on="1"/>
        <pt x="267" y="328" on="0"/>
        <pt x="257" y="312" on="0"/>
        <pt x="245" y="312" on="1"/>
        <pt x="182" y="312" on="1"/>
        <pt x="182" y="92" on="1"/>
        <pt x="273" y="92" on="1"/>
      </contour>
    </TTGlyph>
    <TTGlyph name="Euro" xMin="4" yMin="-7" xMax="477" yMax="707">
      <contour>
        <pt x="204" y="-7" on="0"/>
        <pt x="83" y="112" on="0"/>
        <pt x="67" y="235" on="1"/>
        <pt x="26" y="235" on="1"/>
        <pt x="14" y="235" on="0"/>
        <pt x="4" y="249" on="0"/>
        <pt x="4" y="266" on="1"/>
        <pt x="4" y="273" on="1"/>
        <pt x="4" y="290" on="0"/>
        <pt x="14" y="304" on="0"/>
        <pt x="26" y="304" on="1"/>
        <pt x="61" y="304" on="1"/>
        <pt x="60" y="319" on="0"/>
        <pt x="60" y="351" on="1"/>
        <pt x="60" y="379" on="0"/>
        <pt x="61" y="393" on="1"/>
        <pt x="26" y="393" on="1"/>
        <pt x="14" y="393" on="0"/>
        <pt x="4" y="407" on="0"/>
        <pt x="4" y="424" on="1"/>
        <pt x="4" y="431" on="1"/>
        <pt x="4" y="448" on="0"/>
        <pt x="14" y="462" on="0"/>
        <pt x="26" y="462" on="1"/>
        <pt x="68" y="462" on="1"/>
        <pt x="101" y="707" on="0"/>
        <pt x="313" y="707" on="1"/>
        <pt x="353" y="707" on="0"/>
        <pt x="425" y="686" on="0"/>
        <pt x="469" y="655" on="0"/>
        <pt x="469" y="642" on="1"/>
        <pt x="469" y="626" on="0"/>
        <pt x="439" y="576" on="0"/>
        <pt x="426" y="576" on="1"/>
        <pt x="422" y="576" on="0"/>
        <pt x="387" y="597" on="0"/>
        <pt x="343" y="613" on="0"/>
        <pt x="314" y="613" on="1"/>
        <pt x="259" y="613" on="0"/>
        <pt x="192" y="540" on="0"/>
        <pt x="179" y="462" on="1"/>
        <pt x="392" y="462" on="1"/>
        <pt x="404" y="462" on="0"/>
        <pt x="415" y="447" on="0"/>
        <pt x="415" y="431" on="1"/>
        <pt x="415" y="424" on="1"/>
        <pt x="415" y="408" on="0"/>
        <pt x="404" y="393" on="0"/>
        <pt x="392" y="393" on="1"/>
        <pt x="172" y="393" on="1"/>
        <pt x="171" y="379" on="0"/>
        <pt x="171" y="351" on="1"/>
        <pt x="171" y="319" on="0"/>
        <pt x="172" y="304" on="1"/>
        <pt x="392" y="304" on="1"/>
        <pt x="404" y="304" on="0"/>
        <pt x="415" y="289" on="0"/>
        <pt x="415" y="273" on="1"/>
        <pt x="415" y="266" on="1"/>
        <pt x="415" y="250" on="0"/>
        <pt x="404" y="235" on="0"/>
        <pt x="392" y="235" on="1"/>
        <pt x="180" y="235" on="1"/>
        <pt x="205" y="87" on="0"/>
        <pt x="312" y="87" on="1"/>
        <pt x="345" y="87" on="0"/>
        <pt x="393" y="106" on="0"/>
        <pt x="416" y="121" on="1"/>
        <pt x="432" y="130" on="0"/>
        <pt x="435" y="130" on="1"/>
        <pt x="445" y="130" on="0"/>
        <pt x="464" y="107" on="0"/>
        <pt x="477" y="77" on="0"/>
        <pt x="477" y="69" on="1"/>
        <pt x="477" y="53" on="0"/>
        <pt x="430" y="17" on="0"/>
        <pt x="354" y="-7" on="0"/>
        <pt x="311" y="-7" on="1"/>
      </contour>
    </TTGlyph>
    <TTGlyph name="F" xMin="72" yMin="-2" xMax="388" yMax="700">
      <contour>
        <pt x="72" y="-2" on="0"/>
        <pt x="72" y="23" on="1"/>
        <pt x="72" y="667" on="1"/>
        <pt x="72" y="684" on="0"/>
        <pt x="86" y="700" on="0"/>
        <pt x="102" y="700" on="1"/>
        <pt x="366" y="700" on="1"/>
        <pt x="388" y="700" on="0"/>
        <pt x="388" y="664" on="1"/>
        <pt x="388" y="644" on="1"/>
        <pt x="388" y="608" on="0"/>
        <pt x="366" y="608" on="1"/>
        <pt x="181" y="608" on="1"/>
        <pt x="181" y="404" on="1"/>
        <pt x="351" y="404" on="1"/>
        <pt x="373" y="404" on="0"/>
        <pt x="373" y="368" on="1"/>
        <pt x="373" y="348" on="1"/>
        <pt x="373" y="312" on="0"/>
        <pt x="351" y="312" on="1"/>
        <pt x="181" y="312" on="1"/>
        <pt x="181" y="23" on="1"/>
        <pt x="181" y="-2" on="0"/>
        <pt x="137" y="-2" on="1"/>
        <pt x="116" y="-2" on="1"/>
      </contour>
    </TTGlyph>
    <TTGlyph name="G" xMin="46" yMin="-7" xMax="489" yMax="707">
      <contour>
        <pt x="489" y="390" on="0"/>
        <pt x="489" y="357" on="1"/>
        <pt x="489" y="68" on="1"/>
        <pt x="489" y="31" on="0"/>
        <pt x="374" y="-7" on="0"/>
        <pt x="304" y="-7" on="1"/>
        <pt x="175" y="-7" on="0"/>
        <pt x="46" y="167" on="0"/>
        <pt x="46" y="346" on="1"/>
        <pt x="46" y="529" on="0"/>
        <pt x="178" y="707" on="0"/>
        <pt x="311" y="707" on="1"/>
        <pt x="350" y="707" on="0"/>
        <pt x="428" y="687" on="0"/>
        <pt x="477" y="656" on="0"/>
        <pt x="477" y="642" on="1"/>
        <pt x="477" y="626" on="0"/>
        <pt x="446" y="575" on="0"/>
        <pt x="434" y="575" on="1"/>
        <pt x="431" y="575" on="0"/>
        <pt x="395" y="595" on="0"/>
        <pt x="347" y="611" on="0"/>
        <pt x="315" y="611" on="1"/>
        <pt x="232" y="611" on="0"/>
        <pt x="158" y="481" on="0"/>
        <pt x="158" y="352" on="1"/>
        <pt x="158" y="87" on="0"/>
        <pt x="306" y="87" on="1"/>
        <pt x="347" y="87" on="0"/>
        <pt x="382" y="97" on="1"/>
        <pt x="382" y="298" on="1"/>
        <pt x="306" y="298" on="1"/>
        <pt x="284" y="298" on="0"/>
        <pt x="284" y="334" on="1"/>
        <pt x="284" y="354" on="1"/>
        <pt x="284" y="390" on="0"/>
        <pt x="306" y="390" on="1"/>
        <pt x="459" y="390" on="1"/>
      </contour>
    </TTGlyph>
    <TTGlyph name="Gbreve" xMin="46" yMin="-7" xMax="489" yMax="892">
      <component glyphName="G" x="0" y="0" flags="0x0"/>
      <component glyphName="uni0306" x="293" y="177" flags="0x4"/>
    </TTGlyph>
    <TTGlyph name="Gcircumflex" xMin="46" yMin="-7" xMax="489" yMax="895">
      <component glyphName="G" x="0" y="0" flags="0x0"/>
      <component glyphName="uni0302" x="292" y="177" flags="0x4"/>
    </TTGlyph>
    <TTGlyph name="Gcommaaccent" xMin="46" yMin="-236" xMax="489" yMax="707">
      <component glyphName="G" x="0" y="0" flags="0x0"/>
      <component glyphName="uni0326" x="439" y="0" flags="0x0"/>
    </TTGlyph>
    <TTGlyph name="Gdotaccent" xMin="46" yMin="-7" xMax="489" yMax="879">
      <component glyphName="G" x="0" y="0" flags="0x0"/>
      <component glyphName="uni0307" x="294" y="177" flags="0x4"/>
    </TTGlyph>
    <TTGlyph name="H" xMin="72" yMin="-2" xMax="527" yMax="702">
      <contour>
        <pt x="72" y="-2" on="0"/>
        <pt x="72" y="23" on="1"/>
        <pt x="72" y="677" on="1"/>
        <pt x="72" y="702" on="0"/>
        <pt x="116" y="702" on="1"/>
        <pt x="139" y="702" on="1"/>
        <pt x="181" y="702" on="0"/>
        <pt x="181" y="677" on="1"/>
        <pt x="181" y="405" on="1"/>
        <pt x="418" y="405" on="1"/>
        <pt x="418" y="677" on="1"/>
        <pt x="418" y="702" on="0"/>
        <pt x="462" y="702" on="1"/>
        <pt x="483" y="702" on="1"/>
        <pt x="527" y="702" on="0"/>
        <pt x="527" y="677" on="1"/>
        <pt x="527" y="23" on="1"/>
        <pt x="527" y="-2" on="0"/>
        <pt x="483" y="-2" on="1"/>
        <pt x="462" y="-2" on="1"/>
        <pt x="418" y="-2" on="0"/>
        <pt x="418" y="23" on="1"/>
        <pt x="418" y="312" on="1"/>
        <pt x="181" y="312" on="1"/>
        <pt x="181" y="23" on="1"/>
        <pt x="181" y="-2" on="0"/>
        <pt x="139" y="-2" on="1"/>
        <pt x="116" y="-2" on="1"/>
      </contour>
    </TTGlyph>
    <TTGlyph name="Hbar" xMin="28" yMin="-2" xMax="557" yMax="702">
      <contour>
        <pt x="547" y="564" on="0"/>
        <pt x="557" y="548" on="0"/>
        <pt x="557" y="531" on="1"/>
        <pt x="557" y="520" on="1"/>
        <pt x="557" y="503" on="0"/>
        <pt x="547" y="487" on="0"/>
        <pt x="535" y="487" on="1"/>
        <pt x="527" y="487" on="1"/>
        <pt x="527" y="23" on="1"/>
        <pt x="527" y="-2" on="0"/>
        <pt x="483" y="-2" on="1"/>
        <pt x="462" y="-2" on="1"/>
        <pt x="418" y="-2" on="0"/>
        <pt x="418" y="23" on="1"/>
        <pt x="418" y="312" on="1"/>
        <pt x="181" y="312" on="1"/>
        <pt x="181" y="23" on="1"/>
        <pt x="181" y="-2" on="0"/>
        <pt x="139" y="-2" on="1"/>
        <pt x="116" y="-2" on="1"/>
        <pt x="72" y="-2" on="0"/>
        <pt x="72" y="23" on="1"/>
        <pt x="72" y="487" on="1"/>
        <pt x="50" y="487" on="1"/>
        <pt x="28" y="487" on="0"/>
        <pt x="28" y="520" on="1"/>
        <pt x="28" y="531" on="1"/>
        <pt x="28" y="564" on="0"/>
        <pt x="50" y="564" on="1"/>
        <pt x="72" y="564" on="1"/>
        <pt x="72" y="677" on="1"/>
        <pt x="72" y="702" on="0"/>
        <pt x="116" y="702" on="1"/>
        <pt x="139" y="702" on="1"/>
        <pt x="181" y="702" on="0"/>
        <pt x="181" y="677" on="1"/>
        <pt x="181" y="564" on="1"/>
        <pt x="418" y="564" on="1"/>
        <pt x="418" y="677" on="1"/>
        <pt x="418" y="702" on="0"/>
        <pt x="462" y="702" on="1"/>
        <pt x="483" y="702" on="1"/>
        <pt x="527" y="702" on="0"/>
        <pt x="527" y="677" on="1"/>
        <pt x="527" y="564" on="1"/>
        <pt x="535" y="564" on="1"/>
      </contour>
      <contour>
        <pt x="418" y="487" on="1"/>
        <pt x="181" y="487" on="1"/>
        <pt x="181" y="405" on="1"/>
        <pt x="418" y="405" on="1"/>
      </contour>
    </TTGlyph>
    <TTGlyph name="Hcircumflex" xMin="72" yMin="-2" xMax="527" yMax="895">
      <component glyphName="H" x="0" y="0" flags="0x0"/>
      <component glyphName="uni0302" x="298" y="177" flags="0x4"/>
    </TTGlyph>
    <TTGlyph name="I" xMin="76" yMin="-2" xMax="186" yMax="702">
      <contour>
        <pt x="76" y="-2" on="0"/>
        <pt x="76" y="23" on="1"/>
        <pt x="76" y="677" on="1"/>
        <pt x="76" y="702" on="0"/>
        <pt x="120" y="702" on="1"/>
        <pt x="143" y="702" on="1"/>
        <pt x="186" y="702" on="0"/>
        <pt x="186" y="677" on="1"/>
        <pt x="186" y="23" on="1"/>
        <pt x="186" y="-2" on="0"/>
        <pt x="143" y="-2" on="1"/>
        <pt x="120" y="-2" on="1"/>
      </contour>
    </TTGlyph>
    <TTGlyph name="IJ" xMin="76" yMin="-7" xMax="545" yMax="702">
      <component glyphName="I" x="0" y="0" flags="0x0"/>
      <component glyphName="J" x="262" y="0" flags="0x0"/>
    </TTGlyph>
    <TTGlyph name="Iacute" xMin="76" yMin="-2" xMax="256" yMax="910">
      <component glyphName="I" x="0" y="0" flags="0x0"/>
      <component glyphName="acutecomb" x="226" y="177" flags="0x4"/>
    </TTGlyph>
    <TTGlyph name="Iacute_J.loclNLD" xMin="76" yMin="-7" xMax="614" yMax="910">
      <component glyphName="I" x="0" y="0" flags="0x0"/>
      <component glyphName="acutecomb" x="226" y="177" flags="0x4"/>
      <component glyphName="J" x="262" y="0" flags="0x0"/>
      <component glyphName="acutecomb" x="584" y="177" flags="0x4"/>
    </TTGlyph>
    <TTGlyph name="Ibreve" xMin="10" yMin="-2" xMax="251" yMax="892">
      <component glyphName="I" x="0" y="0" flags="0x0"/>
      <component glyphName="uni0306" x="130" y="177" flags="0x4"/>
    </TTGlyph>
    <TTGlyph name="Icircumflex" xMin="17" yMin="-2" xMax="244" yMax="895">
      <component glyphName="I" x="0" y="0" flags="0x0"/>
      <component glyphName="uni0302" x="129" y="177" flags="0x4"/>
    </TTGlyph>
    <TTGlyph name="Idieresis" xMin="20" yMin="-2" xMax="244" yMax="879">
      <component glyphName="I" x="0" y="0" flags="0x0"/>
      <component glyphName="uni0308" x="133" y="177" flags="0x4"/>
    </TTGlyph>
    <TTGlyph name="Idotaccent" xMin="76" yMin="-2" xMax="186" yMax="879">
      <component glyphName="I" x="0" y="0" flags="0x0"/>
      <component glyphName="uni0307" x="131" y="177" flags="0x4"/>
    </TTGlyph>
    <TTGlyph name="Igrave" xMin="16" yMin="-2" xMax="186" yMax="910">
      <component glyphName="I" x="0" y="0" flags="0x0"/>
      <component glyphName="gravecomb" x="130" y="177" flags="0x4"/>
    </TTGlyph>
    <TTGlyph name="Imacron" xMin="13" yMin="-2" xMax="254" yMax="862">
      <component glyphName="I" x="0" y="0" flags="0x0"/>
      <component glyphName="uni0304" x="135" y="177" flags="0x4"/>
    </TTGlyph>
    <TTGlyph name="Iogonek" xMin="76" yMin="-175" xMax="268" yMax="702">
      <contour>
        <pt x="268" y="-104" on="0"/>
        <pt x="268" y="-130" on="1"/>
        <pt x="268" y="-149" on="0"/>
        <pt x="254" y="-158" on="1"/>
        <pt x="227" y="-175" on="0"/>
        <pt x="190" y="-175" on="1"/>
        <pt x="135" y="-175" on="0"/>
        <pt x="97" y="-117" on="0"/>
        <pt x="97" y="-85" on="1"/>
        <pt x="97" y="-43" on="0"/>
        <pt x="119" y="-2" on="1"/>
        <pt x="76" y="-2" on="0"/>
        <pt x="76" y="23" on="1"/>
        <pt x="76" y="677" on="1"/>
        <pt x="76" y="702" on="0"/>
        <pt x="120" y="702" on="1"/>
        <pt x="143" y="702" on="1"/>
        <pt x="186" y="702" on="0"/>
        <pt x="186" y="677" on="1"/>
        <pt x="186" y="23" on="1"/>
        <pt x="186" y="14" on="0"/>
        <pt x="182" y="10" on="1"/>
        <pt x="160" y="-33" on="0"/>
        <pt x="160" y="-67" on="1"/>
        <pt x="160" y="-92" on="0"/>
        <pt x="188" y="-110" on="0"/>
        <pt x="209" y="-110" on="1"/>
        <pt x="217" y="-110" on="0"/>
        <pt x="242" y="-104" on="0"/>
        <pt x="245" y="-104" on="1"/>
      </contour>
    </TTGlyph>
    <TTGlyph name="Itilde" xMin="-20" yMin="-2" xMax="283" yMax="870">
      <component glyphName="I" x="0" y="0" flags="0x0"/>
      <component glyphName="tildecomb" x="129" y="177" flags="0x4"/>
    </TTGlyph>
    <TTGlyph name="J" xMin="9" yMin="-7" xMax="283" yMax="702">
      <contour>
        <pt x="71" y="-7" on="0"/>
        <pt x="9" y="13" on="0"/>
        <pt x="9" y="29" on="1"/>
        <pt x="9" y="47" on="0"/>
        <pt x="26" y="95" on="0"/>
        <pt x="37" y="95" on="1"/>
        <pt x="43" y="95" on="0"/>
        <pt x="75" y="87" on="0"/>
        <pt x="91" y="87" on="1"/>
        <pt x="135" y="87" on="0"/>
        <pt x="173" y="143" on="0"/>
        <pt x="173" y="204" on="1"/>
        <pt x="173" y="677" on="1"/>
        <pt x="173" y="702" on="0"/>
        <pt x="217" y="702" on="1"/>
        <pt x="239" y="702" on="1"/>
        <pt x="283" y="702" on="0"/>
        <pt x="283" y="677" on="1"/>
        <pt x="283" y="204" on="1"/>
        <pt x="283" y="104" on="0"/>
        <pt x="197" y="-7" on="0"/>
        <pt x="106" y="-7" on="1"/>
      </contour>
    </TTGlyph>
    <TTGlyph name="Jcircumflex" xMin="9" yMin="-7" xMax="340" yMax="895">
      <component glyphName="J" x="0" y="0" flags="0x0"/>
      <component glyphName="uni0302" x="225" y="177" flags="0x4"/>
    </TTGlyph>
    <TTGlyph name="K" xMin="74" yMin="-2" xMax="508" yMax="702">
      <contour>
        <pt x="508" y="19" on="0"/>
        <pt x="508" y="12" on="1"/>
        <pt x="508" y="5" on="0"/>
        <pt x="488" y="-2" on="0"/>
        <pt x="465" y="-2" on="1"/>
        <pt x="431" y="-2" on="1"/>
        <pt x="411" y="-2" on="0"/>
        <pt x="387" y="4" on="0"/>
        <pt x="381" y="13" on="1"/>
        <pt x="186" y="335" on="1"/>
        <pt x="183" y="335" on="1"/>
        <pt x="183" y="23" on="1"/>
        <pt x="183" y="-2" on="0"/>
        <pt x="138" y="-2" on="1"/>
        <pt x="118" y="-2" on="1"/>
        <pt x="74" y="-2" on="0"/>
        <pt x="74" y="23" on="1"/>
        <pt x="74" y="677" on="1"/>
        <pt x="74" y="702" on="0"/>
        <pt x="118" y="702" on="1"/>
        <pt x="138" y="702" on="1"/>
        <pt x="183" y="702" on="0"/>
        <pt x="183" y="677" on="1"/>
        <pt x="183" y="369" on="1"/>
        <pt x="187" y="369" on="1"/>
        <pt x="376" y="687" on="1"/>
        <pt x="382" y="696" on="0"/>
        <pt x="405" y="702" on="0"/>
        <pt x="424" y="702" on="1"/>
        <pt x="452" y="702" on="1"/>
        <pt x="493" y="702" on="0"/>
        <pt x="493" y="688" on="1"/>
        <pt x="493" y="679" on="0"/>
        <pt x="485" y="668" on="1"/>
        <pt x="287" y="357" on="1"/>
        <pt x="502" y="30" on="1"/>
      </contour>
    </TTGlyph>
    <TTGlyph name="Kcommaaccent" xMin="74" yMin="-236" xMax="508" yMax="702">
      <component glyphName="K" x="0" y="0" flags="0x0"/>
      <component glyphName="uni0326" x="390" y="0" flags="0x0"/>
    </TTGlyph>
    <TTGlyph name="L" xMin="72" yMin="0" xMax="395" yMax="702">
      <contour>
        <pt x="86" y="0" on="0"/>
        <pt x="72" y="16" on="0"/>
        <pt x="72" y="33" on="1"/>
        <pt x="72" y="677" on="1"/>
        <pt x="72" y="702" on="0"/>
        <pt x="116" y="702" on="1"/>
        <pt x="137" y="702" on="1"/>
        <pt x="181" y="702" on="0"/>
        <pt x="181" y="677" on="1"/>
        <pt x="181" y="92" on="1"/>
        <pt x="372" y="92" on="1"/>
        <pt x="384" y="92" on="0"/>
        <pt x="395" y="75" on="0"/>
        <pt x="395" y="56" on="1"/>
        <pt x="395" y="36" on="1"/>
        <pt x="395" y="17" on="0"/>
        <pt x="384" y="0" on="0"/>
        <pt x="372" y="0" on="1"/>
        <pt x="102" y="0" on="1"/>
      </contour>
    </TTGlyph>
    <TTGlyph name="Lacute" xMin="72" yMin="0" xMax="395" yMax="911">
      <component glyphName="L" x="0" y="0" flags="0x0"/>
      <component glyphName="acutecomb" x="223" y="178" flags="0x4"/>
    </TTGlyph>
    <TTGlyph name="Lcaron" xMin="72" yMin="0" xMax="395" yMax="702">
      <component glyphName="L" x="0" y="0" flags="0x0"/>
      <component glyphName="caron.alt" x="207" y="0" flags="0x0"/>
    </TTGlyph>
    <TTGlyph name="Lcommaaccent" xMin="72" yMin="-236" xMax="395" yMax="702">
      <component glyphName="L" x="0" y="0" flags="0x0"/>
      <component glyphName="uni0326" x="360" y="0" flags="0x0"/>
    </TTGlyph>
    <TTGlyph name="Ldot" xMin="72" yMin="0" xMax="395" yMax="702">
      <component glyphName="L" x="0" y="0" flags="0x0"/>
      <component glyphName="periodcentered" x="184" y="0" flags="0x0"/>
    </TTGlyph>
    <TTGlyph name="Lslash" xMin="72" yMin="0" xMax="395" yMax="702">
      <contour>
        <pt x="384" y="92" on="0"/>
        <pt x="395" y="75" on="0"/>
        <pt x="395" y="56" on="1"/>
        <pt x="395" y="36" on="1"/>
        <pt x="395" y="17" on="0"/>
        <pt x="384" y="0" on="0"/>
        <pt x="372" y="0" on="1"/>
        <pt x="102" y="0" on="1"/>
        <pt x="86" y="0" on="0"/>
        <pt x="72" y="16" on="0"/>
        <pt x="72" y="33" on="1"/>
        <pt x="72" y="677" on="1"/>
        <pt x="72" y="702" on="0"/>
        <pt x="116" y="702" on="1"/>
        <pt x="137" y="702" on="1"/>
        <pt x="181" y="702" on="0"/>
        <pt x="181" y="677" on="1"/>
        <pt x="181" y="423" on="1"/>
        <pt x="194" y="431" on="1"/>
        <pt x="196" y="433" on="0"/>
        <pt x="197" y="433" on="1"/>
        <pt x="198" y="433" on="0"/>
        <pt x="200" y="431" on="0"/>
        <pt x="200" y="429" on="1"/>
        <pt x="200" y="424" on="0"/>
        <pt x="194" y="422" on="1"/>
        <pt x="181" y="414" on="1"/>
        <pt x="181" y="92" on="1"/>
        <pt x="372" y="92" on="1"/>
      </contour>
      <contour>
        <pt x="200" y="429" on="1"/>
        <pt x="200" y="430" on="1"/>
      </contour>
      <contour>
        <pt x="96" y="369" on="1"/>
        <pt x="96" y="370" on="1"/>
        <pt x="96" y="371" on="1"/>
      </contour>
    </TTGlyph>
    <TTGlyph name="M" xMin="67" yMin="-2" xMax="624" yMax="702">
      <contour>
        <pt x="311" y="234" on="0"/>
        <pt x="304" y="251" on="1"/>
        <pt x="199" y="454" on="1"/>
        <pt x="186" y="479" on="0"/>
        <pt x="172" y="517" on="1"/>
        <pt x="168" y="515" on="1"/>
        <pt x="173" y="478" on="0"/>
        <pt x="173" y="449" on="1"/>
        <pt x="173" y="23" on="1"/>
        <pt x="173" y="-2" on="0"/>
        <pt x="129" y="-2" on="1"/>
        <pt x="111" y="-2" on="1"/>
        <pt x="67" y="-2" on="0"/>
        <pt x="67" y="23" on="1"/>
        <pt x="67" y="677" on="1"/>
        <pt x="67" y="702" on="0"/>
        <pt x="111" y="702" on="1"/>
        <pt x="135" y="702" on="1"/>
        <pt x="169" y="702" on="0"/>
        <pt x="179" y="681" on="1"/>
        <pt x="329" y="391" on="1"/>
        <pt x="340" y="369" on="0"/>
        <pt x="345" y="343" on="1"/>
        <pt x="352" y="371" on="0"/>
        <pt x="362" y="391" on="1"/>
        <pt x="512" y="681" on="1"/>
        <pt x="523" y="702" on="0"/>
        <pt x="556" y="702" on="1"/>
        <pt x="580" y="702" on="1"/>
        <pt x="624" y="702" on="0"/>
        <pt x="624" y="677" on="1"/>
        <pt x="624" y="23" on="1"/>
        <pt x="624" y="-2" on="0"/>
        <pt x="580" y="-2" on="1"/>
        <pt x="562" y="-2" on="1"/>
        <pt x="518" y="-2" on="0"/>
        <pt x="518" y="23" on="1"/>
        <pt x="518" y="449" on="1"/>
        <pt x="518" y="478" on="0"/>
        <pt x="523" y="515" on="1"/>
        <pt x="519" y="517" on="1"/>
        <pt x="505" y="479" on="0"/>
        <pt x="492" y="454" on="1"/>
        <pt x="387" y="251" on="1"/>
        <pt x="380" y="234" on="0"/>
        <pt x="360" y="234" on="1"/>
        <pt x="331" y="234" on="1"/>
      </contour>
    </TTGlyph>
    <TTGlyph name="N" xMin="67" yMin="-2" xMax="523" yMax="702">
      <contour>
        <pt x="67" y="-2" on="0"/>
        <pt x="67" y="23" on="1"/>
        <pt x="67" y="677" on="1"/>
        <pt x="67" y="702" on="0"/>
        <pt x="111" y="702" on="1"/>
        <pt x="135" y="702" on="1"/>
        <pt x="151" y="702" on="0"/>
        <pt x="172" y="693" on="0"/>
        <pt x="178" y="680" on="1"/>
        <pt x="395" y="268" on="1"/>
        <pt x="408" y="243" on="0"/>
        <pt x="423" y="200" on="1"/>
        <pt x="428" y="202" on="1"/>
        <pt x="420" y="239" on="0"/>
        <pt x="420" y="272" on="1"/>
        <pt x="420" y="677" on="1"/>
        <pt x="420" y="702" on="0"/>
        <pt x="464" y="702" on="1"/>
        <pt x="479" y="702" on="1"/>
        <pt x="523" y="702" on="0"/>
        <pt x="523" y="677" on="1"/>
        <pt x="523" y="23" on="1"/>
        <pt x="523" y="-2" on="0"/>
        <pt x="479" y="-2" on="1"/>
        <pt x="459" y="-2" on="1"/>
        <pt x="426" y="-2" on="0"/>
        <pt x="418" y="17" on="1"/>
        <pt x="193" y="444" on="1"/>
        <pt x="180" y="467" on="0"/>
        <pt x="167" y="507" on="1"/>
        <pt x="162" y="505" on="1"/>
        <pt x="170" y="468" on="0"/>
        <pt x="170" y="438" on="1"/>
        <pt x="170" y="23" on="1"/>
        <pt x="170" y="-2" on="0"/>
        <pt x="126" y="-2" on="1"/>
        <pt x="111" y="-2" on="1"/>
      </contour>
    </TTGlyph>
    <TTGlyph name="Nacute" xMin="67" yMin="-2" xMax="523" yMax="910">
      <component glyphName="N" x="0" y="0" flags="0x0"/>
      <component glyphName="acutecomb" x="390" y="177" flags="0x4"/>
    </TTGlyph>
    <TTGlyph name="Nacute.loclPLK" xMin="67" yMin="-2" xMax="523" yMax="910">
      <component glyphName="N" x="0" y="0" flags="0x0"/>
      <component glyphName="acute.loclPLK" x="205" y="177" flags="0x4"/>
    </TTGlyph>
    <TTGlyph name="Ncaron" xMin="67" yMin="-2" xMax="523" yMax="900">
      <component glyphName="N" x="0" y="0" flags="0x0"/>
      <component glyphName="uni030C" x="290" y="177" flags="0x4"/>
    </TTGlyph>
    <TTGlyph name="Ncommaaccent" xMin="67" yMin="-236" xMax="523" yMax="702">
      <component glyphName="N" x="0" y="0" flags="0x0"/>
      <component glyphName="uni0326" x="425" y="0" flags="0x0"/>
    </TTGlyph>
    <TTGlyph name="Ntilde" xMin="67" yMin="-2" xMax="523" yMax="870">
      <component glyphName="N" x="0" y="0" flags="0x0"/>
      <component glyphName="tildecomb" x="293" y="177" flags="0x4"/>
    </TTGlyph>
    <TTGlyph name="O" xMin="46" yMin="-7" xMax="553" yMax="707">
      <contour>
        <pt x="175" y="-7" on="0"/>
        <pt x="46" y="170" on="0"/>
        <pt x="46" y="351" on="1"/>
        <pt x="46" y="707" on="0"/>
        <pt x="299" y="707" on="1"/>
        <pt x="553" y="707" on="0"/>
        <pt x="553" y="351" on="1"/>
        <pt x="553" y="-7" on="0"/>
        <pt x="299" y="-7" on="1"/>
      </contour>
      <contour>
        <pt x="371" y="85" on="0"/>
        <pt x="442" y="213" on="0"/>
        <pt x="442" y="351" on="1"/>
        <pt x="442" y="489" on="0"/>
        <pt x="371" y="614" on="0"/>
        <pt x="300" y="614" on="1"/>
        <pt x="228" y="614" on="0"/>
        <pt x="158" y="490" on="0"/>
        <pt x="158" y="351" on="1"/>
        <pt x="158" y="213" on="0"/>
        <pt x="229" y="85" on="0"/>
        <pt x="300" y="85" on="1"/>
      </contour>
    </TTGlyph>
    <TTGlyph name="OE" xMin="46" yMin="-7" xMax="785" yMax="707">
      <contour>
        <pt x="785" y="92" on="0"/>
        <pt x="785" y="56" on="1"/>
        <pt x="785" y="36" on="1"/>
        <pt x="785" y="0" on="0"/>
        <pt x="763" y="0" on="1"/>
        <pt x="469" y="0" on="1"/>
        <pt x="453" y="0" on="0"/>
        <pt x="439" y="16" on="0"/>
        <pt x="439" y="33" on="1"/>
        <pt x="439" y="57" on="1"/>
        <pt x="379" y="-7" on="0"/>
        <pt x="287" y="-7" on="1"/>
        <pt x="172" y="-7" on="0"/>
        <pt x="46" y="169" on="0"/>
        <pt x="46" y="352" on="1"/>
        <pt x="46" y="707" on="0"/>
        <pt x="289" y="707" on="1"/>
        <pt x="336" y="707" on="0"/>
        <pt x="409" y="677" on="0"/>
        <pt x="439" y="644" on="1"/>
        <pt x="439" y="668" on="1"/>
        <pt x="439" y="685" on="0"/>
        <pt x="453" y="700" on="0"/>
        <pt x="469" y="700" on="1"/>
        <pt x="762" y="700" on="1"/>
        <pt x="784" y="700" on="0"/>
        <pt x="784" y="664" on="1"/>
        <pt x="784" y="644" on="1"/>
        <pt x="784" y="608" on="0"/>
        <pt x="762" y="608" on="1"/>
        <pt x="548" y="608" on="1"/>
        <pt x="548" y="404" on="1"/>
        <pt x="740" y="404" on="1"/>
        <pt x="762" y="404" on="0"/>
        <pt x="762" y="368" on="1"/>
        <pt x="762" y="348" on="1"/>
        <pt x="762" y="312" on="0"/>
        <pt x="740" y="312" on="1"/>
        <pt x="548" y="312" on="1"/>
        <pt x="548" y="92" on="1"/>
        <pt x="763" y="92" on="1"/>
      </contour>
      <contour>
        <pt x="367" y="85" on="0"/>
        <pt x="438" y="212" on="0"/>
        <pt x="438" y="351" on="1"/>
        <pt x="438" y="492" on="0"/>
        <pt x="368" y="614" on="0"/>
        <pt x="296" y="614" on="1"/>
        <pt x="226" y="614" on="0"/>
        <pt x="158" y="492" on="0"/>
        <pt x="158" y="351" on="1"/>
        <pt x="158" y="212" on="0"/>
        <pt x="227" y="85" on="0"/>
        <pt x="296" y="85" on="1"/>
      </contour>
    </TTGlyph>
    <TTGlyph name="Oacute" xMin="46" yMin="-7" xMax="553" yMax="910">
      <component glyphName="O" x="0" y="0" flags="0x0"/>
      <component glyphName="acutecomb" x="395" y="177" flags="0x4"/>
    </TTGlyph>
    <TTGlyph name="Oacute.loclPLK" xMin="46" yMin="-7" xMax="553" yMax="910">
      <component glyphName="O" x="0" y="0" flags="0x0"/>
      <component glyphName="acute.loclPLK" x="210" y="177" flags="0x4"/>
    </TTGlyph>
    <TTGlyph name="Obreve" xMin="46" yMin="-7" xMax="553" yMax="892">
      <component glyphName="O" x="0" y="0" flags="0x0"/>
      <component glyphName="uni0306" x="299" y="177" flags="0x4"/>
    </TTGlyph>
    <TTGlyph name="Ocircumflex" xMin="46" yMin="-7" xMax="553" yMax="895">
      <component glyphName="O" x="0" y="0" flags="0x0"/>
      <component glyphName="uni0302" x="298" y="177" flags="0x4"/>
    </TTGlyph>
    <TTGlyph name="Odieresis" xMin="46" yMin="-7" xMax="553" yMax="879">
      <component glyphName="O" x="0" y="0" flags="0x0"/>
      <component glyphName="uni0308" x="302" y="177" flags="0x4"/>
    </TTGlyph>
    <TTGlyph name="Ograve" xMin="46" yMin="-7" xMax="553" yMax="910">
      <component glyphName="O" x="0" y="0" flags="0x0"/>
      <component glyphName="gravecomb" x="299" y="177" flags="0x4"/>
    </TTGlyph>
    <TTGlyph name="Ohorn" xMin="46" yMin="-7" xMax="578" yMax="787">
      <contour>
        <pt x="175" y="-7" on="0"/>
        <pt x="46" y="170" on="0"/>
        <pt x="46" y="351" on="1"/>
        <pt x="46" y="707" on="0"/>
        <pt x="299" y="707" on="1"/>
        <pt x="379" y="707" on="0"/>
        <pt x="440" y="666" on="1"/>
        <pt x="458" y="655" on="0"/>
        <pt x="473" y="655" on="1"/>
        <pt x="512" y="655" on="0"/>
        <pt x="512" y="688" on="1"/>
        <pt x="512" y="700" on="0"/>
        <pt x="502" y="719" on="0"/>
        <pt x="485" y="743" on="0"/>
        <pt x="485" y="748" on="1"/>
        <pt x="485" y="759" on="0"/>
        <pt x="494" y="765" on="1"/>
        <pt x="521" y="783" on="1"/>
        <pt x="526" y="787" on="0"/>
        <pt x="534" y="787" on="1"/>
        <pt x="551" y="787" on="0"/>
        <pt x="578" y="735" on="0"/>
        <pt x="578" y="711" on="1"/>
        <pt x="578" y="672" on="0"/>
        <pt x="532" y="624" on="0"/>
        <pt x="486" y="620" on="1"/>
        <pt x="553" y="532" on="0"/>
        <pt x="553" y="351" on="1"/>
        <pt x="553" y="-7" on="0"/>
        <pt x="299" y="-7" on="1"/>
      </contour>
      <contour>
        <pt x="371" y="85" on="0"/>
        <pt x="442" y="213" on="0"/>
        <pt x="442" y="351" on="1"/>
        <pt x="442" y="489" on="0"/>
        <pt x="371" y="614" on="0"/>
        <pt x="300" y="614" on="1"/>
        <pt x="228" y="614" on="0"/>
        <pt x="158" y="490" on="0"/>
        <pt x="158" y="351" on="1"/>
        <pt x="158" y="213" on="0"/>
        <pt x="229" y="85" on="0"/>
        <pt x="300" y="85" on="1"/>
      </contour>
    </TTGlyph>
    <TTGlyph name="Ohungarumlaut" xMin="46" yMin="-7" xMax="553" yMax="910">
      <component glyphName="O" x="0" y="0" flags="0x0"/>
      <component glyphName="uni030B" x="321" y="177" flags="0x4"/>
    </TTGlyph>
    <TTGlyph name="Omacron" xMin="46" yMin="-7" xMax="553" yMax="862">
      <component glyphName="O" x="0" y="0" flags="0x0"/>
      <component glyphName="uni0304" x="304" y="177" flags="0x4"/>
    </TTGlyph>
    <TTGlyph name="Oslash" xMin="46" yMin="-19" xMax="553" yMax="720">
      <contour>
        <pt x="553" y="527" on="0"/>
        <pt x="553" y="351" on="1"/>
        <pt x="553" y="-7" on="0"/>
        <pt x="299" y="-7" on="1"/>
        <pt x="198" y="-7" on="0"/>
        <pt x="136" y="52" on="1"/>
        <pt x="100" y="-6" on="1"/>
        <pt x="94" y="-19" on="0"/>
        <pt x="83" y="-19" on="1"/>
        <pt x="74" y="-19" on="0"/>
        <pt x="52" y="-3" on="0"/>
        <pt x="52" y="6" on="1"/>
        <pt x="52" y="15" on="0"/>
        <pt x="57" y="21" on="1"/>
        <pt x="103" y="94" on="1"/>
        <pt x="46" y="183" on="0"/>
        <pt x="46" y="351" on="1"/>
        <pt x="46" y="707" on="0"/>
        <pt x="299" y="707" on="1"/>
        <pt x="395" y="707" on="0"/>
        <pt x="455" y="656" on="1"/>
        <pt x="488" y="708" on="1"/>
        <pt x="496" y="720" on="0"/>
        <pt x="505" y="720" on="1"/>
        <pt x="515" y="720" on="0"/>
        <pt x="537" y="704" on="0"/>
        <pt x="537" y="695" on="1"/>
        <pt x="537" y="689" on="0"/>
        <pt x="532" y="681" on="1"/>
        <pt x="491" y="616" on="1"/>
      </contour>
      <contour>
        <pt x="158" y="264" on="0"/>
        <pt x="172" y="205" on="1"/>
        <pt x="398" y="565" on="1"/>
        <pt x="365" y="614" on="0"/>
        <pt x="300" y="614" on="1"/>
        <pt x="228" y="614" on="0"/>
        <pt x="158" y="490" on="0"/>
        <pt x="158" y="351" on="1"/>
      </contour>
      <contour>
        <pt x="371" y="85" on="0"/>
        <pt x="442" y="213" on="0"/>
        <pt x="442" y="351" on="1"/>
        <pt x="442" y="449" on="0"/>
        <pt x="424" y="509" on="1"/>
        <pt x="195" y="145" on="1"/>
        <pt x="230" y="85" on="0"/>
        <pt x="300" y="85" on="1"/>
      </contour>
    </TTGlyph>
    <TTGlyph name="Oslashacute" xMin="46" yMin="-19" xMax="553" yMax="910">
      <component glyphName="Oslash" x="0" y="0" flags="0x0"/>
      <component glyphName="acutecomb" x="395" y="177" flags="0x4"/>
    </TTGlyph>
    <TTGlyph name="Otilde" xMin="46" yMin="-7" xMax="553" yMax="870">
      <component glyphName="O" x="0" y="0" flags="0x0"/>
      <component glyphName="tildecomb" x="298" y="177" flags="0x4"/>
    </TTGlyph>
    <TTGlyph name="P" xMin="68" yMin="-2" xMax="453" yMax="700">
      <contour>
        <pt x="68" y="-2" on="0"/>
        <pt x="68" y="23" on="1"/>
        <pt x="68" y="667" on="1"/>
        <pt x="68" y="684" on="0"/>
        <pt x="83" y="700" on="0"/>
        <pt x="99" y="700" on="1"/>
        <pt x="266" y="700" on="1"/>
        <pt x="339" y="700" on="0"/>
        <pt x="453" y="614" on="0"/>
        <pt x="453" y="497" on="1"/>
        <pt x="453" y="413" on="0"/>
        <pt x="388" y="320" on="0"/>
        <pt x="306" y="288" on="0"/>
        <pt x="274" y="288" on="1"/>
        <pt x="176" y="288" on="1"/>
        <pt x="176" y="23" on="1"/>
        <pt x="176" y="-2" on="0"/>
        <pt x="132" y="-2" on="1"/>
        <pt x="112" y="-2" on="1"/>
      </contour>
      <contour>
        <pt x="266" y="379" on="1"/>
        <pt x="296" y="379" on="0"/>
        <pt x="344" y="431" on="0"/>
        <pt x="344" y="497" on="1"/>
        <pt x="344" y="559" on="0"/>
        <pt x="295" y="608" on="0"/>
        <pt x="261" y="608" on="1"/>
        <pt x="176" y="608" on="1"/>
        <pt x="176" y="379" on="1"/>
      </contour>
    </TTGlyph>
    <TTGlyph name="Q" xMin="46" yMin="-166" xMax="589" yMax="707">
      <contour>
        <pt x="526" y="-166" on="0"/>
        <pt x="347" y="-69" on="1"/>
        <pt x="309" y="-49" on="0"/>
        <pt x="229" y="-6" on="0"/>
        <pt x="190" y="14" on="1"/>
        <pt x="118" y="50" on="0"/>
        <pt x="46" y="216" on="0"/>
        <pt x="46" y="350" on="1"/>
        <pt x="46" y="531" on="0"/>
        <pt x="175" y="707" on="0"/>
        <pt x="299" y="707" on="1"/>
        <pt x="553" y="707" on="0"/>
        <pt x="553" y="350" on="1"/>
        <pt x="553" y="71" on="0"/>
        <pt x="399" y="12" on="1"/>
        <pt x="399" y="8" on="1"/>
        <pt x="577" y="-75" on="1"/>
        <pt x="589" y="-81" on="0"/>
        <pt x="589" y="-91" on="1"/>
        <pt x="588" y="-99" on="0"/>
        <pt x="570" y="-136" on="0"/>
        <pt x="546" y="-166" on="0"/>
        <pt x="535" y="-166" on="1"/>
      </contour>
      <contour>
        <pt x="371" y="84" on="0"/>
        <pt x="442" y="212" on="0"/>
        <pt x="442" y="350" on="1"/>
        <pt x="442" y="488" on="0"/>
        <pt x="371" y="614" on="0"/>
        <pt x="300" y="614" on="1"/>
        <pt x="229" y="614" on="0"/>
        <pt x="158" y="488" on="0"/>
        <pt x="158" y="350" on="1"/>
        <pt x="158" y="211" on="0"/>
        <pt x="229" y="84" on="0"/>
        <pt x="300" y="84" on="1"/>
      </contour>
    </TTGlyph>
    <TTGlyph name="R" xMin="70" yMin="-2" xMax="493" yMax="700">
      <contour>
        <pt x="70" y="-2" on="0"/>
        <pt x="70" y="23" on="1"/>
        <pt x="70" y="667" on="1"/>
        <pt x="70" y="700" on="0"/>
        <pt x="101" y="700" on="1"/>
        <pt x="255" y="700" on="1"/>
        <pt x="352" y="700" on="0"/>
        <pt x="452" y="614" on="0"/>
        <pt x="452" y="517" on="1"/>
        <pt x="452" y="397" on="0"/>
        <pt x="359" y="348" on="1"/>
        <pt x="359" y="344" on="1"/>
        <pt x="380" y="333" on="0"/>
        <pt x="412" y="275" on="0"/>
        <pt x="428" y="226" on="1"/>
        <pt x="490" y="31" on="1"/>
        <pt x="491" y="27" on="0"/>
        <pt x="493" y="20" on="0"/>
        <pt x="493" y="17" on="1"/>
        <pt x="493" y="-2" on="0"/>
        <pt x="447" y="-2" on="1"/>
        <pt x="425" y="-2" on="1"/>
        <pt x="408" y="-2" on="0"/>
        <pt x="384" y="8" on="0"/>
        <pt x="381" y="17" on="1"/>
        <pt x="323" y="212" on="1"/>
        <pt x="308" y="259" on="0"/>
        <pt x="269" y="293" on="0"/>
        <pt x="231" y="293" on="1"/>
        <pt x="179" y="293" on="1"/>
        <pt x="179" y="23" on="1"/>
        <pt x="179" y="-2" on="0"/>
        <pt x="134" y="-2" on="1"/>
        <pt x="115" y="-2" on="1"/>
      </contour>
      <contour>
        <pt x="266" y="389" on="1"/>
        <pt x="298" y="389" on="0"/>
        <pt x="343" y="454" on="0"/>
        <pt x="343" y="502" on="1"/>
        <pt x="343" y="556" on="0"/>
        <pt x="299" y="608" on="0"/>
        <pt x="261" y="608" on="1"/>
        <pt x="178" y="608" on="1"/>
        <pt x="178" y="389" on="1"/>
      </contour>
    </TTGlyph>
    <TTGlyph name="Racute" xMin="70" yMin="-2" xMax="493" yMax="910">
      <component glyphName="R" x="0" y="0" flags="0x0"/>
      <component glyphName="acutecomb" x="348" y="177" flags="0x4"/>
    </TTGlyph>
    <TTGlyph name="Rcaron" xMin="70" yMin="-2" xMax="493" yMax="900">
      <component glyphName="R" x="0" y="0" flags="0x0"/>
      <component glyphName="uni030C" x="248" y="177" flags="0x4"/>
    </TTGlyph>
    <TTGlyph name="Rcommaaccent" xMin="70" yMin="-236" xMax="493" yMax="700">
      <component glyphName="R" x="0" y="0" flags="0x0"/>
      <component glyphName="uni0326" x="386" y="0" flags="0x0"/>
    </TTGlyph>
    <TTGlyph name="S" xMin="30" yMin="-6" xMax="413" yMax="710">
      <contour>
        <pt x="155" y="-6" on="0"/>
        <pt x="71" y="19" on="0"/>
        <pt x="42" y="42" on="1"/>
        <pt x="36" y="48" on="0"/>
        <pt x="30" y="59" on="0"/>
        <pt x="30" y="68" on="1"/>
        <pt x="30" y="89" on="0"/>
        <pt x="48" y="134" on="0"/>
        <pt x="60" y="134" on="1"/>
        <pt x="65" y="134" on="0"/>
        <pt x="78" y="127" on="0"/>
        <pt x="82" y="125" on="1"/>
        <pt x="132" y="88" on="0"/>
        <pt x="200" y="88" on="1"/>
        <pt x="246" y="88" on="0"/>
        <pt x="305" y="140" on="0"/>
        <pt x="305" y="188" on="1"/>
        <pt x="305" y="232" on="0"/>
        <pt x="255" y="282" on="0"/>
        <pt x="205" y="308" on="1"/>
        <pt x="151" y="336" on="0"/>
        <pt x="85" y="385" on="0"/>
        <pt x="44" y="460" on="0"/>
        <pt x="44" y="515" on="1"/>
        <pt x="44" y="606" on="0"/>
        <pt x="159" y="710" on="0"/>
        <pt x="251" y="710" on="1"/>
        <pt x="286" y="710" on="0"/>
        <pt x="352" y="693" on="0"/>
        <pt x="376" y="678" on="1"/>
        <pt x="386" y="672" on="0"/>
        <pt x="386" y="660" on="1"/>
        <pt x="386" y="642" on="0"/>
        <pt x="366" y="592" on="0"/>
        <pt x="355" y="592" on="1"/>
        <pt x="351" y="592" on="0"/>
        <pt x="337" y="598" on="1"/>
        <pt x="297" y="616" on="0"/>
        <pt x="252" y="616" on="1"/>
        <pt x="207" y="616" on="0"/>
        <pt x="151" y="567" on="0"/>
        <pt x="151" y="524" on="1"/>
        <pt x="151" y="493" on="0"/>
        <pt x="178" y="450" on="0"/>
        <pt x="222" y="420" on="0"/>
        <pt x="264" y="397" on="1"/>
        <pt x="313" y="371" on="0"/>
        <pt x="375" y="323" on="0"/>
        <pt x="413" y="250" on="0"/>
        <pt x="413" y="196" on="1"/>
        <pt x="413" y="104" on="0"/>
        <pt x="298" y="-6" on="0"/>
        <pt x="202" y="-6" on="1"/>
      </contour>
    </TTGlyph>
    <TTGlyph name="Sacute" xMin="30" yMin="-6" xMax="413" yMax="910">
      <component glyphName="S" x="0" y="0" flags="0x0"/>
      <component glyphName="acutecomb" x="329" y="177" flags="0x4"/>
    </TTGlyph>
    <TTGlyph name="Sacute.loclPLK" xMin="30" yMin="-6" xMax="413" yMax="910">
      <component glyphName="S" x="0" y="0" flags="0x0"/>
      <component glyphName="acute.loclPLK" x="144" y="177" flags="0x4"/>
    </TTGlyph>
    <TTGlyph name="Scaron" xMin="30" yMin="-6" xMax="413" yMax="900">
      <component glyphName="S" x="0" y="0" flags="0x0"/>
      <component glyphName="uni030C" x="229" y="177" flags="0x4"/>
    </TTGlyph>
    <TTGlyph name="Scedilla" xMin="30" yMin="-211" xMax="413" yMax="710">
      <contour>
        <pt x="413" y="115" on="0"/>
        <pt x="322" y="9" on="0"/>
        <pt x="244" y="-3" on="1"/>
        <pt x="229" y="-56" on="1"/>
        <pt x="257" y="-58" on="0"/>
        <pt x="300" y="-90" on="0"/>
        <pt x="300" y="-126" on="1"/>
        <pt x="300" y="-171" on="0"/>
        <pt x="246" y="-211" on="0"/>
        <pt x="202" y="-211" on="1"/>
        <pt x="167" y="-211" on="0"/>
        <pt x="104" y="-184" on="0"/>
        <pt x="104" y="-165" on="1"/>
        <pt x="104" y="-154" on="0"/>
        <pt x="120" y="-134" on="0"/>
        <pt x="127" y="-134" on="1"/>
        <pt x="133" y="-134" on="0"/>
        <pt x="151" y="-142" on="1"/>
        <pt x="177" y="-155" on="0"/>
        <pt x="195" y="-155" on="1"/>
        <pt x="207" y="-155" on="0"/>
        <pt x="226" y="-142" on="0"/>
        <pt x="226" y="-129" on="1"/>
        <pt x="226" y="-116" on="0"/>
        <pt x="211" y="-104" on="0"/>
        <pt x="196" y="-99" on="1"/>
        <pt x="184" y="-94" on="0"/>
        <pt x="174" y="-86" on="0"/>
        <pt x="174" y="-79" on="1"/>
        <pt x="174" y="-73" on="0"/>
        <pt x="184" y="-39" on="0"/>
        <pt x="195" y="-6" on="1"/>
        <pt x="150" y="-5" on="0"/>
        <pt x="70" y="20" on="0"/>
        <pt x="42" y="42" on="1"/>
        <pt x="36" y="48" on="0"/>
        <pt x="30" y="59" on="0"/>
        <pt x="30" y="68" on="1"/>
        <pt x="30" y="89" on="0"/>
        <pt x="48" y="134" on="0"/>
        <pt x="60" y="134" on="1"/>
        <pt x="65" y="134" on="0"/>
        <pt x="78" y="127" on="0"/>
        <pt x="82" y="125" on="1"/>
        <pt x="132" y="88" on="0"/>
        <pt x="200" y="88" on="1"/>
        <pt x="246" y="88" on="0"/>
        <pt x="305" y="140" on="0"/>
        <pt x="305" y="188" on="1"/>
        <pt x="305" y="232" on="0"/>
        <pt x="255" y="282" on="0"/>
        <pt x="205" y="308" on="1"/>
        <pt x="151" y="336" on="0"/>
        <pt x="85" y="385" on="0"/>
        <pt x="44" y="460" on="0"/>
        <pt x="44" y="515" on="1"/>
        <pt x="44" y="606" on="0"/>
        <pt x="159" y="710" on="0"/>
        <pt x="251" y="710" on="1"/>
        <pt x="286" y="710" on="0"/>
        <pt x="352" y="693" on="0"/>
        <pt x="376" y="678" on="1"/>
        <pt x="386" y="672" on="0"/>
        <pt x="386" y="660" on="1"/>
        <pt x="386" y="642" on="0"/>
        <pt x="366" y="592" on="0"/>
        <pt x="355" y="592" on="1"/>
        <pt x="351" y="592" on="0"/>
        <pt x="337" y="598" on="1"/>
        <pt x="297" y="616" on="0"/>
        <pt x="252" y="616" on="1"/>
        <pt x="207" y="616" on="0"/>
        <pt x="151" y="567" on="0"/>
        <pt x="151" y="524" on="1"/>
        <pt x="151" y="493" on="0"/>
        <pt x="178" y="450" on="0"/>
        <pt x="222" y="420" on="0"/>
        <pt x="264" y="397" on="1"/>
        <pt x="313" y="371" on="0"/>
        <pt x="375" y="323" on="0"/>
        <pt x="413" y="250" on="0"/>
        <pt x="413" y="196" on="1"/>
      </contour>
    </TTGlyph>
    <TTGlyph name="Scircumflex" xMin="30" yMin="-6" xMax="413" yMax="895">
      <component glyphName="S" x="0" y="0" flags="0x0"/>
      <component glyphName="uni0302" x="232" y="177" flags="0x4"/>
    </TTGlyph>
    <TTGlyph name="Scommaaccent" xMin="30" yMin="-236" xMax="413" yMax="710">
      <component glyphName="S" x="0" y="0" flags="0x0"/>
      <component glyphName="uni0326" x="349" y="0" flags="0x0"/>
    </TTGlyph>
    <TTGlyph name="T" xMin="17" yMin="-2" xMax="438" yMax="700">
      <contour>
        <pt x="173" y="-2" on="0"/>
        <pt x="173" y="23" on="1"/>
        <pt x="173" y="608" on="1"/>
        <pt x="38" y="608" on="1"/>
        <pt x="27" y="608" on="0"/>
        <pt x="17" y="625" on="0"/>
        <pt x="17" y="644" on="1"/>
        <pt x="17" y="664" on="1"/>
        <pt x="17" y="683" on="0"/>
        <pt x="27" y="700" on="0"/>
        <pt x="38" y="700" on="1"/>
        <pt x="416" y="700" on="1"/>
        <pt x="428" y="700" on="0"/>
        <pt x="438" y="683" on="0"/>
        <pt x="438" y="664" on="1"/>
        <pt x="438" y="644" on="1"/>
        <pt x="438" y="625" on="0"/>
        <pt x="428" y="608" on="0"/>
        <pt x="416" y="608" on="1"/>
        <pt x="282" y="608" on="1"/>
        <pt x="282" y="23" on="1"/>
        <pt x="282" y="-2" on="0"/>
        <pt x="238" y="-2" on="1"/>
        <pt x="217" y="-2" on="1"/>
      </contour>
    </TTGlyph>
    <TTGlyph name="Tbar" xMin="17" yMin="-2" xMax="438" yMax="700">
      <contour>
        <pt x="428" y="700" on="0"/>
        <pt x="438" y="683" on="0"/>
        <pt x="438" y="664" on="1"/>
        <pt x="438" y="644" on="1"/>
        <pt x="438" y="625" on="0"/>
        <pt x="428" y="608" on="0"/>
        <pt x="416" y="608" on="1"/>
        <pt x="282" y="608" on="1"/>
        <pt x="282" y="391" on="1"/>
        <pt x="364" y="391" on="1"/>
        <pt x="376" y="391" on="0"/>
        <pt x="386" y="375" on="0"/>
        <pt x="386" y="358" on="1"/>
        <pt x="386" y="347" on="1"/>
        <pt x="386" y="330" on="0"/>
        <pt x="376" y="314" on="0"/>
        <pt x="364" y="314" on="1"/>
        <pt x="282" y="314" on="1"/>
        <pt x="282" y="23" on="1"/>
        <pt x="282" y="-2" on="0"/>
        <pt x="238" y="-2" on="1"/>
        <pt x="217" y="-2" on="1"/>
        <pt x="173" y="-2" on="0"/>
        <pt x="173" y="23" on="1"/>
        <pt x="173" y="314" on="1"/>
        <pt x="78" y="314" on="1"/>
        <pt x="56" y="314" on="0"/>
        <pt x="56" y="347" on="1"/>
        <pt x="56" y="358" on="1"/>
        <pt x="56" y="391" on="0"/>
        <pt x="78" y="391" on="1"/>
        <pt x="173" y="391" on="1"/>
        <pt x="173" y="608" on="1"/>
        <pt x="38" y="608" on="1"/>
        <pt x="27" y="608" on="0"/>
        <pt x="17" y="625" on="0"/>
        <pt x="17" y="644" on="1"/>
        <pt x="17" y="664" on="1"/>
        <pt x="17" y="683" on="0"/>
        <pt x="27" y="700" on="0"/>
        <pt x="38" y="700" on="1"/>
        <pt x="416" y="700" on="1"/>
      </contour>
    </TTGlyph>
    <TTGlyph name="Tcaron" xMin="17" yMin="-2" xMax="438" yMax="900">
      <component glyphName="T" x="0" y="0" flags="0x0"/>
      <component glyphName="uni030C" x="222" y="177" flags="0x4"/>
    </TTGlyph>
    <TTGlyph name="Thorn" xMin="68" yMin="-2" xMax="453" yMax="702">
      <contour>
        <pt x="68" y="-2" on="0"/>
        <pt x="68" y="23" on="1"/>
        <pt x="68" y="677" on="1"/>
        <pt x="68" y="702" on="0"/>
        <pt x="112" y="702" on="1"/>
        <pt x="133" y="702" on="1"/>
        <pt x="177" y="702" on="0"/>
        <pt x="177" y="677" on="1"/>
        <pt x="177" y="582" on="1"/>
        <pt x="266" y="582" on="1"/>
        <pt x="340" y="582" on="0"/>
        <pt x="453" y="497" on="0"/>
        <pt x="453" y="380" on="1"/>
        <pt x="453" y="296" on="0"/>
        <pt x="388" y="202" on="0"/>
        <pt x="306" y="170" on="0"/>
        <pt x="274" y="170" on="1"/>
        <pt x="177" y="170" on="1"/>
        <pt x="177" y="23" on="1"/>
        <pt x="177" y="-2" on="0"/>
        <pt x="133" y="-2" on="1"/>
        <pt x="112" y="-2" on="1"/>
      </contour>
      <contour>
        <pt x="266" y="261" on="1"/>
        <pt x="296" y="261" on="0"/>
        <pt x="344" y="314" on="0"/>
        <pt x="344" y="380" on="1"/>
        <pt x="344" y="442" on="0"/>
        <pt x="295" y="491" on="0"/>
        <pt x="260" y="491" on="1"/>
        <pt x="177" y="491" on="1"/>
        <pt x="177" y="261" on="1"/>
      </contour>
    </TTGlyph>
    <TTGlyph name="U" xMin="63" yMin="-7" xMax="520" yMax="702">
      <contour>
        <pt x="183" y="-7" on="0"/>
        <pt x="63" y="101" on="0"/>
        <pt x="63" y="198" on="1"/>
        <pt x="63" y="677" on="1"/>
        <pt x="63" y="702" on="0"/>
        <pt x="107" y="702" on="1"/>
        <pt x="128" y="702" on="1"/>
        <pt x="172" y="702" on="0"/>
        <pt x="172" y="677" on="1"/>
        <pt x="172" y="199" on="1"/>
        <pt x="172" y="149" on="0"/>
        <pt x="239" y="85" on="0"/>
        <pt x="292" y="85" on="1"/>
        <pt x="345" y="85" on="0"/>
        <pt x="411" y="149" on="0"/>
        <pt x="411" y="199" on="1"/>
        <pt x="411" y="677" on="1"/>
        <pt x="411" y="702" on="0"/>
        <pt x="455" y="702" on="1"/>
        <pt x="476" y="702" on="1"/>
        <pt x="520" y="702" on="0"/>
        <pt x="520" y="677" on="1"/>
        <pt x="520" y="198" on="1"/>
        <pt x="520" y="101" on="0"/>
        <pt x="400" y="-7" on="0"/>
        <pt x="292" y="-7" on="1"/>
      </contour>
    </TTGlyph>
    <TTGlyph name="Uacute" xMin="63" yMin="-7" xMax="520" yMax="910">
      <component glyphName="U" x="0" y="0" flags="0x0"/>
      <component glyphName="acutecomb" x="387" y="177" flags="0x4"/>
    </TTGlyph>
    <TTGlyph name="Ubreve" xMin="63" yMin="-7" xMax="520" yMax="892">
      <component glyphName="U" x="0" y="0" flags="0x0"/>
      <component glyphName="uni0306" x="291" y="177" flags="0x4"/>
    </TTGlyph>
    <TTGlyph name="Ucircumflex" xMin="63" yMin="-7" xMax="520" yMax="895">
      <component glyphName="U" x="0" y="0" flags="0x0"/>
      <component glyphName="uni0302" x="290" y="177" flags="0x4"/>
    </TTGlyph>
    <TTGlyph name="Udieresis" xMin="63" yMin="-7" xMax="520" yMax="879">
      <component glyphName="U" x="0" y="0" flags="0x0"/>
      <component glyphName="uni0308" x="294" y="177" flags="0x4"/>
    </TTGlyph>
    <TTGlyph name="Ugrave" xMin="63" yMin="-7" xMax="520" yMax="910">
      <component glyphName="U" x="0" y="0" flags="0x0"/>
      <component glyphName="gravecomb" x="291" y="177" flags="0x4"/>
    </TTGlyph>
    <TTGlyph name="Uhorn" xMin="56" yMin="-7" xMax="592" yMax="834">
      <contour>
        <pt x="592" y="720" on="0"/>
        <pt x="553" y="674" on="0"/>
        <pt x="513" y="669" on="1"/>
        <pt x="513" y="198" on="1"/>
        <pt x="513" y="101" on="0"/>
        <pt x="393" y="-7" on="0"/>
        <pt x="285" y="-7" on="1"/>
        <pt x="176" y="-7" on="0"/>
        <pt x="56" y="101" on="0"/>
        <pt x="56" y="198" on="1"/>
        <pt x="56" y="677" on="1"/>
        <pt x="56" y="702" on="0"/>
        <pt x="100" y="702" on="1"/>
        <pt x="121" y="702" on="1"/>
        <pt x="165" y="702" on="0"/>
        <pt x="165" y="677" on="1"/>
        <pt x="165" y="199" on="1"/>
        <pt x="165" y="149" on="0"/>
        <pt x="232" y="85" on="0"/>
        <pt x="285" y="85" on="1"/>
        <pt x="338" y="85" on="0"/>
        <pt x="404" y="149" on="0"/>
        <pt x="404" y="199" on="1"/>
        <pt x="404" y="677" on="1"/>
        <pt x="404" y="702" on="0"/>
        <pt x="448" y="702" on="1"/>
        <pt x="483" y="702" on="1"/>
        <pt x="505" y="702" on="0"/>
        <pt x="526" y="721" on="0"/>
        <pt x="526" y="735" on="1"/>
        <pt x="526" y="747" on="0"/>
        <pt x="516" y="767" on="0"/>
        <pt x="500" y="791" on="0"/>
        <pt x="499" y="795" on="1"/>
        <pt x="499" y="806" on="0"/>
        <pt x="509" y="812" on="1"/>
        <pt x="535" y="830" on="1"/>
        <pt x="540" y="834" on="0"/>
        <pt x="548" y="834" on="1"/>
        <pt x="565" y="834" on="0"/>
        <pt x="592" y="782" on="0"/>
        <pt x="592" y="757" on="1"/>
      </contour>
    </TTGlyph>
    <TTGlyph name="Uhungarumlaut" xMin="63" yMin="-7" xMax="520" yMax="910">
      <component glyphName="U" x="0" y="0" flags="0x0"/>
      <component glyphName="uni030B" x="313" y="177" flags="0x4"/>
    </TTGlyph>
    <TTGlyph name="Umacron" xMin="63" yMin="-7" xMax="520" yMax="862">
      <component glyphName="U" x="0" y="0" flags="0x0"/>
      <component glyphName="uni0304" x="296" y="177" flags="0x4"/>
    </TTGlyph>
    <TTGlyph name="Uogonek" xMin="63" yMin="-164" xMax="520" yMax="702">
      <contour>
        <pt x="520" y="136" on="0"/>
        <pt x="470" y="46" on="0"/>
        <pt x="423" y="21" on="1"/>
        <pt x="401" y="-20" on="0"/>
        <pt x="401" y="-56" on="1"/>
        <pt x="401" y="-81" on="0"/>
        <pt x="429" y="-99" on="0"/>
        <pt x="450" y="-99" on="1"/>
        <pt x="458" y="-99" on="0"/>
        <pt x="483" y="-93" on="0"/>
        <pt x="486" y="-93" on="1"/>
        <pt x="509" y="-93" on="0"/>
        <pt x="509" y="-119" on="1"/>
        <pt x="509" y="-138" on="0"/>
        <pt x="495" y="-147" on="1"/>
        <pt x="468" y="-164" on="0"/>
        <pt x="431" y="-164" on="1"/>
        <pt x="376" y="-164" on="0"/>
        <pt x="338" y="-106" on="0"/>
        <pt x="338" y="-74" on="1"/>
        <pt x="338" y="-39" on="0"/>
        <pt x="354" y="-2" on="1"/>
        <pt x="322" y="-7" on="0"/>
        <pt x="292" y="-7" on="1"/>
        <pt x="183" y="-7" on="0"/>
        <pt x="63" y="101" on="0"/>
        <pt x="63" y="198" on="1"/>
        <pt x="63" y="677" on="1"/>
        <pt x="63" y="702" on="0"/>
        <pt x="107" y="702" on="1"/>
        <pt x="128" y="702" on="1"/>
        <pt x="172" y="702" on="0"/>
        <pt x="172" y="677" on="1"/>
        <pt x="172" y="199" on="1"/>
        <pt x="172" y="149" on="0"/>
        <pt x="239" y="85" on="0"/>
        <pt x="292" y="85" on="1"/>
        <pt x="345" y="85" on="0"/>
        <pt x="411" y="149" on="0"/>
        <pt x="411" y="199" on="1"/>
        <pt x="411" y="677" on="1"/>
        <pt x="411" y="702" on="0"/>
        <pt x="455" y="702" on="1"/>
        <pt x="476" y="702" on="1"/>
        <pt x="520" y="702" on="0"/>
        <pt x="520" y="677" on="1"/>
        <pt x="520" y="198" on="1"/>
      </contour>
    </TTGlyph>
    <TTGlyph name="Uring" xMin="63" yMin="-7" xMax="520" yMax="915">
      <component glyphName="U" x="0" y="0" flags="0x0"/>
      <component glyphName="uni030A" x="290" y="177" flags="0x4"/>
    </TTGlyph>
    <TTGlyph name="Utilde" xMin="63" yMin="-7" xMax="520" yMax="870">
      <component glyphName="U" x="0" y="0" flags="0x0"/>
      <component glyphName="tildecomb" x="290" y="177" flags="0x4"/>
    </TTGlyph>
    <TTGlyph name="V" xMin="15" yMin="-2" xMax="492" yMax="702">
      <contour>
        <pt x="190" y="-2" on="0"/>
        <pt x="186" y="15" on="1"/>
        <pt x="18" y="669" on="1"/>
        <pt x="17" y="672" on="0"/>
        <pt x="15" y="680" on="0"/>
        <pt x="15" y="684" on="1"/>
        <pt x="15" y="702" on="0"/>
        <pt x="60" y="702" on="1"/>
        <pt x="81" y="702" on="1"/>
        <pt x="118" y="702" on="0"/>
        <pt x="123" y="682" on="1"/>
        <pt x="243" y="173" on="1"/>
        <pt x="251" y="116" on="1"/>
        <pt x="254" y="116" on="1"/>
        <pt x="263" y="174" on="1"/>
        <pt x="385" y="682" on="1"/>
        <pt x="390" y="702" on="0"/>
        <pt x="428" y="702" on="1"/>
        <pt x="447" y="702" on="1"/>
        <pt x="492" y="702" on="0"/>
        <pt x="492" y="684" on="1"/>
        <pt x="492" y="679" on="0"/>
        <pt x="489" y="668" on="1"/>
        <pt x="321" y="15" on="1"/>
        <pt x="317" y="-2" on="0"/>
        <pt x="279" y="-2" on="1"/>
        <pt x="227" y="-2" on="1"/>
      </contour>
    </TTGlyph>
    <TTGlyph name="W" xMin="15" yMin="-2" xMax="738" yMax="702">
      <contour>
        <pt x="157" y="-2" on="0"/>
        <pt x="153" y="15" on="1"/>
        <pt x="17" y="668" on="1"/>
        <pt x="15" y="681" on="1"/>
        <pt x="15" y="702" on="0"/>
        <pt x="61" y="702" on="1"/>
        <pt x="78" y="702" on="1"/>
        <pt x="121" y="702" on="0"/>
        <pt x="125" y="682" on="1"/>
        <pt x="204" y="232" on="1"/>
        <pt x="208" y="211" on="0"/>
        <pt x="215" y="151" on="1"/>
        <pt x="220" y="109" on="1"/>
        <pt x="241" y="234" on="1"/>
        <pt x="325" y="684" on="1"/>
        <pt x="327" y="694" on="0"/>
        <pt x="346" y="702" on="0"/>
        <pt x="364" y="702" on="1"/>
        <pt x="393" y="702" on="1"/>
        <pt x="411" y="702" on="0"/>
        <pt x="430" y="694" on="0"/>
        <pt x="432" y="684" on="1"/>
        <pt x="516" y="232" on="1"/>
        <pt x="524" y="192" on="0"/>
        <pt x="534" y="108" on="1"/>
        <pt x="535" y="114" on="0"/>
        <pt x="546" y="182" on="1"/>
        <pt x="554" y="232" on="1"/>
        <pt x="631" y="682" on="1"/>
        <pt x="634" y="702" on="0"/>
        <pt x="678" y="702" on="1"/>
        <pt x="692" y="702" on="1"/>
        <pt x="738" y="702" on="0"/>
        <pt x="738" y="681" on="1"/>
        <pt x="736" y="668" on="1"/>
        <pt x="598" y="15" on="1"/>
        <pt x="595" y="-2" on="0"/>
        <pt x="559" y="-2" on="1"/>
        <pt x="511" y="-2" on="1"/>
        <pt x="476" y="-2" on="0"/>
        <pt x="473" y="15" on="1"/>
        <pt x="391" y="417" on="1"/>
        <pt x="376" y="537" on="1"/>
        <pt x="361" y="417" on="1"/>
        <pt x="279" y="15" on="1"/>
        <pt x="275" y="-2" on="0"/>
        <pt x="240" y="-2" on="1"/>
        <pt x="193" y="-2" on="1"/>
      </contour>
    </TTGlyph>
    <TTGlyph name="Wacute" xMin="15" yMin="-2" xMax="738" yMax="910">
      <component glyphName="W" x="0" y="0" flags="0x0"/>
      <component glyphName="acutecomb" x="471" y="177" flags="0x4"/>
    </TTGlyph>
    <TTGlyph name="Wcircumflex" xMin="15" yMin="-2" xMax="738" yMax="895">
      <component glyphName="W" x="0" y="0" flags="0x0"/>
      <component glyphName="uni0302" x="374" y="177" flags="0x4"/>
    </TTGlyph>
    <TTGlyph name="Wdieresis" xMin="15" yMin="-2" xMax="738" yMax="879">
      <component glyphName="W" x="0" y="0" flags="0x0"/>
      <component glyphName="uni0308" x="378" y="177" flags="0x4"/>
    </TTGlyph>
    <TTGlyph name="Wgrave" xMin="15" yMin="-2" xMax="738" yMax="910">
      <component glyphName="W" x="0" y="0" flags="0x0"/>
      <component glyphName="gravecomb" x="375" y="177" flags="0x4"/>
    </TTGlyph>
    <TTGlyph name="X" xMin="17" yMin="-2" xMax="489" yMax="702">
      <contour>
        <pt x="17" y="-2" on="0"/>
        <pt x="17" y="16" on="1"/>
        <pt x="17" y="20" on="0"/>
        <pt x="25" y="36" on="1"/>
        <pt x="186" y="365" on="1"/>
        <pt x="44" y="664" on="1"/>
        <pt x="36" y="677" on="0"/>
        <pt x="36" y="684" on="1"/>
        <pt x="36" y="702" on="0"/>
        <pt x="83" y="702" on="1"/>
        <pt x="111" y="702" on="1"/>
        <pt x="129" y="702" on="0"/>
        <pt x="150" y="696" on="0"/>
        <pt x="154" y="686" on="1"/>
        <pt x="256" y="439" on="1"/>
        <pt x="363" y="686" on="1"/>
        <pt x="367" y="696" on="0"/>
        <pt x="389" y="702" on="0"/>
        <pt x="407" y="702" on="1"/>
        <pt x="430" y="702" on="1"/>
        <pt x="477" y="702" on="0"/>
        <pt x="477" y="684" on="1"/>
        <pt x="477" y="680" on="0"/>
        <pt x="470" y="664" on="1"/>
        <pt x="323" y="368" on="1"/>
        <pt x="482" y="36" on="1"/>
        <pt x="489" y="20" on="0"/>
        <pt x="489" y="16" on="1"/>
        <pt x="489" y="-2" on="0"/>
        <pt x="442" y="-2" on="1"/>
        <pt x="415" y="-2" on="1"/>
        <pt x="378" y="-2" on="0"/>
        <pt x="372" y="14" on="1"/>
        <pt x="254" y="291" on="1"/>
        <pt x="131" y="14" on="1"/>
        <pt x="127" y="4" on="0"/>
        <pt x="107" y="-2" on="0"/>
        <pt x="88" y="-2" on="1"/>
        <pt x="64" y="-2" on="1"/>
      </contour>
    </TTGlyph>
    <TTGlyph name="Y" xMin="15" yMin="-2" xMax="469" yMax="702">
      <contour>
        <pt x="187" y="-2" on="0"/>
        <pt x="187" y="23" on="1"/>
        <pt x="187" y="313" on="1"/>
        <pt x="22" y="664" on="1"/>
        <pt x="15" y="678" on="0"/>
        <pt x="15" y="684" on="1"/>
        <pt x="15" y="702" on="0"/>
        <pt x="62" y="702" on="1"/>
        <pt x="89" y="702" on="1"/>
        <pt x="107" y="702" on="0"/>
        <pt x="129" y="695" on="0"/>
        <pt x="133" y="686" on="1"/>
        <pt x="245" y="414" on="1"/>
        <pt x="358" y="687" on="1"/>
        <pt x="361" y="696" on="0"/>
        <pt x="383" y="702" on="0"/>
        <pt x="402" y="702" on="1"/>
        <pt x="424" y="702" on="1"/>
        <pt x="469" y="701" on="0"/>
        <pt x="469" y="684" on="1"/>
        <pt x="469" y="676" on="0"/>
        <pt x="463" y="664" on="1"/>
        <pt x="297" y="310" on="1"/>
        <pt x="297" y="23" on="1"/>
        <pt x="297" y="-2" on="0"/>
        <pt x="253" y="-2" on="1"/>
        <pt x="232" y="-2" on="1"/>
      </contour>
    </TTGlyph>
    <TTGlyph name="Y.loclGUA" xMin="57" yMin="-8" xMax="441" yMax="702">
      <contour>
        <pt x="441" y="702" on="0"/>
        <pt x="441" y="677" on="1"/>
        <pt x="441" y="274" on="1"/>
        <pt x="441" y="170" on="0"/>
        <pt x="400" y="47" on="0"/>
        <pt x="314" y="-8" on="0"/>
        <pt x="243" y="-8" on="1"/>
        <pt x="195" y="-8" on="0"/>
        <pt x="113" y="8" on="0"/>
        <pt x="64" y="34" on="0"/>
        <pt x="62" y="48" on="1"/>
        <pt x="60" y="58" on="0"/>
        <pt x="60" y="79" on="1"/>
        <pt x="60" y="96" on="0"/>
        <pt x="67" y="112" on="0"/>
        <pt x="72" y="112" on="1"/>
        <pt x="75" y="112" on="0"/>
        <pt x="123" y="92" on="0"/>
        <pt x="186" y="77" on="0"/>
        <pt x="224" y="77" on="1"/>
        <pt x="287" y="77" on="0"/>
        <pt x="339" y="160" on="0"/>
        <pt x="338" y="261" on="1"/>
        <pt x="338" y="272" on="1"/>
        <pt x="313" y="242" on="0"/>
        <pt x="245" y="210" on="0"/>
        <pt x="207" y="210" on="1"/>
        <pt x="135" y="210" on="0"/>
        <pt x="57" y="290" on="0"/>
        <pt x="57" y="363" on="1"/>
        <pt x="57" y="677" on="1"/>
        <pt x="57" y="702" on="0"/>
        <pt x="103" y="702" on="1"/>
        <pt x="114" y="702" on="1"/>
        <pt x="159" y="702" on="0"/>
        <pt x="159" y="677" on="1"/>
        <pt x="159" y="375" on="1"/>
        <pt x="159" y="338" on="0"/>
        <pt x="202" y="297" on="0"/>
        <pt x="240" y="297" on="1"/>
        <pt x="269" y="297" on="0"/>
        <pt x="319" y="334" on="0"/>
        <pt x="338" y="364" on="1"/>
        <pt x="338" y="677" on="1"/>
        <pt x="338" y="702" on="0"/>
        <pt x="384" y="702" on="1"/>
        <pt x="395" y="702" on="1"/>
      </contour>
    </TTGlyph>
    <TTGlyph name="Yacute" xMin="15" yMin="-2" xMax="469" yMax="910">
      <component glyphName="Y" x="0" y="0" flags="0x0"/>
      <component glyphName="acutecomb" x="337" y="177" flags="0x4"/>
    </TTGlyph>
    <TTGlyph name="Yacute.loclGUA" xMin="57" yMin="-8" xMax="441" yMax="910">
      <component glyphName="Y.loclGUA" x="0" y="0" flags="0x0"/>
      <component glyphName="acutecomb" x="343" y="177" flags="0x4"/>
    </TTGlyph>
    <TTGlyph name="Ycircumflex" xMin="15" yMin="-2" xMax="469" yMax="895">
      <component glyphName="Y" x="0" y="0" flags="0x0"/>
      <component glyphName="uni0302" x="240" y="177" flags="0x4"/>
    </TTGlyph>
    <TTGlyph name="Ycircumflex.loclGUA" xMin="57" yMin="-8" xMax="441" yMax="895">
      <component glyphName="Y.loclGUA" x="0" y="0" flags="0x0"/>
      <component glyphName="uni0302" x="246" y="177" flags="0x4"/>
    </TTGlyph>
    <TTGlyph name="Ydieresis" xMin="15" yMin="-2" xMax="469" yMax="879">
      <component glyphName="Y" x="0" y="0" flags="0x0"/>
      <component glyphName="uni0308" x="244" y="177" flags="0x4"/>
    </TTGlyph>
    <TTGlyph name="Ydieresis.loclGUA" xMin="57" yMin="-8" xMax="441" yMax="879">
      <component glyphName="Y.loclGUA" x="0" y="0" flags="0x0"/>
      <component glyphName="uni0308" x="250" y="177" flags="0x4"/>
    </TTGlyph>
    <TTGlyph name="Ygrave" xMin="15" yMin="-2" xMax="469" yMax="910">
      <component glyphName="Y" x="0" y="0" flags="0x0"/>
      <component glyphName="gravecomb" x="241" y="177" flags="0x4"/>
    </TTGlyph>
    <TTGlyph name="Ygrave.loclGUA" xMin="57" yMin="-8" xMax="441" yMax="910">
      <component glyphName="Y.loclGUA" x="0" y="0" flags="0x0"/>
      <component glyphName="gravecomb" x="247" y="177" flags="0x4"/>
    </TTGlyph>
    <TTGlyph name="Z" xMin="31" yMin="0" xMax="469" yMax="700">
      <contour>
        <pt x="50" y="0" on="0"/>
        <pt x="31" y="45" on="0"/>
        <pt x="31" y="63" on="1"/>
        <pt x="31" y="69" on="0"/>
        <pt x="33" y="75" on="1"/>
        <pt x="334" y="608" on="1"/>
        <pt x="77" y="608" on="1"/>
        <pt x="66" y="608" on="0"/>
        <pt x="56" y="627" on="0"/>
        <pt x="56" y="647" on="1"/>
        <pt x="56" y="661" on="1"/>
        <pt x="56" y="682" on="0"/>
        <pt x="66" y="700" on="0"/>
        <pt x="77" y="700" on="1"/>
        <pt x="442" y="700" on="1"/>
        <pt x="451" y="700" on="0"/>
        <pt x="469" y="654" on="0"/>
        <pt x="469" y="636" on="1"/>
        <pt x="469" y="628" on="0"/>
        <pt x="468" y="625" on="1"/>
        <pt x="168" y="92" on="1"/>
        <pt x="447" y="92" on="1"/>
        <pt x="469" y="92" on="0"/>
        <pt x="469" y="53" on="1"/>
        <pt x="469" y="39" on="1"/>
        <pt x="469" y="18" on="0"/>
        <pt x="458" y="0" on="0"/>
        <pt x="447" y="0" on="1"/>
        <pt x="59" y="0" on="1"/>
      </contour>
    </TTGlyph>
    <TTGlyph name="Zacute" xMin="31" yMin="0" xMax="469" yMax="910">
      <component glyphName="Z" x="0" y="0" flags="0x0"/>
      <component glyphName="acutecomb" x="352" y="177" flags="0x4"/>
    </TTGlyph>
    <TTGlyph name="Zacute.loclPLK" xMin="31" yMin="0" xMax="469" yMax="910">
      <component glyphName="Z" x="0" y="0" flags="0x0"/>
      <component glyphName="acute.loclPLK" x="167" y="177" flags="0x4"/>
    </TTGlyph>
    <TTGlyph name="Zcaron" xMin="31" yMin="0" xMax="469" yMax="900">
      <component glyphName="Z" x="0" y="0" flags="0x0"/>
      <component glyphName="uni030C" x="252" y="177" flags="0x4"/>
    </TTGlyph>
    <TTGlyph name="Zdotaccent" xMin="31" yMin="0" xMax="469" yMax="879">
      <component glyphName="Z" x="0" y="0" flags="0x0"/>
      <component glyphName="uni0307" x="257" y="177" flags="0x4"/>
    </TTGlyph>
    <TTGlyph name="a" xMin="47" yMin="-7" xMax="420" yMax="530">
      <contour>
        <pt x="124" y="-7" on="0"/>
        <pt x="47" y="75" on="0"/>
        <pt x="47" y="149" on="1"/>
        <pt x="47" y="246" on="0"/>
        <pt x="187" y="332" on="0"/>
        <pt x="306" y="333" on="1"/>
        <pt x="306" y="371" on="1"/>
        <pt x="306" y="404" on="0"/>
        <pt x="268" y="445" on="0"/>
        <pt x="226" y="445" on="1"/>
        <pt x="195" y="445" on="0"/>
        <pt x="148" y="430" on="0"/>
        <pt x="110" y="411" on="0"/>
        <pt x="106" y="411" on="1"/>
        <pt x="95" y="411" on="0"/>
        <pt x="66" y="457" on="0"/>
        <pt x="66" y="469" on="1"/>
        <pt x="66" y="483" on="0"/>
        <pt x="113" y="511" on="0"/>
        <pt x="189" y="530" on="0"/>
        <pt x="230" y="530" on="1"/>
        <pt x="317" y="530" on="0"/>
        <pt x="408" y="446" on="0"/>
        <pt x="408" y="372" on="1"/>
        <pt x="408" y="156" on="1"/>
        <pt x="408" y="89" on="0"/>
        <pt x="420" y="29" on="0"/>
        <pt x="420" y="25" on="1"/>
        <pt x="420" y="11" on="0"/>
        <pt x="371" y="-1" on="0"/>
        <pt x="350" y="-1" on="1"/>
        <pt x="335" y="-1" on="0"/>
        <pt x="321" y="26" on="0"/>
        <pt x="314" y="56" on="1"/>
        <pt x="265" y="-7" on="0"/>
        <pt x="191" y="-7" on="1"/>
      </contour>
      <contour>
        <pt x="272" y="81" on="0"/>
        <pt x="306" y="131" on="1"/>
        <pt x="306" y="256" on="1"/>
        <pt x="233" y="255" on="0"/>
        <pt x="148" y="212" on="0"/>
        <pt x="148" y="153" on="1"/>
        <pt x="148" y="81" on="0"/>
        <pt x="216" y="81" on="1"/>
      </contour>
    </TTGlyph>
    <TTGlyph name="aacute" xMin="47" yMin="-7" xMax="420" yMax="733">
      <component glyphName="a" x="0" y="0" flags="0x0"/>
      <component glyphName="acutecomb" x="336" y="0" flags="0x0"/>
    </TTGlyph>
    <TTGlyph name="abreve" xMin="47" yMin="-7" xMax="420" yMax="715">
      <component glyphName="a" x="0" y="0" flags="0x0"/>
      <component glyphName="uni0306" x="240" y="0" flags="0x0"/>
    </TTGlyph>
    <TTGlyph name="acircumflex" xMin="47" yMin="-7" xMax="420" yMax="718">
      <component glyphName="a" x="0" y="0" flags="0x0"/>
      <component glyphName="uni0302" x="239" y="0" flags="0x0"/>
    </TTGlyph>
    <TTGlyph name="acute" xMin="47" yMin="582" xMax="206" yMax="733">
      <contour>
        <pt x="58" y="582" on="0"/>
        <pt x="47" y="587" on="0"/>
        <pt x="47" y="594" on="1"/>
        <pt x="47" y="600" on="0"/>
        <pt x="63" y="635" on="0"/>
        <pt x="78" y="665" on="1"/>
        <pt x="98" y="706" on="1"/>
        <pt x="112" y="733" on="0"/>
        <pt x="161" y="733" on="1"/>
        <pt x="185" y="733" on="0"/>
        <pt x="206" y="727" on="0"/>
        <pt x="206" y="719" on="1"/>
        <pt x="206" y="713" on="0"/>
        <pt x="189" y="687" on="0"/>
        <pt x="169" y="661" on="1"/>
        <pt x="162" y="652" on="0"/>
        <pt x="141" y="624" on="0"/>
        <pt x="125" y="602" on="1"/>
        <pt x="118" y="592" on="0"/>
        <pt x="93" y="582" on="0"/>
        <pt x="71" y="582" on="1"/>
      </contour>
    </TTGlyph>
    <TTGlyph name="acute.loclPLK" xMin="52" yMin="582" xMax="187" yMax="733">
      <contour>
        <pt x="64" y="582" on="0"/>
        <pt x="52" y="587" on="0"/>
        <pt x="52" y="594" on="1"/>
        <pt x="52" y="603" on="0"/>
        <pt x="79" y="706" on="1"/>
        <pt x="86" y="733" on="0"/>
        <pt x="143" y="733" on="1"/>
        <pt x="166" y="733" on="0"/>
        <pt x="187" y="726" on="0"/>
        <pt x="187" y="719" on="1"/>
        <pt x="187" y="713" on="0"/>
        <pt x="157" y="653" on="0"/>
        <pt x="130" y="602" on="1"/>
        <pt x="120" y="582" on="0"/>
        <pt x="80" y="582" on="1"/>
      </contour>
    </TTGlyph>
    <TTGlyph name="acutecomb" xMin="-129" yMin="582" xMax="30" yMax="733">
      <contour>
        <pt x="-119" y="582" on="0"/>
        <pt x="-129" y="587" on="0"/>
        <pt x="-129" y="594" on="1"/>
        <pt x="-129" y="600" on="0"/>
        <pt x="-113" y="635" on="0"/>
        <pt x="-98" y="665" on="1"/>
        <pt x="-78" y="706" on="1"/>
        <pt x="-65" y="733" on="0"/>
        <pt x="-15" y="733" on="1"/>
        <pt x="9" y="733" on="0"/>
        <pt x="30" y="727" on="0"/>
        <pt x="30" y="719" on="1"/>
        <pt x="30" y="713" on="0"/>
        <pt x="13" y="687" on="0"/>
        <pt x="-7" y="661" on="1"/>
        <pt x="-14" y="652" on="0"/>
        <pt x="-35" y="624" on="0"/>
        <pt x="-51" y="602" on="1"/>
        <pt x="-58" y="592" on="0"/>
        <pt x="-83" y="582" on="0"/>
        <pt x="-105" y="582" on="1"/>
      </contour>
    </TTGlyph>
    <TTGlyph name="adieresis" xMin="47" yMin="-7" xMax="420" yMax="702">
      <component glyphName="a" x="0" y="0" flags="0x0"/>
      <component glyphName="uni0308" x="243" y="0" flags="0x0"/>
    </TTGlyph>
    <TTGlyph name="ae" xMin="27" yMin="-7" xMax="638" yMax="530">
      <contour>
        <pt x="108" y="-7" on="0"/>
        <pt x="27" y="76" on="0"/>
        <pt x="27" y="150" on="1"/>
        <pt x="27" y="239" on="0"/>
        <pt x="153" y="326" on="0"/>
        <pt x="264" y="328" on="1"/>
        <pt x="268" y="367" on="0"/>
        <pt x="280" y="397" on="1"/>
        <pt x="265" y="445" on="0"/>
        <pt x="206" y="445" on="1"/>
        <pt x="176" y="445" on="0"/>
        <pt x="130" y="430" on="0"/>
        <pt x="93" y="412" on="0"/>
        <pt x="89" y="412" on="1"/>
        <pt x="77" y="412" on="0"/>
        <pt x="49" y="457" on="0"/>
        <pt x="49" y="469" on="1"/>
        <pt x="49" y="483" on="0"/>
        <pt x="95" y="512" on="0"/>
        <pt x="170" y="530" on="0"/>
        <pt x="210" y="530" on="1"/>
        <pt x="250" y="530" on="0"/>
        <pt x="316" y="509" on="0"/>
        <pt x="337" y="489" on="1"/>
        <pt x="386" y="530" on="0"/>
        <pt x="460" y="530" on="1"/>
        <pt x="638" y="530" on="0"/>
        <pt x="638" y="272" on="1"/>
        <pt x="638" y="261" on="0"/>
        <pt x="609" y="226" on="0"/>
        <pt x="600" y="226" on="1"/>
        <pt x="369" y="226" on="1"/>
        <pt x="372" y="148" on="0"/>
        <pt x="423" y="78" on="0"/>
        <pt x="475" y="78" on="1"/>
        <pt x="507" y="78" on="0"/>
        <pt x="551" y="96" on="0"/>
        <pt x="584" y="117" on="0"/>
        <pt x="587" y="117" on="1"/>
        <pt x="598" y="117" on="0"/>
        <pt x="626" y="71" on="0"/>
        <pt x="626" y="59" on="1"/>
        <pt x="626" y="44" on="0"/>
        <pt x="582" y="13" on="0"/>
        <pt x="511" y="-7" on="0"/>
        <pt x="473" y="-7" on="1"/>
        <pt x="371" y="-7" on="0"/>
        <pt x="318" y="52" on="1"/>
        <pt x="295" y="25" on="0"/>
        <pt x="220" y="-7" on="0"/>
        <pt x="177" y="-7" on="1"/>
      </contour>
      <contour>
        <pt x="534" y="305" on="1"/>
        <pt x="534" y="445" on="0"/>
        <pt x="458" y="445" on="1"/>
        <pt x="416" y="445" on="0"/>
        <pt x="372" y="378" on="0"/>
        <pt x="368" y="305" on="1"/>
      </contour>
      <contour>
        <pt x="246" y="83" on="0"/>
        <pt x="279" y="124" on="1"/>
        <pt x="262" y="173" on="0"/>
        <pt x="260" y="248" on="1"/>
        <pt x="131" y="244" on="0"/>
        <pt x="131" y="154" on="1"/>
        <pt x="131" y="120" on="0"/>
        <pt x="162" y="83" on="0"/>
        <pt x="192" y="83" on="1"/>
      </contour>
    </TTGlyph>
    <TTGlyph name="aeacute" xMin="27" yMin="-7" xMax="638" yMax="733">
      <component glyphName="ae" x="0" y="0" flags="0x0"/>
      <component glyphName="acutecomb" x="435" y="0" flags="0x0"/>
    </TTGlyph>
    <TTGlyph name="agrave" xMin="47" yMin="-7" xMax="420" yMax="733">
      <component glyphName="a" x="0" y="0" flags="0x0"/>
      <component glyphName="gravecomb" x="240" y="0" flags="0x0"/>
    </TTGlyph>
    <TTGlyph name="amacron" xMin="47" yMin="-7" xMax="420" yMax="685">
      <component glyphName="a" x="0" y="0" flags="0x0"/>
      <component glyphName="uni0304" x="245" y="0" flags="0x0"/>
    </TTGlyph>
    <TTGlyph name="ampersand" xMin="24" yMin="-7" xMax="503" yMax="707">
      <contour>
        <pt x="490" y="83" on="0"/>
        <pt x="503" y="40" on="0"/>
        <pt x="503" y="29" on="1"/>
        <pt x="503" y="-7" on="0"/>
        <pt x="431" y="-7" on="1"/>
        <pt x="372" y="-7" on="0"/>
        <pt x="345" y="36" on="1"/>
        <pt x="309" y="15" on="0"/>
        <pt x="247" y="-7" on="0"/>
        <pt x="205" y="-7" on="1"/>
        <pt x="125" y="-7" on="0"/>
        <pt x="24" y="98" on="0"/>
        <pt x="24" y="203" on="1"/>
        <pt x="24" y="276" on="0"/>
        <pt x="74" y="371" on="0"/>
        <pt x="119" y="386" on="1"/>
        <pt x="119" y="390" on="1"/>
        <pt x="84" y="407" on="0"/>
        <pt x="42" y="484" on="0"/>
        <pt x="42" y="537" on="1"/>
        <pt x="42" y="619" on="0"/>
        <pt x="131" y="707" on="0"/>
        <pt x="206" y="707" on="1"/>
        <pt x="237" y="707" on="0"/>
        <pt x="288" y="690" on="0"/>
        <pt x="288" y="672" on="1"/>
        <pt x="288" y="657" on="0"/>
        <pt x="273" y="613" on="0"/>
        <pt x="264" y="613" on="1"/>
        <pt x="260" y="613" on="0"/>
        <pt x="235" y="622" on="0"/>
        <pt x="221" y="622" on="1"/>
        <pt x="182" y="622" on="0"/>
        <pt x="148" y="561" on="0"/>
        <pt x="148" y="523" on="1"/>
        <pt x="148" y="481" on="0"/>
        <pt x="196" y="413" on="0"/>
        <pt x="237" y="413" on="1"/>
        <pt x="317" y="413" on="1"/>
        <pt x="329" y="515" on="1"/>
        <pt x="331" y="540" on="0"/>
        <pt x="367" y="540" on="1"/>
        <pt x="387" y="540" on="1"/>
        <pt x="423" y="540" on="0"/>
        <pt x="423" y="515" on="1"/>
        <pt x="423" y="413" on="1"/>
        <pt x="470" y="413" on="1"/>
        <pt x="492" y="413" on="0"/>
        <pt x="492" y="377" on="1"/>
        <pt x="492" y="364" on="1"/>
        <pt x="492" y="328" on="0"/>
        <pt x="470" y="328" on="1"/>
        <pt x="423" y="328" on="1"/>
        <pt x="423" y="143" on="1"/>
        <pt x="423" y="107" on="0"/>
        <pt x="439" y="78" on="0"/>
        <pt x="455" y="78" on="1"/>
        <pt x="464" y="78" on="0"/>
        <pt x="477" y="83" on="0"/>
        <pt x="480" y="83" on="1"/>
      </contour>
      <contour>
        <pt x="130" y="138" on="0"/>
        <pt x="180" y="78" on="0"/>
        <pt x="219" y="78" on="1"/>
        <pt x="242" y="78" on="0"/>
        <pt x="287" y="94" on="0"/>
        <pt x="319" y="110" on="1"/>
        <pt x="317" y="124" on="0"/>
        <pt x="317" y="131" on="1"/>
        <pt x="317" y="328" on="1"/>
        <pt x="232" y="328" on="1"/>
        <pt x="179" y="328" on="0"/>
        <pt x="130" y="272" on="0"/>
        <pt x="130" y="205" on="1"/>
      </contour>
    </TTGlyph>
    <TTGlyph name="aogonek" xMin="47" yMin="-164" xMax="504" yMax="530">
      <contour>
        <pt x="504" y="-93" on="0"/>
        <pt x="504" y="-119" on="1"/>
        <pt x="504" y="-138" on="0"/>
        <pt x="490" y="-147" on="1"/>
        <pt x="463" y="-164" on="0"/>
        <pt x="426" y="-164" on="1"/>
        <pt x="371" y="-164" on="0"/>
        <pt x="333" y="-106" on="0"/>
        <pt x="333" y="-74" on="1"/>
        <pt x="333" y="-38" on="0"/>
        <pt x="350" y="-1" on="1"/>
        <pt x="335" y="-1" on="0"/>
        <pt x="321" y="26" on="0"/>
        <pt x="314" y="56" on="1"/>
        <pt x="265" y="-7" on="0"/>
        <pt x="191" y="-7" on="1"/>
        <pt x="124" y="-7" on="0"/>
        <pt x="47" y="75" on="0"/>
        <pt x="47" y="149" on="1"/>
        <pt x="47" y="246" on="0"/>
        <pt x="187" y="332" on="0"/>
        <pt x="306" y="333" on="1"/>
        <pt x="306" y="371" on="1"/>
        <pt x="306" y="404" on="0"/>
        <pt x="268" y="445" on="0"/>
        <pt x="226" y="445" on="1"/>
        <pt x="195" y="445" on="0"/>
        <pt x="148" y="430" on="0"/>
        <pt x="110" y="411" on="0"/>
        <pt x="106" y="411" on="1"/>
        <pt x="95" y="411" on="0"/>
        <pt x="66" y="457" on="0"/>
        <pt x="66" y="469" on="1"/>
        <pt x="66" y="483" on="0"/>
        <pt x="113" y="511" on="0"/>
        <pt x="189" y="530" on="0"/>
        <pt x="230" y="530" on="1"/>
        <pt x="317" y="530" on="0"/>
        <pt x="408" y="446" on="0"/>
        <pt x="408" y="372" on="1"/>
        <pt x="408" y="156" on="1"/>
        <pt x="408" y="89" on="0"/>
        <pt x="420" y="29" on="0"/>
        <pt x="420" y="25" on="1"/>
        <pt x="420" y="18" on="0"/>
        <pt x="415" y="15" on="1"/>
        <pt x="396" y="-24" on="0"/>
        <pt x="396" y="-56" on="1"/>
        <pt x="396" y="-81" on="0"/>
        <pt x="424" y="-99" on="0"/>
        <pt x="445" y="-99" on="1"/>
        <pt x="453" y="-99" on="0"/>
        <pt x="478" y="-93" on="0"/>
        <pt x="481" y="-93" on="1"/>
      </contour>
      <contour>
        <pt x="306" y="256" on="1"/>
        <pt x="233" y="255" on="0"/>
        <pt x="148" y="212" on="0"/>
        <pt x="148" y="153" on="1"/>
        <pt x="148" y="81" on="0"/>
        <pt x="216" y="81" on="1"/>
        <pt x="272" y="81" on="0"/>
        <pt x="306" y="131" on="1"/>
      </contour>
    </TTGlyph>
    <TTGlyph name="approxequal" xMin="54" yMin="149" xMax="391" yMax="315">
      <contour>
        <pt x="385" y="246" on="0"/>
        <pt x="391" y="240" on="0"/>
        <pt x="391" y="235" on="1"/>
        <pt x="391" y="231" on="0"/>
        <pt x="389" y="221" on="1"/>
        <pt x="370" y="151" on="0"/>
        <pt x="300" y="151" on="1"/>
        <pt x="285" y="151" on="0"/>
        <pt x="240" y="163" on="0"/>
        <pt x="218" y="171" on="1"/>
        <pt x="163" y="190" on="0"/>
        <pt x="141" y="190" on="1"/>
        <pt x="118" y="190" on="0"/>
        <pt x="104" y="164" on="1"/>
        <pt x="94" y="149" on="0"/>
        <pt x="85" y="149" on="1"/>
        <pt x="80" y="149" on="0"/>
        <pt x="77" y="151" on="1"/>
        <pt x="69" y="155" on="1"/>
        <pt x="54" y="163" on="0"/>
        <pt x="54" y="170" on="1"/>
        <pt x="54" y="173" on="0"/>
        <pt x="56" y="183" on="1"/>
        <pt x="59" y="197" on="0"/>
        <pt x="69" y="214" on="1"/>
        <pt x="54" y="222" on="0"/>
        <pt x="54" y="229" on="1"/>
        <pt x="54" y="232" on="0"/>
        <pt x="56" y="242" on="1"/>
        <pt x="75" y="313" on="0"/>
        <pt x="145" y="313" on="1"/>
        <pt x="168" y="313" on="0"/>
        <pt x="226" y="293" on="1"/>
        <pt x="281" y="274" on="0"/>
        <pt x="302" y="274" on="1"/>
        <pt x="326" y="274" on="0"/>
        <pt x="341" y="299" on="1"/>
        <pt x="350" y="315" on="0"/>
        <pt x="359" y="315" on="1"/>
        <pt x="363" y="315" on="0"/>
        <pt x="369" y="312" on="1"/>
        <pt x="376" y="309" on="1"/>
        <pt x="385" y="305" on="0"/>
        <pt x="391" y="299" on="0"/>
        <pt x="391" y="294" on="1"/>
        <pt x="391" y="290" on="0"/>
        <pt x="389" y="280" on="1"/>
        <pt x="384" y="260" on="0"/>
        <pt x="376" y="250" on="1"/>
      </contour>
    </TTGlyph>
    <TTGlyph name="aring" xMin="47" yMin="-7" xMax="420" yMax="738">
      <component glyphName="a" x="0" y="0" flags="0x0"/>
      <component glyphName="uni030A" x="239" y="0" flags="0x0"/>
    </TTGlyph>
    <TTGlyph name="aringacute" xMin="47" yMin="-7" xMax="420" yMax="915">
      <component glyphName="a" x="0" y="0" flags="0x0"/>
      <component glyphName="uni030A" x="239" y="0" flags="0x0"/>
      <component glyphName="acutecomb" x="337" y="182" flags="0x4"/>
    </TTGlyph>
    <TTGlyph name="arrowdown" xMin="5" yMin="1" xMax="499" yMax="707">
      <contour>
        <pt x="241" y="1" on="0"/>
        <pt x="234" y="8" on="1"/>
        <pt x="21" y="223" on="1"/>
        <pt x="5" y="239" on="0"/>
        <pt x="5" y="262" on="1"/>
        <pt x="5" y="326" on="1"/>
        <pt x="5" y="345" on="0"/>
        <pt x="12" y="345" on="1"/>
        <pt x="16" y="345" on="0"/>
        <pt x="26" y="335" on="1"/>
        <pt x="212" y="145" on="1"/>
        <pt x="212" y="682" on="1"/>
        <pt x="212" y="707" on="0"/>
        <pt x="246" y="707" on="1"/>
        <pt x="258" y="707" on="1"/>
        <pt x="292" y="707" on="0"/>
        <pt x="292" y="682" on="1"/>
        <pt x="292" y="145" on="1"/>
        <pt x="478" y="334" on="1"/>
        <pt x="488" y="344" on="0"/>
        <pt x="492" y="344" on="1"/>
        <pt x="499" y="344" on="0"/>
        <pt x="499" y="325" on="1"/>
        <pt x="499" y="262" on="1"/>
        <pt x="499" y="238" on="0"/>
        <pt x="483" y="223" on="1"/>
        <pt x="270" y="8" on="1"/>
        <pt x="263" y="1" on="0"/>
        <pt x="252" y="1" on="1"/>
      </contour>
    </TTGlyph>
    <TTGlyph name="arrowleft" xMin="0" yMin="0" xMax="597" yMax="529">
      <contour>
        <pt x="217" y="0" on="0"/>
        <pt x="201" y="8" on="0"/>
        <pt x="193" y="17" on="1"/>
        <pt x="7" y="247" on="1"/>
        <pt x="0" y="254" on="0"/>
        <pt x="0" y="265" on="1"/>
        <pt x="0" y="275" on="0"/>
        <pt x="7" y="283" on="1"/>
        <pt x="192" y="513" on="1"/>
        <pt x="199" y="522" on="0"/>
        <pt x="216" y="529" on="0"/>
        <pt x="229" y="529" on="1"/>
        <pt x="281" y="529" on="1"/>
        <pt x="300" y="529" on="0"/>
        <pt x="300" y="521" on="1"/>
        <pt x="300" y="516" on="0"/>
        <pt x="290" y="503" on="1"/>
        <pt x="130" y="305" on="1"/>
        <pt x="573" y="305" on="1"/>
        <pt x="597" y="305" on="0"/>
        <pt x="597" y="271" on="1"/>
        <pt x="597" y="258" on="1"/>
        <pt x="597" y="224" on="0"/>
        <pt x="573" y="224" on="1"/>
        <pt x="130" y="224" on="1"/>
        <pt x="291" y="26" on="1"/>
        <pt x="301" y="15" on="0"/>
        <pt x="301" y="8" on="1"/>
        <pt x="301" y="0" on="0"/>
        <pt x="282" y="0" on="1"/>
        <pt x="230" y="0" on="1"/>
      </contour>
    </TTGlyph>
    <TTGlyph name="arrowright" xMin="4" yMin="0" xMax="600" yMax="529">
      <contour>
        <pt x="299" y="0" on="0"/>
        <pt x="299" y="8" on="1"/>
        <pt x="299" y="13" on="0"/>
        <pt x="309" y="26" on="1"/>
        <pt x="470" y="224" on="1"/>
        <pt x="28" y="224" on="1"/>
        <pt x="4" y="224" on="0"/>
        <pt x="4" y="258" on="1"/>
        <pt x="4" y="271" on="1"/>
        <pt x="4" y="305" on="0"/>
        <pt x="28" y="305" on="1"/>
        <pt x="470" y="305" on="1"/>
        <pt x="310" y="503" on="1"/>
        <pt x="300" y="516" on="0"/>
        <pt x="300" y="521" on="1"/>
        <pt x="300" y="529" on="0"/>
        <pt x="319" y="529" on="1"/>
        <pt x="371" y="529" on="1"/>
        <pt x="395" y="529" on="0"/>
        <pt x="408" y="513" on="1"/>
        <pt x="593" y="283" on="1"/>
        <pt x="600" y="275" on="0"/>
        <pt x="600" y="263" on="1"/>
        <pt x="600" y="254" on="0"/>
        <pt x="593" y="247" on="1"/>
        <pt x="408" y="17" on="1"/>
        <pt x="394" y="0" on="0"/>
        <pt x="371" y="0" on="1"/>
        <pt x="319" y="0" on="1"/>
      </contour>
    </TTGlyph>
    <TTGlyph name="arrowup" xMin="5" yMin="-3" xMax="499" yMax="708">
      <contour>
        <pt x="212" y="-3" on="0"/>
        <pt x="212" y="21" on="1"/>
        <pt x="212" y="565" on="1"/>
        <pt x="26" y="375" on="1"/>
        <pt x="16" y="365" on="0"/>
        <pt x="12" y="365" on="1"/>
        <pt x="5" y="365" on="0"/>
        <pt x="5" y="384" on="1"/>
        <pt x="5" y="448" on="1"/>
        <pt x="5" y="471" on="0"/>
        <pt x="21" y="487" on="1"/>
        <pt x="234" y="701" on="1"/>
        <pt x="241" y="708" on="0"/>
        <pt x="252" y="708" on="1"/>
        <pt x="263" y="708" on="0"/>
        <pt x="270" y="701" on="1"/>
        <pt x="483" y="487" on="1"/>
        <pt x="499" y="471" on="0"/>
        <pt x="499" y="448" on="1"/>
        <pt x="499" y="384" on="1"/>
        <pt x="499" y="365" on="0"/>
        <pt x="492" y="365" on="1"/>
        <pt x="488" y="365" on="0"/>
        <pt x="478" y="375" on="1"/>
        <pt x="292" y="565" on="1"/>
        <pt x="292" y="21" on="1"/>
        <pt x="292" y="-3" on="0"/>
        <pt x="258" y="-3" on="1"/>
        <pt x="246" y="-3" on="1"/>
      </contour>
    </TTGlyph>
    <TTGlyph name="asciicircum" xMin="32" yMin="319" xMax="328" yMax="685">
      <contour>
        <pt x="44" y="319" on="0"/>
        <pt x="32" y="330" on="0"/>
        <pt x="32" y="339" on="1"/>
        <pt x="32" y="343" on="0"/>
        <pt x="34" y="353" on="1"/>
        <pt x="137" y="662" on="1"/>
        <pt x="141" y="674" on="0"/>
        <pt x="157" y="685" on="0"/>
        <pt x="169" y="685" on="1"/>
        <pt x="192" y="685" on="1"/>
        <pt x="204" y="685" on="0"/>
        <pt x="219" y="675" on="0"/>
        <pt x="223" y="662" on="1"/>
        <pt x="326" y="353" on="1"/>
        <pt x="328" y="343" on="0"/>
        <pt x="328" y="339" on="1"/>
        <pt x="328" y="319" on="0"/>
        <pt x="304" y="319" on="1"/>
        <pt x="291" y="319" on="1"/>
        <pt x="261" y="319" on="0"/>
        <pt x="254" y="344" on="1"/>
        <pt x="180" y="590" on="1"/>
        <pt x="106" y="344" on="1"/>
        <pt x="97" y="319" on="0"/>
        <pt x="70" y="319" on="1"/>
        <pt x="56" y="319" on="1"/>
      </contour>
    </TTGlyph>
    <TTGlyph name="asciitilde" xMin="46" yMin="222" xMax="404" yMax="328">
      <contour>
        <pt x="62" y="227" on="1"/>
        <pt x="46" y="232" on="0"/>
        <pt x="46" y="243" on="1"/>
        <pt x="46" y="250" on="0"/>
        <pt x="50" y="257" on="1"/>
        <pt x="81" y="326" on="0"/>
        <pt x="150" y="326" on="1"/>
        <pt x="167" y="326" on="0"/>
        <pt x="205" y="316" on="0"/>
        <pt x="232" y="306" on="1"/>
        <pt x="238" y="304" on="0"/>
        <pt x="282" y="289" on="0"/>
        <pt x="297" y="289" on="1"/>
        <pt x="309" y="289" on="0"/>
        <pt x="327" y="299" on="0"/>
        <pt x="337" y="312" on="1"/>
        <pt x="349" y="328" on="0"/>
        <pt x="363" y="328" on="1"/>
        <pt x="370" y="328" on="0"/>
        <pt x="377" y="325" on="1"/>
        <pt x="386" y="322" on="1"/>
        <pt x="396" y="319" on="0"/>
        <pt x="404" y="312" on="0"/>
        <pt x="404" y="306" on="1"/>
        <pt x="404" y="299" on="0"/>
        <pt x="400" y="292" on="1"/>
        <pt x="367" y="223" on="0"/>
        <pt x="300" y="223" on="1"/>
        <pt x="283" y="223" on="0"/>
        <pt x="244" y="233" on="0"/>
        <pt x="217" y="243" on="1"/>
        <pt x="172" y="260" on="0"/>
        <pt x="151" y="260" on="1"/>
        <pt x="140" y="260" on="0"/>
        <pt x="122" y="250" on="0"/>
        <pt x="112" y="236" on="1"/>
        <pt x="106" y="228" on="0"/>
        <pt x="95" y="222" on="0"/>
        <pt x="88" y="222" on="1"/>
        <pt x="84" y="222" on="0"/>
        <pt x="74" y="224" on="1"/>
      </contour>
    </TTGlyph>
    <TTGlyph name="asterisk" xMin="20" yMin="429" xMax="275" yMax="709">
      <contour>
        <pt x="69" y="429" on="0"/>
        <pt x="51" y="443" on="0"/>
        <pt x="51" y="450" on="1"/>
        <pt x="51" y="458" on="0"/>
        <pt x="58" y="466" on="1"/>
        <pt x="112" y="554" on="1"/>
        <pt x="36" y="583" on="1"/>
        <pt x="27" y="587" on="0"/>
        <pt x="20" y="595" on="0"/>
        <pt x="20" y="601" on="1"/>
        <pt x="20" y="612" on="0"/>
        <pt x="31" y="628" on="0"/>
        <pt x="40" y="628" on="1"/>
        <pt x="49" y="628" on="0"/>
        <pt x="54" y="625" on="1"/>
        <pt x="125" y="599" on="1"/>
        <pt x="125" y="686" on="1"/>
        <pt x="125" y="709" on="0"/>
        <pt x="148" y="709" on="1"/>
        <pt x="171" y="709" on="0"/>
        <pt x="171" y="686" on="1"/>
        <pt x="171" y="599" on="1"/>
        <pt x="241" y="625" on="1"/>
        <pt x="246" y="628" on="0"/>
        <pt x="254" y="628" on="1"/>
        <pt x="263" y="628" on="0"/>
        <pt x="275" y="613" on="0"/>
        <pt x="275" y="601" on="1"/>
        <pt x="275" y="595" on="0"/>
        <pt x="268" y="587" on="0"/>
        <pt x="259" y="583" on="1"/>
        <pt x="182" y="554" on="1"/>
        <pt x="237" y="466" on="1"/>
        <pt x="243" y="457" on="0"/>
        <pt x="243" y="450" on="1"/>
        <pt x="243" y="443" on="0"/>
        <pt x="225" y="429" on="0"/>
        <pt x="217" y="429" on="1"/>
        <pt x="208" y="429" on="0"/>
        <pt x="200" y="440" on="1"/>
        <pt x="148" y="522" on="1"/>
        <pt x="95" y="440" on="1"/>
        <pt x="87" y="429" on="0"/>
        <pt x="78" y="429" on="1"/>
      </contour>
    </TTGlyph>
    <TTGlyph name="at" xMin="55" yMin="-125" xMax="727" yMax="706">
      <contour>
        <pt x="527" y="706" on="0"/>
        <pt x="656" y="625" on="0"/>
        <pt x="727" y="476" on="0"/>
        <pt x="727" y="377" on="1"/>
        <pt x="727" y="289" on="0"/>
        <pt x="676" y="141" on="0"/>
        <pt x="586" y="55" on="0"/>
        <pt x="529" y="55" on="1"/>
        <pt x="492" y="55" on="0"/>
        <pt x="445" y="92" on="0"/>
        <pt x="440" y="127" on="1"/>
        <pt x="421" y="91" on="0"/>
        <pt x="365" y="55" on="0"/>
        <pt x="332" y="55" on="1"/>
        <pt x="285" y="55" on="0"/>
        <pt x="215" y="142" on="0"/>
        <pt x="215" y="237" on="1"/>
        <pt x="215" y="315" on="0"/>
        <pt x="258" y="438" on="0"/>
        <pt x="335" y="506" on="0"/>
        <pt x="386" y="506" on="1"/>
        <pt x="415" y="506" on="0"/>
        <pt x="461" y="479" on="0"/>
        <pt x="475" y="462" on="1"/>
        <pt x="483" y="487" on="0"/>
        <pt x="496" y="502" on="0"/>
        <pt x="514" y="502" on="1"/>
        <pt x="522" y="502" on="1"/>
        <pt x="551" y="502" on="0"/>
        <pt x="551" y="480" on="1"/>
        <pt x="542" y="380" on="1"/>
        <pt x="538" y="328" on="0"/>
        <pt x="524" y="165" on="0"/>
        <pt x="524" y="154" on="1"/>
        <pt x="524" y="132" on="0"/>
        <pt x="544" y="117" on="0"/>
        <pt x="556" y="117" on="1"/>
        <pt x="585" y="117" on="0"/>
        <pt x="638" y="191" on="0"/>
        <pt x="670" y="312" on="0"/>
        <pt x="670" y="379" on="1"/>
        <pt x="670" y="463" on="0"/>
        <pt x="612" y="590" on="0"/>
        <pt x="508" y="659" on="0"/>
        <pt x="439" y="659" on="1"/>
        <pt x="349" y="659" on="0"/>
        <pt x="199" y="547" on="0"/>
        <pt x="112" y="353" on="0"/>
        <pt x="112" y="236" on="1"/>
        <pt x="112" y="143" on="0"/>
        <pt x="168" y="1" on="0"/>
        <pt x="270" y="-78" on="0"/>
        <pt x="337" y="-78" on="1"/>
        <pt x="370" y="-78" on="0"/>
        <pt x="415" y="-66" on="0"/>
        <pt x="438" y="-56" on="1"/>
        <pt x="456" y="-49" on="0"/>
        <pt x="461" y="-49" on="1"/>
        <pt x="475" y="-49" on="0"/>
        <pt x="475" y="-75" on="1"/>
        <pt x="475" y="-101" on="0"/>
        <pt x="379" y="-125" on="0"/>
        <pt x="332" y="-125" on="1"/>
        <pt x="250" y="-125" on="0"/>
        <pt x="125" y="-33" on="0"/>
        <pt x="55" y="132" on="0"/>
        <pt x="55" y="238" on="1"/>
        <pt x="55" y="367" on="0"/>
        <pt x="157" y="582" on="0"/>
        <pt x="334" y="706" on="0"/>
        <pt x="442" y="706" on="1"/>
      </contour>
      <contour>
        <pt x="444" y="259" on="0"/>
        <pt x="454" y="382" on="0"/>
        <pt x="460" y="407" on="1"/>
        <pt x="434" y="433" on="0"/>
        <pt x="401" y="433" on="1"/>
        <pt x="349" y="433" on="0"/>
        <pt x="303" y="328" on="0"/>
        <pt x="303" y="243" on="1"/>
        <pt x="303" y="128" on="0"/>
        <pt x="361" y="128" on="1"/>
        <pt x="382" y="128" on="0"/>
        <pt x="426" y="169" on="0"/>
        <pt x="442" y="215" on="1"/>
      </contour>
    </TTGlyph>
    <TTGlyph name="atilde" xMin="47" yMin="-7" xMax="420" yMax="693">
      <component glyphName="a" x="0" y="0" flags="0x0"/>
      <component glyphName="tildecomb" x="239" y="0" flags="0x0"/>
    </TTGlyph>
    <TTGlyph name="b" xMin="70" yMin="-7" xMax="438" yMax="753">
      <contour>
        <pt x="248" y="-7" on="0"/>
        <pt x="188" y="31" on="0"/>
        <pt x="166" y="67" on="1"/>
        <pt x="156" y="14" on="1"/>
        <pt x="153" y="5" on="0"/>
        <pt x="134" y="-2" on="0"/>
        <pt x="118" y="-2" on="1"/>
        <pt x="111" y="-2" on="1"/>
        <pt x="70" y="-2" on="0"/>
        <pt x="70" y="23" on="1"/>
        <pt x="70" y="728" on="1"/>
        <pt x="70" y="753" on="0"/>
        <pt x="114" y="753" on="1"/>
        <pt x="130" y="753" on="1"/>
        <pt x="174" y="753" on="0"/>
        <pt x="174" y="728" on="1"/>
        <pt x="174" y="485" on="1"/>
        <pt x="194" y="506" on="0"/>
        <pt x="240" y="530" on="0"/>
        <pt x="273" y="530" on="1"/>
        <pt x="349" y="530" on="0"/>
        <pt x="438" y="390" on="0"/>
        <pt x="438" y="264" on="1"/>
        <pt x="438" y="182" on="0"/>
        <pt x="399" y="60" on="0"/>
        <pt x="329" y="-7" on="0"/>
        <pt x="283" y="-7" on="1"/>
      </contour>
      <contour>
        <pt x="292" y="80" on="0"/>
        <pt x="331" y="174" on="0"/>
        <pt x="331" y="265" on="1"/>
        <pt x="331" y="356" on="0"/>
        <pt x="289" y="443" on="0"/>
        <pt x="246" y="443" on="1"/>
        <pt x="204" y="443" on="0"/>
        <pt x="174" y="407" on="1"/>
        <pt x="174" y="139" on="1"/>
        <pt x="191" y="111" on="0"/>
        <pt x="232" y="80" on="0"/>
        <pt x="254" y="80" on="1"/>
      </contour>
    </TTGlyph>
    <TTGlyph name="backslash" xMin="1" yMin="-21" xMax="283" yMax="702">
      <contour>
        <pt x="209" y="-21" on="0"/>
        <pt x="203" y="3" on="1"/>
        <pt x="4" y="663" on="1"/>
        <pt x="1" y="676" on="0"/>
        <pt x="1" y="683" on="1"/>
        <pt x="1" y="692" on="0"/>
        <pt x="15" y="702" on="0"/>
        <pt x="28" y="702" on="1"/>
        <pt x="46" y="702" on="1"/>
        <pt x="73" y="702" on="0"/>
        <pt x="80" y="678" on="1"/>
        <pt x="280" y="18" on="1"/>
        <pt x="283" y="3" on="0"/>
        <pt x="283" y="-1" on="1"/>
        <pt x="283" y="-10" on="0"/>
        <pt x="269" y="-21" on="0"/>
        <pt x="256" y="-21" on="1"/>
        <pt x="236" y="-21" on="1"/>
      </contour>
    </TTGlyph>
    <TTGlyph name="bar" xMin="61" yMin="-139" xMax="140" yMax="769">
      <contour>
        <pt x="61" y="-139" on="0"/>
        <pt x="61" y="-115" on="1"/>
        <pt x="61" y="745" on="1"/>
        <pt x="61" y="769" on="0"/>
        <pt x="95" y="769" on="1"/>
        <pt x="106" y="769" on="1"/>
        <pt x="124" y="769" on="0"/>
        <pt x="140" y="757" on="0"/>
        <pt x="140" y="745" on="1"/>
        <pt x="140" y="-115" on="1"/>
        <pt x="140" y="-127" on="0"/>
        <pt x="124" y="-139" on="0"/>
        <pt x="106" y="-139" on="1"/>
        <pt x="95" y="-139" on="1"/>
      </contour>
    </TTGlyph>
    <TTGlyph name="braceleft" xMin="16" yMin="-138" xMax="234" yMax="768">
      <contour>
        <pt x="136" y="-138" on="0"/>
        <pt x="84" y="-82" on="0"/>
        <pt x="84" y="-22" on="1"/>
        <pt x="84" y="158" on="1"/>
        <pt x="84" y="206" on="0"/>
        <pt x="67" y="258" on="0"/>
        <pt x="42" y="270" on="1"/>
        <pt x="29" y="276" on="0"/>
        <pt x="16" y="294" on="0"/>
        <pt x="16" y="308" on="1"/>
        <pt x="16" y="322" on="1"/>
        <pt x="16" y="336" on="0"/>
        <pt x="29" y="354" on="0"/>
        <pt x="42" y="360" on="1"/>
        <pt x="67" y="372" on="0"/>
        <pt x="84" y="424" on="0"/>
        <pt x="84" y="472" on="1"/>
        <pt x="84" y="652" on="1"/>
        <pt x="84" y="711" on="0"/>
        <pt x="136" y="768" on="0"/>
        <pt x="168" y="768" on="1"/>
        <pt x="211" y="768" on="1"/>
        <pt x="223" y="768" on="0"/>
        <pt x="234" y="753" on="0"/>
        <pt x="234" y="736" on="1"/>
        <pt x="234" y="729" on="1"/>
        <pt x="234" y="712" on="0"/>
        <pt x="224" y="697" on="0"/>
        <pt x="213" y="697" on="1"/>
        <pt x="201" y="697" on="1"/>
        <pt x="182" y="697" on="0"/>
        <pt x="169" y="671" on="0"/>
        <pt x="169" y="643" on="1"/>
        <pt x="169" y="456" on="1"/>
        <pt x="169" y="401" on="0"/>
        <pt x="125" y="329" on="0"/>
        <pt x="101" y="314" on="1"/>
        <pt x="123" y="303" on="0"/>
        <pt x="169" y="230" on="0"/>
        <pt x="169" y="174" on="1"/>
        <pt x="169" y="-12" on="1"/>
        <pt x="169" y="-40" on="0"/>
        <pt x="182" y="-67" on="0"/>
        <pt x="200" y="-67" on="1"/>
        <pt x="212" y="-67" on="1"/>
        <pt x="223" y="-67" on="0"/>
        <pt x="234" y="-82" on="0"/>
        <pt x="234" y="-99" on="1"/>
        <pt x="234" y="-106" on="1"/>
        <pt x="234" y="-123" on="0"/>
        <pt x="223" y="-138" on="0"/>
        <pt x="211" y="-138" on="1"/>
        <pt x="168" y="-138" on="1"/>
      </contour>
    </TTGlyph>
    <TTGlyph name="braceright" xMin="19" yMin="-138" xMax="237" yMax="768">
      <contour>
        <pt x="30" y="-138" on="0"/>
        <pt x="19" y="-123" on="0"/>
        <pt x="19" y="-106" on="1"/>
        <pt x="19" y="-99" on="1"/>
        <pt x="19" y="-82" on="0"/>
        <pt x="30" y="-67" on="0"/>
        <pt x="41" y="-67" on="1"/>
        <pt x="53" y="-67" on="1"/>
        <pt x="71" y="-67" on="0"/>
        <pt x="84" y="-40" on="0"/>
        <pt x="84" y="-12" on="1"/>
        <pt x="84" y="174" on="1"/>
        <pt x="84" y="230" on="0"/>
        <pt x="130" y="303" on="0"/>
        <pt x="152" y="314" on="1"/>
        <pt x="128" y="329" on="0"/>
        <pt x="84" y="401" on="0"/>
        <pt x="84" y="456" on="1"/>
        <pt x="84" y="643" on="1"/>
        <pt x="84" y="671" on="0"/>
        <pt x="71" y="697" on="0"/>
        <pt x="52" y="697" on="1"/>
        <pt x="40" y="697" on="1"/>
        <pt x="29" y="697" on="0"/>
        <pt x="19" y="712" on="0"/>
        <pt x="19" y="729" on="1"/>
        <pt x="19" y="736" on="1"/>
        <pt x="19" y="753" on="0"/>
        <pt x="30" y="768" on="0"/>
        <pt x="42" y="768" on="1"/>
        <pt x="84" y="768" on="1"/>
        <pt x="116" y="768" on="0"/>
        <pt x="168" y="711" on="0"/>
        <pt x="168" y="652" on="1"/>
        <pt x="168" y="472" on="1"/>
        <pt x="168" y="424" on="0"/>
        <pt x="186" y="372" on="0"/>
        <pt x="211" y="360" on="1"/>
        <pt x="224" y="354" on="0"/>
        <pt x="237" y="336" on="0"/>
        <pt x="237" y="322" on="1"/>
        <pt x="237" y="308" on="1"/>
        <pt x="237" y="294" on="0"/>
        <pt x="224" y="276" on="0"/>
        <pt x="211" y="270" on="1"/>
        <pt x="186" y="258" on="0"/>
        <pt x="168" y="205" on="0"/>
        <pt x="168" y="158" on="1"/>
        <pt x="168" y="-22" on="1"/>
        <pt x="168" y="-82" on="0"/>
        <pt x="116" y="-138" on="0"/>
        <pt x="84" y="-138" on="1"/>
        <pt x="42" y="-138" on="1"/>
      </contour>
    </TTGlyph>
    <TTGlyph name="bracketleft" xMin="62" yMin="-138" xMax="216" yMax="768">
      <contour>
        <pt x="75" y="-138" on="0"/>
        <pt x="62" y="-122" on="0"/>
        <pt x="62" y="-105" on="1"/>
        <pt x="62" y="735" on="1"/>
        <pt x="62" y="752" on="0"/>
        <pt x="75" y="768" on="0"/>
        <pt x="91" y="768" on="1"/>
        <pt x="195" y="768" on="1"/>
        <pt x="207" y="768" on="0"/>
        <pt x="216" y="754" on="0"/>
        <pt x="216" y="736" on="1"/>
        <pt x="216" y="728" on="1"/>
        <pt x="216" y="710" on="0"/>
        <pt x="207" y="696" on="0"/>
        <pt x="195" y="696" on="1"/>
        <pt x="145" y="696" on="1"/>
        <pt x="145" y="-66" on="1"/>
        <pt x="195" y="-66" on="1"/>
        <pt x="207" y="-66" on="0"/>
        <pt x="216" y="-81" on="0"/>
        <pt x="216" y="-99" on="1"/>
        <pt x="216" y="-106" on="1"/>
        <pt x="216" y="-124" on="0"/>
        <pt x="207" y="-138" on="0"/>
        <pt x="195" y="-138" on="1"/>
        <pt x="91" y="-138" on="1"/>
      </contour>
    </TTGlyph>
    <TTGlyph name="bracketright" xMin="23" yMin="-138" xMax="178" yMax="768">
      <contour>
        <pt x="34" y="-138" on="0"/>
        <pt x="23" y="-123" on="0"/>
        <pt x="23" y="-106" on="1"/>
        <pt x="23" y="-99" on="1"/>
        <pt x="23" y="-66" on="0"/>
        <pt x="45" y="-66" on="1"/>
        <pt x="95" y="-66" on="1"/>
        <pt x="95" y="696" on="1"/>
        <pt x="45" y="696" on="1"/>
        <pt x="34" y="696" on="0"/>
        <pt x="23" y="711" on="0"/>
        <pt x="23" y="728" on="1"/>
        <pt x="23" y="736" on="1"/>
        <pt x="23" y="753" on="0"/>
        <pt x="34" y="768" on="0"/>
        <pt x="45" y="768" on="1"/>
        <pt x="149" y="768" on="1"/>
        <pt x="164" y="768" on="0"/>
        <pt x="178" y="752" on="0"/>
        <pt x="178" y="735" on="1"/>
        <pt x="178" y="-105" on="1"/>
        <pt x="178" y="-122" on="0"/>
        <pt x="164" y="-138" on="0"/>
        <pt x="149" y="-138" on="1"/>
        <pt x="45" y="-138" on="1"/>
      </contour>
    </TTGlyph>
    <TTGlyph name="breve" xMin="6" yMin="582" xMax="247" yMax="715">
      <contour>
        <pt x="73" y="582" on="0"/>
        <pt x="6" y="644" on="0"/>
        <pt x="6" y="695" on="1"/>
        <pt x="6" y="715" on="0"/>
        <pt x="30" y="715" on="1"/>
        <pt x="40" y="715" on="0"/>
        <pt x="48" y="706" on="0"/>
        <pt x="54" y="692" on="1"/>
        <pt x="62" y="674" on="0"/>
        <pt x="96" y="655" on="0"/>
        <pt x="127" y="655" on="1"/>
        <pt x="185" y="655" on="0"/>
        <pt x="200" y="693" on="1"/>
        <pt x="205" y="706" on="0"/>
        <pt x="213" y="715" on="0"/>
        <pt x="223" y="715" on="1"/>
        <pt x="247" y="715" on="0"/>
        <pt x="247" y="695" on="1"/>
        <pt x="247" y="644" on="0"/>
        <pt x="180" y="582" on="0"/>
        <pt x="127" y="582" on="1"/>
      </contour>
    </TTGlyph>
    <TTGlyph name="brokenbar" xMin="61" yMin="-140" xMax="140" yMax="770">
      <contour>
        <pt x="61" y="396" on="0"/>
        <pt x="61" y="421" on="1"/>
        <pt x="61" y="745" on="1"/>
        <pt x="61" y="770" on="0"/>
        <pt x="95" y="770" on="1"/>
        <pt x="106" y="770" on="1"/>
        <pt x="140" y="770" on="0"/>
        <pt x="140" y="745" on="1"/>
        <pt x="140" y="421" on="1"/>
        <pt x="140" y="396" on="0"/>
        <pt x="106" y="396" on="1"/>
        <pt x="95" y="396" on="1"/>
      </contour>
      <contour>
        <pt x="61" y="-140" on="0"/>
        <pt x="61" y="-115" on="1"/>
        <pt x="61" y="208" on="1"/>
        <pt x="61" y="233" on="0"/>
        <pt x="95" y="233" on="1"/>
        <pt x="106" y="233" on="1"/>
        <pt x="140" y="233" on="0"/>
        <pt x="140" y="208" on="1"/>
        <pt x="140" y="-115" on="1"/>
        <pt x="140" y="-140" on="0"/>
        <pt x="106" y="-140" on="1"/>
        <pt x="95" y="-140" on="1"/>
      </contour>
    </TTGlyph>
    <TTGlyph name="bullet" xMin="32" yMin="200" xMax="265" yMax="453">
      <contour>
        <pt x="97" y="200" on="0"/>
        <pt x="32" y="264" on="0"/>
        <pt x="32" y="326" on="1"/>
        <pt x="32" y="388" on="0"/>
        <pt x="97" y="453" on="0"/>
        <pt x="148" y="453" on="1"/>
        <pt x="199" y="453" on="0"/>
        <pt x="265" y="388" on="0"/>
        <pt x="265" y="326" on="1"/>
        <pt x="265" y="264" on="0"/>
        <pt x="199" y="200" on="0"/>
        <pt x="148" y="200" on="1"/>
      </contour>
    </TTGlyph>
    <TTGlyph name="c" xMin="43" yMin="-7" xMax="390" yMax="530">
      <contour>
        <pt x="147" y="-7" on="0"/>
        <pt x="43" y="122" on="0"/>
        <pt x="43" y="263" on="1"/>
        <pt x="43" y="406" on="0"/>
        <pt x="151" y="530" on="0"/>
        <pt x="252" y="530" on="1"/>
        <pt x="301" y="530" on="0"/>
        <pt x="383" y="498" on="0"/>
        <pt x="383" y="477" on="1"/>
        <pt x="383" y="463" on="0"/>
        <pt x="357" y="417" on="0"/>
        <pt x="348" y="417" on="1"/>
        <pt x="343" y="417" on="0"/>
        <pt x="335" y="422" on="1"/>
        <pt x="316" y="432" on="0"/>
        <pt x="281" y="445" on="0"/>
        <pt x="258" y="445" on="1"/>
        <pt x="204" y="445" on="0"/>
        <pt x="151" y="361" on="0"/>
        <pt x="151" y="265" on="1"/>
        <pt x="151" y="166" on="0"/>
        <pt x="201" y="78" on="0"/>
        <pt x="259" y="78" on="1"/>
        <pt x="285" y="78" on="0"/>
        <pt x="322" y="90" on="0"/>
        <pt x="339" y="100" on="1"/>
        <pt x="344" y="102" on="0"/>
        <pt x="351" y="108" on="0"/>
        <pt x="353" y="108" on="1"/>
        <pt x="365" y="108" on="0"/>
        <pt x="390" y="64" on="0"/>
        <pt x="390" y="50" on="1"/>
        <pt x="390" y="36" on="0"/>
        <pt x="345" y="10" on="0"/>
        <pt x="280" y="-7" on="0"/>
        <pt x="253" y="-7" on="1"/>
      </contour>
    </TTGlyph>
    <TTGlyph name="cacute" xMin="43" yMin="-7" xMax="390" yMax="733">
      <component glyphName="c" x="0" y="0" flags="0x0"/>
      <component glyphName="acutecomb" x="330" y="0" flags="0x0"/>
    </TTGlyph>
    <TTGlyph name="cacute.loclPLK" xMin="43" yMin="-7" xMax="390" yMax="733">
      <component glyphName="c" x="0" y="0" flags="0x0"/>
      <component glyphName="acute.loclPLK" x="145" y="0" flags="0x0"/>
    </TTGlyph>
    <TTGlyph name="caron" xMin="12" yMin="580" xMax="239" yMax="723">
      <contour>
        <pt x="86" y="580" on="0"/>
        <pt x="73" y="601" on="1"/>
        <pt x="19" y="692" on="1"/>
        <pt x="12" y="706" on="0"/>
        <pt x="12" y="710" on="1"/>
        <pt x="12" y="723" on="0"/>
        <pt x="32" y="723" on="1"/>
        <pt x="53" y="723" on="1"/>
        <pt x="76" y="723" on="0"/>
        <pt x="86" y="707" on="1"/>
        <pt x="125" y="643" on="1"/>
        <pt x="165" y="707" on="1"/>
        <pt x="174" y="723" on="0"/>
        <pt x="197" y="723" on="1"/>
        <pt x="219" y="723" on="1"/>
        <pt x="239" y="723" on="0"/>
        <pt x="239" y="709" on="1"/>
        <pt x="239" y="704" on="0"/>
        <pt x="232" y="692" on="1"/>
        <pt x="177" y="601" on="1"/>
        <pt x="170" y="589" on="0"/>
        <pt x="148" y="580" on="0"/>
        <pt x="132" y="580" on="1"/>
        <pt x="119" y="580" on="1"/>
      </contour>
    </TTGlyph>
    <TTGlyph name="caron.alt" xMin="44" yMin="522" xMax="152" yMax="700">
      <contour>
        <pt x="65" y="522" on="0"/>
        <pt x="44" y="530" on="0"/>
        <pt x="44" y="539" on="1"/>
        <pt x="44" y="549" on="0"/>
        <pt x="48" y="579" on="1"/>
        <pt x="49" y="588" on="0"/>
        <pt x="54" y="638" on="0"/>
        <pt x="54" y="665" on="1"/>
        <pt x="54" y="681" on="0"/>
        <pt x="76" y="700" on="0"/>
        <pt x="97" y="700" on="1"/>
        <pt x="109" y="700" on="1"/>
        <pt x="130" y="700" on="0"/>
        <pt x="152" y="682" on="0"/>
        <pt x="152" y="667" on="1"/>
        <pt x="152" y="628" on="0"/>
        <pt x="126" y="562" on="0"/>
        <pt x="90" y="522" on="0"/>
        <pt x="77" y="522" on="1"/>
      </contour>
    </TTGlyph>
    <TTGlyph name="ccaron" xMin="43" yMin="-7" xMax="390" yMax="723">
      <component glyphName="c" x="0" y="0" flags="0x0"/>
      <component glyphName="uni030C" x="230" y="0" flags="0x0"/>
    </TTGlyph>
    <TTGlyph name="ccedilla" xMin="43" yMin="-211" xMax="390" yMax="530">
      <contour>
        <pt x="390" y="32" on="0"/>
        <pt x="313" y="-2" on="0"/>
        <pt x="270" y="-6" on="1"/>
        <pt x="256" y="-56" on="1"/>
        <pt x="284" y="-58" on="0"/>
        <pt x="327" y="-90" on="0"/>
        <pt x="327" y="-126" on="1"/>
        <pt x="327" y="-171" on="0"/>
        <pt x="273" y="-211" on="0"/>
        <pt x="229" y="-211" on="1"/>
        <pt x="194" y="-211" on="0"/>
        <pt x="131" y="-184" on="0"/>
        <pt x="131" y="-165" on="1"/>
        <pt x="131" y="-154" on="0"/>
        <pt x="147" y="-134" on="0"/>
        <pt x="154" y="-134" on="1"/>
        <pt x="160" y="-134" on="0"/>
        <pt x="178" y="-142" on="1"/>
        <pt x="204" y="-155" on="0"/>
        <pt x="222" y="-155" on="1"/>
        <pt x="234" y="-155" on="0"/>
        <pt x="253" y="-142" on="0"/>
        <pt x="253" y="-129" on="1"/>
        <pt x="253" y="-116" on="0"/>
        <pt x="238" y="-104" on="0"/>
        <pt x="223" y="-99" on="1"/>
        <pt x="211" y="-94" on="0"/>
        <pt x="201" y="-86" on="0"/>
        <pt x="201" y="-79" on="1"/>
        <pt x="201" y="-73" on="0"/>
        <pt x="211" y="-39" on="0"/>
        <pt x="222" y="-6" on="1"/>
        <pt x="132" y="3" on="0"/>
        <pt x="43" y="133" on="0"/>
        <pt x="43" y="263" on="1"/>
        <pt x="43" y="406" on="0"/>
        <pt x="151" y="530" on="0"/>
        <pt x="252" y="530" on="1"/>
        <pt x="301" y="530" on="0"/>
        <pt x="383" y="498" on="0"/>
        <pt x="383" y="477" on="1"/>
        <pt x="383" y="463" on="0"/>
        <pt x="357" y="417" on="0"/>
        <pt x="348" y="417" on="1"/>
        <pt x="343" y="417" on="0"/>
        <pt x="335" y="422" on="1"/>
        <pt x="316" y="432" on="0"/>
        <pt x="281" y="445" on="0"/>
        <pt x="258" y="445" on="1"/>
        <pt x="204" y="445" on="0"/>
        <pt x="151" y="361" on="0"/>
        <pt x="151" y="265" on="1"/>
        <pt x="151" y="166" on="0"/>
        <pt x="201" y="78" on="0"/>
        <pt x="259" y="78" on="1"/>
        <pt x="285" y="78" on="0"/>
        <pt x="322" y="90" on="0"/>
        <pt x="339" y="100" on="1"/>
        <pt x="344" y="102" on="0"/>
        <pt x="351" y="108" on="0"/>
        <pt x="353" y="108" on="1"/>
        <pt x="365" y="108" on="0"/>
        <pt x="390" y="64" on="0"/>
        <pt x="390" y="50" on="1"/>
      </contour>
    </TTGlyph>
    <TTGlyph name="ccircumflex" xMin="43" yMin="-7" xMax="390" yMax="718">
      <component glyphName="c" x="0" y="0" flags="0x0"/>
      <component glyphName="uni0302" x="233" y="0" flags="0x0"/>
    </TTGlyph>
    <TTGlyph name="cdotaccent" xMin="43" yMin="-7" xMax="390" yMax="702">
      <component glyphName="c" x="0" y="0" flags="0x0"/>
      <component glyphName="uni0307" x="235" y="0" flags="0x0"/>
    </TTGlyph>
    <TTGlyph name="cedilla" xMin="26" yMin="-211" xMax="222" yMax="3">
      <contour>
        <pt x="179" y="-58" on="0"/>
        <pt x="222" y="-90" on="0"/>
        <pt x="222" y="-126" on="1"/>
        <pt x="222" y="-171" on="0"/>
        <pt x="168" y="-211" on="0"/>
        <pt x="124" y="-211" on="1"/>
        <pt x="89" y="-211" on="0"/>
        <pt x="26" y="-184" on="0"/>
        <pt x="26" y="-165" on="1"/>
        <pt x="26" y="-154" on="0"/>
        <pt x="42" y="-134" on="0"/>
        <pt x="49" y="-134" on="1"/>
        <pt x="55" y="-134" on="0"/>
        <pt x="73" y="-142" on="1"/>
        <pt x="99" y="-155" on="0"/>
        <pt x="117" y="-155" on="1"/>
        <pt x="129" y="-155" on="0"/>
        <pt x="148" y="-142" on="0"/>
        <pt x="148" y="-129" on="1"/>
        <pt x="148" y="-116" on="0"/>
        <pt x="133" y="-104" on="0"/>
        <pt x="118" y="-99" on="1"/>
        <pt x="106" y="-94" on="0"/>
        <pt x="96" y="-86" on="0"/>
        <pt x="96" y="-79" on="1"/>
        <pt x="96" y="-73" on="0"/>
        <pt x="107" y="-35" on="0"/>
        <pt x="120" y="3" on="1"/>
        <pt x="168" y="3" on="1"/>
        <pt x="151" y="-56" on="1"/>
      </contour>
    </TTGlyph>
    <TTGlyph name="cent" xMin="43" yMin="-76" xMax="390" yMax="584">
      <contour>
        <pt x="390" y="36" on="0"/>
        <pt x="346" y="10" on="0"/>
        <pt x="281" y="-7" on="0"/>
        <pt x="254" y="-7" on="1"/>
        <pt x="254" y="-56" on="1"/>
        <pt x="254" y="-76" on="0"/>
        <pt x="233" y="-76" on="1"/>
        <pt x="211" y="-76" on="0"/>
        <pt x="211" y="-56" on="1"/>
        <pt x="211" y="-4" on="1"/>
        <pt x="126" y="7" on="0"/>
        <pt x="43" y="137" on="0"/>
        <pt x="43" y="263" on="1"/>
        <pt x="43" y="391" on="0"/>
        <pt x="130" y="516" on="0"/>
        <pt x="211" y="527" on="1"/>
        <pt x="211" y="564" on="1"/>
        <pt x="211" y="584" on="0"/>
        <pt x="232" y="584" on="1"/>
        <pt x="254" y="584" on="0"/>
        <pt x="254" y="564" on="1"/>
        <pt x="254" y="530" on="1"/>
        <pt x="303" y="529" on="0"/>
        <pt x="383" y="497" on="0"/>
        <pt x="383" y="477" on="1"/>
        <pt x="383" y="463" on="0"/>
        <pt x="357" y="417" on="0"/>
        <pt x="348" y="417" on="1"/>
        <pt x="343" y="417" on="0"/>
        <pt x="335" y="422" on="1"/>
        <pt x="316" y="432" on="0"/>
        <pt x="281" y="445" on="0"/>
        <pt x="258" y="445" on="1"/>
        <pt x="254" y="445" on="1"/>
        <pt x="254" y="78" on="1"/>
        <pt x="259" y="78" on="1"/>
        <pt x="285" y="78" on="0"/>
        <pt x="322" y="90" on="0"/>
        <pt x="339" y="100" on="1"/>
        <pt x="344" y="102" on="0"/>
        <pt x="351" y="108" on="0"/>
        <pt x="353" y="108" on="1"/>
        <pt x="365" y="108" on="0"/>
        <pt x="390" y="64" on="0"/>
        <pt x="390" y="50" on="1"/>
      </contour>
      <contour>
        <pt x="151" y="189" on="0"/>
        <pt x="180" y="104" on="0"/>
        <pt x="211" y="88" on="1"/>
        <pt x="211" y="435" on="1"/>
        <pt x="181" y="420" on="0"/>
        <pt x="151" y="337" on="0"/>
        <pt x="151" y="265" on="1"/>
      </contour>
    </TTGlyph>
    <TTGlyph name="circumflex" xMin="12" yMin="575" xMax="239" yMax="718">
      <contour>
        <pt x="22" y="575" on="0"/>
        <pt x="12" y="582" on="0"/>
        <pt x="12" y="587" on="1"/>
        <pt x="12" y="591" on="0"/>
        <pt x="19" y="605" on="1"/>
        <pt x="73" y="697" on="1"/>
        <pt x="87" y="718" on="0"/>
        <pt x="120" y="718" on="1"/>
        <pt x="131" y="718" on="1"/>
        <pt x="163" y="718" on="0"/>
        <pt x="177" y="697" on="1"/>
        <pt x="232" y="605" on="1"/>
        <pt x="239" y="595" on="0"/>
        <pt x="239" y="588" on="1"/>
        <pt x="239" y="575" on="0"/>
        <pt x="219" y="575" on="1"/>
        <pt x="197" y="575" on="1"/>
        <pt x="174" y="575" on="0"/>
        <pt x="165" y="590" on="1"/>
        <pt x="125" y="655" on="1"/>
        <pt x="86" y="590" on="1"/>
        <pt x="76" y="575" on="0"/>
        <pt x="53" y="575" on="1"/>
        <pt x="32" y="575" on="1"/>
      </contour>
    </TTGlyph>
    <TTGlyph name="colon" xMin="39" yMin="-2" xMax="149" yMax="525">
      <contour>
        <pt x="39" y="402" on="0"/>
        <pt x="39" y="427" on="1"/>
        <pt x="39" y="500" on="1"/>
        <pt x="39" y="525" on="0"/>
        <pt x="83" y="525" on="1"/>
        <pt x="105" y="525" on="1"/>
        <pt x="149" y="525" on="0"/>
        <pt x="149" y="500" on="1"/>
        <pt x="149" y="427" on="1"/>
        <pt x="149" y="402" on="0"/>
        <pt x="105" y="402" on="1"/>
        <pt x="83" y="402" on="1"/>
      </contour>
      <contour>
        <pt x="39" y="-2" on="0"/>
        <pt x="39" y="23" on="1"/>
        <pt x="39" y="96" on="1"/>
        <pt x="39" y="121" on="0"/>
        <pt x="83" y="121" on="1"/>
        <pt x="105" y="121" on="1"/>
        <pt x="149" y="121" on="0"/>
        <pt x="149" y="96" on="1"/>
        <pt x="149" y="23" on="1"/>
        <pt x="149" y="-2" on="0"/>
        <pt x="105" y="-2" on="1"/>
        <pt x="83" y="-2" on="1"/>
      </contour>
    </TTGlyph>
    <TTGlyph name="comma" xMin="12" yMin="-119" xMax="148" yMax="121">
      <contour>
        <pt x="33" y="-119" on="0"/>
        <pt x="12" y="-111" on="0"/>
        <pt x="12" y="-102" on="1"/>
        <pt x="12" y="-97" on="0"/>
        <pt x="18" y="-79" on="0"/>
        <pt x="19" y="-75" on="1"/>
        <pt x="33" y="-30" on="0"/>
        <pt x="48" y="38" on="0"/>
        <pt x="48" y="86" on="1"/>
        <pt x="48" y="121" on="0"/>
        <pt x="91" y="121" on="1"/>
        <pt x="104" y="121" on="1"/>
        <pt x="126" y="121" on="0"/>
        <pt x="148" y="104" on="0"/>
        <pt x="148" y="89" on="1"/>
        <pt x="148" y="34" on="0"/>
        <pt x="112" y="-62" on="0"/>
        <pt x="62" y="-119" on="0"/>
        <pt x="45" y="-119" on="1"/>
      </contour>
    </TTGlyph>
    <TTGlyph name="copyright" xMin="9" yMin="-6" xMax="582" yMax="709">
      <contour>
        <pt x="215" y="-6" on="0"/>
        <pt x="85" y="78" on="0"/>
        <pt x="9" y="240" on="0"/>
        <pt x="9" y="353" on="1"/>
        <pt x="9" y="465" on="0"/>
        <pt x="85" y="626" on="0"/>
        <pt x="215" y="709" on="0"/>
        <pt x="296" y="709" on="1"/>
        <pt x="377" y="709" on="0"/>
        <pt x="507" y="626" on="0"/>
        <pt x="582" y="465" on="0"/>
        <pt x="582" y="353" on="1"/>
        <pt x="582" y="240" on="0"/>
        <pt x="507" y="78" on="0"/>
        <pt x="377" y="-6" on="0"/>
        <pt x="296" y="-6" on="1"/>
      </contour>
      <contour>
        <pt x="361" y="47" on="0"/>
        <pt x="466" y="118" on="0"/>
        <pt x="528" y="256" on="0"/>
        <pt x="528" y="353" on="1"/>
        <pt x="528" y="451" on="0"/>
        <pt x="466" y="588" on="0"/>
        <pt x="361" y="657" on="0"/>
        <pt x="296" y="657" on="1"/>
        <pt x="231" y="657" on="0"/>
        <pt x="126" y="588" on="0"/>
        <pt x="64" y="451" on="0"/>
        <pt x="64" y="353" on="1"/>
        <pt x="64" y="256" on="0"/>
        <pt x="126" y="118" on="0"/>
        <pt x="231" y="47" on="0"/>
        <pt x="296" y="47" on="1"/>
      </contour>
      <contour>
        <pt x="231" y="141" on="0"/>
        <pt x="158" y="243" on="0"/>
        <pt x="158" y="350" on="1"/>
        <pt x="158" y="559" on="0"/>
        <pt x="309" y="559" on="1"/>
        <pt x="341" y="559" on="0"/>
        <pt x="402" y="535" on="0"/>
        <pt x="402" y="522" on="1"/>
        <pt x="402" y="512" on="0"/>
        <pt x="383" y="481" on="0"/>
        <pt x="376" y="481" on="1"/>
        <pt x="375" y="481" on="0"/>
        <pt x="341" y="506" on="0"/>
        <pt x="308" y="506" on="1"/>
        <pt x="264" y="506" on="0"/>
        <pt x="221" y="430" on="0"/>
        <pt x="221" y="350" on="1"/>
        <pt x="221" y="271" on="0"/>
        <pt x="263" y="194" on="0"/>
        <pt x="307" y="194" on="1"/>
        <pt x="328" y="194" on="0"/>
        <pt x="359" y="207" on="0"/>
        <pt x="380" y="222" on="0"/>
        <pt x="382" y="222" on="1"/>
        <pt x="391" y="222" on="0"/>
        <pt x="407" y="193" on="0"/>
        <pt x="407" y="185" on="1"/>
        <pt x="407" y="170" on="0"/>
        <pt x="339" y="141" on="0"/>
        <pt x="307" y="141" on="1"/>
      </contour>
    </TTGlyph>
    <TTGlyph name="currency" xMin="52" yMin="123" xMax="407" yMax="505">
      <contour>
        <pt x="82" y="123" on="0"/>
        <pt x="71" y="132" on="1"/>
        <pt x="61" y="142" on="1"/>
        <pt x="52" y="151" on="0"/>
        <pt x="52" y="162" on="1"/>
        <pt x="52" y="172" on="0"/>
        <pt x="63" y="185" on="1"/>
        <pt x="92" y="214" on="1"/>
        <pt x="68" y="259" on="0"/>
        <pt x="68" y="312" on="1"/>
        <pt x="68" y="368" on="0"/>
        <pt x="93" y="413" on="1"/>
        <pt x="62" y="442" on="1"/>
        <pt x="52" y="452" on="0"/>
        <pt x="52" y="465" on="1"/>
        <pt x="52" y="476" on="0"/>
        <pt x="60" y="483" on="1"/>
        <pt x="71" y="496" on="1"/>
        <pt x="80" y="505" on="0"/>
        <pt x="90" y="505" on="1"/>
        <pt x="102" y="505" on="0"/>
        <pt x="112" y="493" on="1"/>
        <pt x="138" y="467" on="1"/>
        <pt x="179" y="500" on="0"/>
        <pt x="228" y="500" on="1"/>
        <pt x="276" y="500" on="0"/>
        <pt x="320" y="468" on="1"/>
        <pt x="345" y="493" on="1"/>
        <pt x="356" y="504" on="0"/>
        <pt x="367" y="504" on="1"/>
        <pt x="378" y="504" on="0"/>
        <pt x="387" y="494" on="1"/>
        <pt x="398" y="484" on="1"/>
        <pt x="407" y="475" on="0"/>
        <pt x="407" y="465" on="1"/>
        <pt x="407" y="453" on="0"/>
        <pt x="396" y="442" on="1"/>
        <pt x="366" y="411" on="1"/>
        <pt x="390" y="365" on="0"/>
        <pt x="390" y="312" on="1"/>
        <pt x="390" y="260" on="0"/>
        <pt x="366" y="214" on="1"/>
        <pt x="395" y="185" on="1"/>
        <pt x="407" y="173" on="0"/>
        <pt x="407" y="162" on="1"/>
        <pt x="407" y="158" on="0"/>
        <pt x="401" y="147" on="0"/>
        <pt x="396" y="142" on="1"/>
        <pt x="387" y="132" on="1"/>
        <pt x="376" y="123" on="0"/>
        <pt x="367" y="123" on="1"/>
        <pt x="355" y="123" on="0"/>
        <pt x="344" y="134" on="1"/>
        <pt x="321" y="158" on="1"/>
        <pt x="279" y="126" on="0"/>
        <pt x="228" y="126" on="1"/>
        <pt x="179" y="126" on="0"/>
        <pt x="137" y="157" on="1"/>
        <pt x="113" y="133" on="1"/>
        <pt x="103" y="123" on="0"/>
        <pt x="91" y="123" on="1"/>
      </contour>
      <contour>
        <pt x="265" y="202" on="0"/>
        <pt x="313" y="260" on="0"/>
        <pt x="313" y="312" on="1"/>
        <pt x="313" y="365" on="0"/>
        <pt x="265" y="424" on="0"/>
        <pt x="228" y="424" on="1"/>
        <pt x="192" y="424" on="0"/>
        <pt x="144" y="365" on="0"/>
        <pt x="144" y="312" on="1"/>
        <pt x="144" y="260" on="0"/>
        <pt x="192" y="202" on="0"/>
        <pt x="228" y="202" on="1"/>
      </contour>
    </TTGlyph>
    <TTGlyph name="d" xMin="44" yMin="-7" xMax="423" yMax="753">
      <contour>
        <pt x="152" y="-7" on="0"/>
        <pt x="82" y="60" on="0"/>
        <pt x="44" y="182" on="0"/>
        <pt x="44" y="264" on="1"/>
        <pt x="44" y="390" on="0"/>
        <pt x="133" y="530" on="0"/>
        <pt x="209" y="530" on="1"/>
        <pt x="267" y="530" on="0"/>
        <pt x="308" y="485" on="1"/>
        <pt x="308" y="728" on="1"/>
        <pt x="308" y="753" on="0"/>
        <pt x="352" y="753" on="1"/>
        <pt x="368" y="753" on="1"/>
        <pt x="412" y="753" on="0"/>
        <pt x="412" y="728" on="1"/>
        <pt x="412" y="156" on="1"/>
        <pt x="412" y="91" on="0"/>
        <pt x="423" y="30" on="0"/>
        <pt x="423" y="24" on="1"/>
        <pt x="423" y="12" on="0"/>
        <pt x="369" y="-1" on="0"/>
        <pt x="349" y="-1" on="1"/>
        <pt x="332" y="-1" on="0"/>
        <pt x="319" y="32" on="0"/>
        <pt x="314" y="67" on="1"/>
        <pt x="293" y="31" on="0"/>
        <pt x="234" y="-7" on="0"/>
        <pt x="199" y="-7" on="1"/>
      </contour>
      <contour>
        <pt x="250" y="80" on="0"/>
        <pt x="292" y="112" on="0"/>
        <pt x="308" y="141" on="1"/>
        <pt x="308" y="407" on="1"/>
        <pt x="278" y="443" on="0"/>
        <pt x="237" y="443" on="1"/>
        <pt x="193" y="443" on="0"/>
        <pt x="150" y="354" on="0"/>
        <pt x="150" y="264" on="1"/>
        <pt x="150" y="174" on="0"/>
        <pt x="189" y="80" on="0"/>
        <pt x="228" y="80" on="1"/>
      </contour>
    </TTGlyph>
    <TTGlyph name="dagger" xMin="37" yMin="-140" xMax="390" yMax="702">
      <contour>
        <pt x="172" y="-140" on="0"/>
        <pt x="172" y="-115" on="1"/>
        <pt x="172" y="419" on="1"/>
        <pt x="59" y="419" on="1"/>
        <pt x="48" y="419" on="0"/>
        <pt x="37" y="435" on="0"/>
        <pt x="37" y="454" on="1"/>
        <pt x="37" y="471" on="1"/>
        <pt x="37" y="490" on="0"/>
        <pt x="48" y="506" on="0"/>
        <pt x="59" y="506" on="1"/>
        <pt x="172" y="506" on="1"/>
        <pt x="172" y="677" on="1"/>
        <pt x="172" y="702" on="0"/>
        <pt x="209" y="702" on="1"/>
        <pt x="219" y="702" on="1"/>
        <pt x="257" y="702" on="0"/>
        <pt x="257" y="677" on="1"/>
        <pt x="257" y="506" on="1"/>
        <pt x="368" y="506" on="1"/>
        <pt x="380" y="506" on="0"/>
        <pt x="390" y="490" on="0"/>
        <pt x="390" y="471" on="1"/>
        <pt x="390" y="454" on="1"/>
        <pt x="390" y="435" on="0"/>
        <pt x="380" y="419" on="0"/>
        <pt x="368" y="419" on="1"/>
        <pt x="257" y="419" on="1"/>
        <pt x="257" y="-115" on="1"/>
        <pt x="257" y="-140" on="0"/>
        <pt x="219" y="-140" on="1"/>
        <pt x="209" y="-140" on="1"/>
      </contour>
    </TTGlyph>
    <TTGlyph name="daggerdbl" xMin="37" yMin="-140" xMax="390" yMax="702">
      <contour>
        <pt x="172" y="-140" on="0"/>
        <pt x="172" y="-115" on="1"/>
        <pt x="172" y="55" on="1"/>
        <pt x="59" y="55" on="1"/>
        <pt x="37" y="55" on="0"/>
        <pt x="37" y="91" on="1"/>
        <pt x="37" y="107" on="1"/>
        <pt x="37" y="143" on="0"/>
        <pt x="59" y="143" on="1"/>
        <pt x="172" y="143" on="1"/>
        <pt x="172" y="419" on="1"/>
        <pt x="59" y="419" on="1"/>
        <pt x="48" y="419" on="0"/>
        <pt x="37" y="435" on="0"/>
        <pt x="37" y="454" on="1"/>
        <pt x="37" y="471" on="1"/>
        <pt x="37" y="490" on="0"/>
        <pt x="48" y="506" on="0"/>
        <pt x="59" y="506" on="1"/>
        <pt x="172" y="506" on="1"/>
        <pt x="172" y="677" on="1"/>
        <pt x="172" y="702" on="0"/>
        <pt x="209" y="702" on="1"/>
        <pt x="219" y="702" on="1"/>
        <pt x="257" y="702" on="0"/>
        <pt x="257" y="677" on="1"/>
        <pt x="257" y="506" on="1"/>
        <pt x="368" y="506" on="1"/>
        <pt x="380" y="506" on="0"/>
        <pt x="390" y="490" on="0"/>
        <pt x="390" y="471" on="1"/>
        <pt x="390" y="454" on="1"/>
        <pt x="390" y="435" on="0"/>
        <pt x="380" y="419" on="0"/>
        <pt x="368" y="419" on="1"/>
        <pt x="257" y="419" on="1"/>
        <pt x="257" y="143" on="1"/>
        <pt x="368" y="143" on="1"/>
        <pt x="380" y="143" on="0"/>
        <pt x="390" y="126" on="0"/>
        <pt x="390" y="107" on="1"/>
        <pt x="390" y="91" on="1"/>
        <pt x="390" y="72" on="0"/>
        <pt x="380" y="55" on="0"/>
        <pt x="368" y="55" on="1"/>
        <pt x="257" y="55" on="1"/>
        <pt x="257" y="-115" on="1"/>
        <pt x="257" y="-140" on="0"/>
        <pt x="219" y="-140" on="1"/>
        <pt x="209" y="-140" on="1"/>
      </contour>
    </TTGlyph>
    <TTGlyph name="dcaron" xMin="44" yMin="-7" xMax="550" yMax="753">
      <component glyphName="d" x="0" y="0" flags="0x0"/>
      <component glyphName="caron.alt" x="398" y="0" flags="0x0"/>
    </TTGlyph>
    <TTGlyph name="dcroat" xMin="44" yMin="-7" xMax="478" yMax="753">
      <contour>
        <pt x="466" y="671" on="0"/>
        <pt x="478" y="655" on="0"/>
        <pt x="478" y="638" on="1"/>
        <pt x="478" y="627" on="1"/>
        <pt x="478" y="610" on="0"/>
        <pt x="466" y="594" on="0"/>
        <pt x="453" y="594" on="1"/>
        <pt x="412" y="594" on="1"/>
        <pt x="412" y="156" on="1"/>
        <pt x="412" y="91" on="0"/>
        <pt x="423" y="30" on="0"/>
        <pt x="423" y="24" on="1"/>
        <pt x="423" y="12" on="0"/>
        <pt x="369" y="-1" on="0"/>
        <pt x="349" y="-1" on="1"/>
        <pt x="332" y="-1" on="0"/>
        <pt x="319" y="32" on="0"/>
        <pt x="314" y="67" on="1"/>
        <pt x="293" y="31" on="0"/>
        <pt x="234" y="-7" on="0"/>
        <pt x="199" y="-7" on="1"/>
        <pt x="152" y="-7" on="0"/>
        <pt x="82" y="60" on="0"/>
        <pt x="44" y="182" on="0"/>
        <pt x="44" y="264" on="1"/>
        <pt x="44" y="390" on="0"/>
        <pt x="133" y="530" on="0"/>
        <pt x="209" y="530" on="1"/>
        <pt x="267" y="530" on="0"/>
        <pt x="308" y="485" on="1"/>
        <pt x="308" y="594" on="1"/>
        <pt x="227" y="594" on="1"/>
        <pt x="202" y="594" on="0"/>
        <pt x="202" y="627" on="1"/>
        <pt x="202" y="638" on="1"/>
        <pt x="202" y="671" on="0"/>
        <pt x="227" y="671" on="1"/>
        <pt x="308" y="671" on="1"/>
        <pt x="308" y="728" on="1"/>
        <pt x="308" y="753" on="0"/>
        <pt x="352" y="753" on="1"/>
        <pt x="368" y="753" on="1"/>
        <pt x="412" y="753" on="0"/>
        <pt x="412" y="728" on="1"/>
        <pt x="412" y="671" on="1"/>
        <pt x="453" y="671" on="1"/>
      </contour>
      <contour>
        <pt x="308" y="407" on="1"/>
        <pt x="278" y="443" on="0"/>
        <pt x="237" y="443" on="1"/>
        <pt x="193" y="443" on="0"/>
        <pt x="150" y="354" on="0"/>
        <pt x="150" y="264" on="1"/>
        <pt x="150" y="174" on="0"/>
        <pt x="189" y="80" on="0"/>
        <pt x="228" y="80" on="1"/>
        <pt x="250" y="80" on="0"/>
        <pt x="292" y="112" on="0"/>
        <pt x="308" y="141" on="1"/>
      </contour>
    </TTGlyph>
    <TTGlyph name="degree" xMin="31" yMin="442" xMax="243" yMax="707">
      <contour>
        <pt x="90" y="442" on="0"/>
        <pt x="31" y="512" on="0"/>
        <pt x="31" y="574" on="1"/>
        <pt x="31" y="636" on="0"/>
        <pt x="90" y="707" on="0"/>
        <pt x="137" y="707" on="1"/>
        <pt x="184" y="707" on="0"/>
        <pt x="243" y="636" on="0"/>
        <pt x="243" y="574" on="1"/>
        <pt x="243" y="512" on="0"/>
        <pt x="184" y="442" on="0"/>
        <pt x="137" y="442" on="1"/>
      </contour>
      <contour>
        <pt x="160" y="491" on="0"/>
        <pt x="189" y="534" on="0"/>
        <pt x="189" y="574" on="1"/>
        <pt x="189" y="613" on="0"/>
        <pt x="160" y="657" on="0"/>
        <pt x="136" y="657" on="1"/>
        <pt x="112" y="657" on="0"/>
        <pt x="83" y="613" on="0"/>
        <pt x="83" y="574" on="1"/>
        <pt x="83" y="534" on="0"/>
        <pt x="112" y="491" on="0"/>
        <pt x="136" y="491" on="1"/>
      </contour>
    </TTGlyph>
    <TTGlyph name="dieresis" xMin="17" yMin="599" xMax="241" yMax="702">
      <contour>
        <pt x="17" y="599" on="0"/>
        <pt x="17" y="624" on="1"/>
        <pt x="17" y="677" on="1"/>
        <pt x="17" y="702" on="0"/>
        <pt x="61" y="702" on="1"/>
        <pt x="105" y="702" on="0"/>
        <pt x="105" y="677" on="1"/>
        <pt x="105" y="624" on="1"/>
        <pt x="105" y="599" on="0"/>
        <pt x="60" y="599" on="1"/>
      </contour>
      <contour>
        <pt x="153" y="599" on="0"/>
        <pt x="153" y="624" on="1"/>
        <pt x="153" y="677" on="1"/>
        <pt x="153" y="702" on="0"/>
        <pt x="198" y="702" on="1"/>
        <pt x="241" y="702" on="0"/>
        <pt x="241" y="677" on="1"/>
        <pt x="241" y="624" on="1"/>
        <pt x="241" y="599" on="0"/>
        <pt x="197" y="599" on="1"/>
      </contour>
    </TTGlyph>
    <TTGlyph name="divide" xMin="27" yMin="-2" xMax="422" yMax="460">
      <contour>
        <pt x="176" y="354" on="0"/>
        <pt x="176" y="378" on="1"/>
        <pt x="176" y="435" on="1"/>
        <pt x="176" y="460" on="0"/>
        <pt x="220" y="460" on="1"/>
        <pt x="227" y="460" on="1"/>
        <pt x="271" y="460" on="0"/>
        <pt x="271" y="435" on="1"/>
        <pt x="271" y="378" on="1"/>
        <pt x="271" y="354" on="0"/>
        <pt x="227" y="354" on="1"/>
        <pt x="220" y="354" on="1"/>
      </contour>
      <contour>
        <pt x="27" y="190" on="0"/>
        <pt x="27" y="226" on="1"/>
        <pt x="27" y="233" on="1"/>
        <pt x="27" y="268" on="0"/>
        <pt x="51" y="268" on="1"/>
        <pt x="398" y="268" on="1"/>
        <pt x="411" y="268" on="0"/>
        <pt x="422" y="251" on="0"/>
        <pt x="422" y="233" on="1"/>
        <pt x="422" y="226" on="1"/>
        <pt x="422" y="190" on="0"/>
        <pt x="398" y="190" on="1"/>
        <pt x="51" y="190" on="1"/>
      </contour>
      <contour>
        <pt x="176" y="-2" on="0"/>
        <pt x="176" y="23" on="1"/>
        <pt x="176" y="80" on="1"/>
        <pt x="176" y="105" on="0"/>
        <pt x="220" y="105" on="1"/>
        <pt x="227" y="105" on="1"/>
        <pt x="271" y="105" on="0"/>
        <pt x="271" y="80" on="1"/>
        <pt x="271" y="23" on="1"/>
        <pt x="271" y="-2" on="0"/>
        <pt x="227" y="-2" on="1"/>
        <pt x="220" y="-2" on="1"/>
      </contour>
    </TTGlyph>
    <TTGlyph name="dollar" xMin="29" yMin="-72" xMax="411" yMax="760">
      <contour>
        <pt x="213" y="-72" on="0"/>
        <pt x="205" y="-64" on="0"/>
        <pt x="205" y="-55" on="1"/>
        <pt x="205" y="-6" on="1"/>
        <pt x="117" y="-6" on="0"/>
        <pt x="59" y="31" on="1"/>
        <pt x="46" y="38" on="0"/>
        <pt x="31" y="53" on="0"/>
        <pt x="31" y="65" on="1"/>
        <pt x="29" y="86" on="0"/>
        <pt x="46" y="133" on="0"/>
        <pt x="59" y="133" on="1"/>
        <pt x="63" y="133" on="0"/>
        <pt x="69" y="129" on="0"/>
        <pt x="71" y="128" on="1"/>
        <pt x="100" y="107" on="0"/>
        <pt x="165" y="88" on="0"/>
        <pt x="205" y="88" on="1"/>
        <pt x="205" y="309" on="1"/>
        <pt x="152" y="334" on="0"/>
        <pt x="83" y="381" on="0"/>
        <pt x="39" y="457" on="0"/>
        <pt x="39" y="514" on="1"/>
        <pt x="39" y="593" on="0"/>
        <pt x="129" y="696" on="0"/>
        <pt x="205" y="707" on="1"/>
        <pt x="205" y="743" on="1"/>
        <pt x="205" y="745" on="1"/>
        <pt x="205" y="760" on="0"/>
        <pt x="223" y="760" on="1"/>
        <pt x="229" y="760" on="1"/>
        <pt x="239" y="760" on="0"/>
        <pt x="247" y="752" on="0"/>
        <pt x="247" y="743" on="1"/>
        <pt x="247" y="710" on="1"/>
        <pt x="322" y="708" on="0"/>
        <pt x="368" y="681" on="1"/>
        <pt x="379" y="674" on="0"/>
        <pt x="381" y="662" on="1"/>
        <pt x="382" y="645" on="0"/>
        <pt x="363" y="593" on="0"/>
        <pt x="351" y="593" on="1"/>
        <pt x="347" y="593" on="0"/>
        <pt x="332" y="598" on="1"/>
        <pt x="293" y="616" on="0"/>
        <pt x="248" y="616" on="1"/>
        <pt x="247" y="402" on="1"/>
        <pt x="254" y="398" on="1"/>
        <pt x="305" y="373" on="0"/>
        <pt x="367" y="329" on="0"/>
        <pt x="411" y="254" on="0"/>
        <pt x="411" y="197" on="1"/>
        <pt x="411" y="116" on="0"/>
        <pt x="323" y="12" on="0"/>
        <pt x="247" y="-2" on="1"/>
        <pt x="247" y="-55" on="1"/>
        <pt x="247" y="-64" on="0"/>
        <pt x="239" y="-72" on="0"/>
        <pt x="229" y="-72" on="1"/>
        <pt x="223" y="-72" on="1"/>
      </contour>
      <contour>
        <pt x="205" y="610" on="1"/>
        <pt x="174" y="600" on="0"/>
        <pt x="140" y="554" on="0"/>
        <pt x="140" y="520" on="1"/>
        <pt x="141" y="489" on="0"/>
        <pt x="174" y="443" on="0"/>
        <pt x="205" y="424" on="1"/>
      </contour>
      <contour>
        <pt x="276" y="106" on="0"/>
        <pt x="310" y="155" on="0"/>
        <pt x="310" y="190" on="1"/>
        <pt x="310" y="225" on="0"/>
        <pt x="277" y="269" on="0"/>
        <pt x="247" y="286" on="1"/>
        <pt x="247" y="96" on="1"/>
      </contour>
    </TTGlyph>
    <TTGlyph name="dotaccent" xMin="78" yMin="599" xMax="182" yMax="702">
      <contour>
        <pt x="78" y="599" on="0"/>
        <pt x="78" y="624" on="1"/>
        <pt x="78" y="677" on="1"/>
        <pt x="78" y="702" on="0"/>
        <pt x="130" y="702" on="1"/>
        <pt x="182" y="702" on="0"/>
        <pt x="182" y="677" on="1"/>
        <pt x="182" y="624" on="1"/>
        <pt x="182" y="599" on="0"/>
        <pt x="130" y="599" on="1"/>
      </contour>
    </TTGlyph>
    <TTGlyph name="dotbelowcomb" xMin="-48" yMin="-183" xMax="56" yMax="-80">
      <contour>
        <pt x="-48" y="-183" on="0"/>
        <pt x="-48" y="-158" on="1"/>
        <pt x="-48" y="-105" on="1"/>
        <pt x="-48" y="-80" on="0"/>
        <pt x="4" y="-80" on="1"/>
        <pt x="56" y="-80" on="0"/>
        <pt x="56" y="-105" on="1"/>
        <pt x="56" y="-158" on="1"/>
        <pt x="56" y="-183" on="0"/>
        <pt x="4" y="-183" on="1"/>
      </contour>
    </TTGlyph>
    <TTGlyph name="dotlessi" xMin="76" yMin="-2" xMax="178" yMax="525">
      <contour>
        <pt x="76" y="-2" on="0"/>
        <pt x="76" y="23" on="1"/>
        <pt x="76" y="500" on="1"/>
        <pt x="76" y="525" on="0"/>
        <pt x="122" y="525" on="1"/>
        <pt x="132" y="525" on="1"/>
        <pt x="178" y="525" on="0"/>
        <pt x="178" y="500" on="1"/>
        <pt x="178" y="23" on="1"/>
        <pt x="178" y="-2" on="0"/>
        <pt x="132" y="-2" on="1"/>
        <pt x="122" y="-2" on="1"/>
      </contour>
    </TTGlyph>
    <TTGlyph name="e" xMin="43" yMin="-7" xMax="422" yMax="530">
      <contour>
        <pt x="149" y="-7" on="0"/>
        <pt x="43" y="125" on="0"/>
        <pt x="43" y="258" on="1"/>
        <pt x="43" y="395" on="0"/>
        <pt x="146" y="530" on="0"/>
        <pt x="243" y="530" on="1"/>
        <pt x="333" y="530" on="0"/>
        <pt x="422" y="395" on="0"/>
        <pt x="422" y="266" on="1"/>
        <pt x="422" y="256" on="0"/>
        <pt x="392" y="220" on="0"/>
        <pt x="383" y="220" on="1"/>
        <pt x="151" y="220" on="1"/>
        <pt x="155" y="145" on="0"/>
        <pt x="206" y="78" on="0"/>
        <pt x="258" y="78" on="1"/>
        <pt x="291" y="78" on="0"/>
        <pt x="335" y="96" on="0"/>
        <pt x="366" y="117" on="0"/>
        <pt x="369" y="117" on="1"/>
        <pt x="381" y="117" on="0"/>
        <pt x="409" y="71" on="0"/>
        <pt x="409" y="59" on="1"/>
        <pt x="409" y="44" on="0"/>
        <pt x="364" y="13" on="0"/>
        <pt x="293" y="-7" on="0"/>
        <pt x="257" y="-7" on="1"/>
      </contour>
      <contour>
        <pt x="319" y="297" on="1"/>
        <pt x="319" y="373" on="0"/>
        <pt x="281" y="447" on="0"/>
        <pt x="241" y="447" on="1"/>
        <pt x="198" y="447" on="0"/>
        <pt x="154" y="375" on="0"/>
        <pt x="150" y="297" on="1"/>
      </contour>
    </TTGlyph>
    <TTGlyph name="eacute" xMin="43" yMin="-7" xMax="422" yMax="733">
      <component glyphName="e" x="0" y="0" flags="0x0"/>
      <component glyphName="acutecomb" x="326" y="0" flags="0x0"/>
    </TTGlyph>
    <TTGlyph name="ebreve" xMin="43" yMin="-7" xMax="422" yMax="715">
      <component glyphName="e" x="0" y="0" flags="0x0"/>
      <component glyphName="uni0306" x="230" y="0" flags="0x0"/>
    </TTGlyph>
    <TTGlyph name="ecaron" xMin="43" yMin="-7" xMax="422" yMax="723">
      <component glyphName="e" x="0" y="0" flags="0x0"/>
      <component glyphName="uni030C" x="226" y="0" flags="0x0"/>
    </TTGlyph>
    <TTGlyph name="ecircumflex" xMin="43" yMin="-7" xMax="422" yMax="718">
      <component glyphName="e" x="0" y="0" flags="0x0"/>
      <component glyphName="uni0302" x="229" y="0" flags="0x0"/>
    </TTGlyph>
    <TTGlyph name="edieresis" xMin="43" yMin="-7" xMax="422" yMax="702">
      <component glyphName="e" x="0" y="0" flags="0x0"/>
      <component glyphName="uni0308" x="233" y="0" flags="0x0"/>
    </TTGlyph>
    <TTGlyph name="edotaccent" xMin="43" yMin="-7" xMax="422" yMax="702">
      <component glyphName="e" x="0" y="0" flags="0x0"/>
      <component glyphName="uni0307" x="231" y="0" flags="0x0"/>
    </TTGlyph>
    <TTGlyph name="egrave" xMin="43" yMin="-7" xMax="422" yMax="733">
      <component glyphName="e" x="0" y="0" flags="0x0"/>
      <component glyphName="gravecomb" x="230" y="0" flags="0x0"/>
    </TTGlyph>
    <TTGlyph name="eight" xMin="36" yMin="-7" xMax="425" yMax="707">
      <contour>
        <pt x="142" y="-7" on="0"/>
        <pt x="36" y="99" on="0"/>
        <pt x="36" y="194" on="1"/>
        <pt x="36" y="322" on="0"/>
        <pt x="134" y="373" on="1"/>
        <pt x="97" y="399" on="0"/>
        <pt x="56" y="473" on="0"/>
        <pt x="56" y="529" on="1"/>
        <pt x="56" y="613" on="0"/>
        <pt x="154" y="707" on="0"/>
        <pt x="233" y="707" on="1"/>
        <pt x="309" y="707" on="0"/>
        <pt x="409" y="617" on="0"/>
        <pt x="409" y="536" on="1"/>
        <pt x="409" y="425" on="0"/>
        <pt x="320" y="377" on="1"/>
        <pt x="369" y="349" on="0"/>
        <pt x="425" y="267" on="0"/>
        <pt x="425" y="196" on="1"/>
        <pt x="425" y="104" on="0"/>
        <pt x="320" y="-7" on="0"/>
        <pt x="230" y="-7" on="1"/>
      </contour>
      <contour>
        <pt x="311" y="461" on="0"/>
        <pt x="311" y="532" on="1"/>
        <pt x="311" y="576" on="0"/>
        <pt x="266" y="622" on="0"/>
        <pt x="232" y="622" on="1"/>
        <pt x="199" y="622" on="0"/>
        <pt x="155" y="577" on="0"/>
        <pt x="155" y="534" on="1"/>
        <pt x="155" y="490" on="0"/>
        <pt x="201" y="441" on="0"/>
        <pt x="245" y="418" on="1"/>
      </contour>
      <contour>
        <pt x="271" y="78" on="0"/>
        <pt x="323" y="143" on="0"/>
        <pt x="323" y="194" on="1"/>
        <pt x="323" y="232" on="0"/>
        <pt x="292" y="282" on="0"/>
        <pt x="247" y="311" on="0"/>
        <pt x="206" y="331" on="1"/>
        <pt x="173" y="308" on="0"/>
        <pt x="138" y="246" on="0"/>
        <pt x="138" y="199" on="1"/>
        <pt x="138" y="139" on="0"/>
        <pt x="189" y="78" on="0"/>
        <pt x="230" y="78" on="1"/>
      </contour>
    </TTGlyph>
    <TTGlyph name="ellipsis" xMin="39" yMin="-2" xMax="513" yMax="121">
      <contour>
        <pt x="39" y="-2" on="0"/>
        <pt x="39" y="23" on="1"/>
        <pt x="39" y="96" on="1"/>
        <pt x="39" y="121" on="0"/>
        <pt x="83" y="121" on="1"/>
        <pt x="103" y="121" on="1"/>
        <pt x="147" y="121" on="0"/>
        <pt x="147" y="96" on="1"/>
        <pt x="147" y="23" on="1"/>
        <pt x="147" y="-2" on="0"/>
        <pt x="103" y="-2" on="1"/>
        <pt x="83" y="-2" on="1"/>
      </contour>
      <contour>
        <pt x="222" y="-2" on="0"/>
        <pt x="222" y="23" on="1"/>
        <pt x="222" y="96" on="1"/>
        <pt x="222" y="121" on="0"/>
        <pt x="266" y="121" on="1"/>
        <pt x="286" y="121" on="1"/>
        <pt x="330" y="121" on="0"/>
        <pt x="330" y="96" on="1"/>
        <pt x="330" y="23" on="1"/>
        <pt x="330" y="-2" on="0"/>
        <pt x="286" y="-2" on="1"/>
        <pt x="266" y="-2" on="1"/>
      </contour>
      <contour>
        <pt x="405" y="-2" on="0"/>
        <pt x="405" y="23" on="1"/>
        <pt x="405" y="96" on="1"/>
        <pt x="405" y="121" on="0"/>
        <pt x="448" y="121" on="1"/>
        <pt x="469" y="121" on="1"/>
        <pt x="513" y="121" on="0"/>
        <pt x="513" y="96" on="1"/>
        <pt x="513" y="23" on="1"/>
        <pt x="513" y="-2" on="0"/>
        <pt x="469" y="-2" on="1"/>
        <pt x="448" y="-2" on="1"/>
      </contour>
    </TTGlyph>
    <TTGlyph name="emacron" xMin="43" yMin="-7" xMax="422" yMax="685">
      <component glyphName="e" x="0" y="0" flags="0x0"/>
      <component glyphName="uni0304" x="235" y="0" flags="0x0"/>
    </TTGlyph>
    <TTGlyph name="emdash" xMin="0" yMin="225" xMax="886" yMax="305">
      <contour>
        <pt x="0" y="225" on="0"/>
        <pt x="0" y="261" on="1"/>
        <pt x="0" y="270" on="1"/>
        <pt x="0" y="289" on="0"/>
        <pt x="11" y="305" on="0"/>
        <pt x="22" y="305" on="1"/>
        <pt x="864" y="305" on="1"/>
        <pt x="875" y="305" on="0"/>
        <pt x="886" y="289" on="0"/>
        <pt x="886" y="270" on="1"/>
        <pt x="886" y="261" on="1"/>
        <pt x="886" y="225" on="0"/>
        <pt x="864" y="225" on="1"/>
        <pt x="22" y="225" on="1"/>
      </contour>
    </TTGlyph>
    <TTGlyph name="endash" xMin="0" yMin="225" xMax="443" yMax="305">
      <contour>
        <pt x="0" y="225" on="0"/>
        <pt x="0" y="261" on="1"/>
        <pt x="0" y="270" on="1"/>
        <pt x="0" y="289" on="0"/>
        <pt x="11" y="305" on="0"/>
        <pt x="22" y="305" on="1"/>
        <pt x="421" y="305" on="1"/>
        <pt x="432" y="305" on="0"/>
        <pt x="443" y="289" on="0"/>
        <pt x="443" y="270" on="1"/>
        <pt x="443" y="261" on="1"/>
        <pt x="443" y="225" on="0"/>
        <pt x="421" y="225" on="1"/>
        <pt x="22" y="225" on="1"/>
      </contour>
    </TTGlyph>
    <TTGlyph name="eng" xMin="60" yMin="-212" xMax="420" yMax="530">
      <contour>
        <pt x="224" y="-212" on="0"/>
        <pt x="224" y="-176" on="1"/>
        <pt x="224" y="-163" on="0"/>
        <pt x="237" y="-122" on="0"/>
        <pt x="247" y="-122" on="1"/>
        <pt x="251" y="-122" on="0"/>
        <pt x="269" y="-127" on="0"/>
        <pt x="282" y="-127" on="1"/>
        <pt x="298" y="-127" on="0"/>
        <pt x="315" y="-100" on="0"/>
        <pt x="315" y="-66" on="1"/>
        <pt x="315" y="363" on="1"/>
        <pt x="315" y="442" on="0"/>
        <pt x="254" y="442" on="1"/>
        <pt x="230" y="442" on="0"/>
        <pt x="188" y="410" on="0"/>
        <pt x="174" y="383" on="1"/>
        <pt x="174" y="23" on="1"/>
        <pt x="174" y="-2" on="0"/>
        <pt x="131" y="-2" on="1"/>
        <pt x="113" y="-2" on="1"/>
        <pt x="70" y="-2" on="0"/>
        <pt x="70" y="23" on="1"/>
        <pt x="70" y="366" on="1"/>
        <pt x="70" y="432" on="0"/>
        <pt x="60" y="492" on="0"/>
        <pt x="60" y="496" on="1"/>
        <pt x="60" y="509" on="0"/>
        <pt x="115" y="522" on="0"/>
        <pt x="134" y="522" on="1"/>
        <pt x="150" y="522" on="0"/>
        <pt x="161" y="497" on="0"/>
        <pt x="167" y="462" on="0"/>
        <pt x="168" y="454" on="1"/>
        <pt x="191" y="489" on="0"/>
        <pt x="257" y="530" on="0"/>
        <pt x="296" y="530" on="1"/>
        <pt x="356" y="530" on="0"/>
        <pt x="420" y="450" on="0"/>
        <pt x="420" y="378" on="1"/>
        <pt x="420" y="-71" on="1"/>
        <pt x="420" y="-147" on="0"/>
        <pt x="350" y="-212" on="0"/>
        <pt x="302" y="-212" on="1"/>
      </contour>
    </TTGlyph>
    <TTGlyph name="eogonek" xMin="43" yMin="-171" xMax="449" yMax="530">
      <contour>
        <pt x="449" y="-100" on="0"/>
        <pt x="449" y="-126" on="1"/>
        <pt x="449" y="-145" on="0"/>
        <pt x="435" y="-154" on="1"/>
        <pt x="408" y="-171" on="0"/>
        <pt x="371" y="-171" on="1"/>
        <pt x="316" y="-171" on="0"/>
        <pt x="278" y="-113" on="0"/>
        <pt x="278" y="-81" on="1"/>
        <pt x="278" y="-43" on="0"/>
        <pt x="297" y="-4" on="1"/>
        <pt x="278" y="-7" on="0"/>
        <pt x="257" y="-7" on="1"/>
        <pt x="149" y="-7" on="0"/>
        <pt x="43" y="125" on="0"/>
        <pt x="43" y="258" on="1"/>
        <pt x="43" y="395" on="0"/>
        <pt x="146" y="530" on="0"/>
        <pt x="243" y="530" on="1"/>
        <pt x="333" y="530" on="0"/>
        <pt x="422" y="395" on="0"/>
        <pt x="422" y="266" on="1"/>
        <pt x="422" y="256" on="0"/>
        <pt x="392" y="220" on="0"/>
        <pt x="383" y="220" on="1"/>
        <pt x="151" y="220" on="1"/>
        <pt x="155" y="145" on="0"/>
        <pt x="206" y="78" on="0"/>
        <pt x="258" y="78" on="1"/>
        <pt x="291" y="78" on="0"/>
        <pt x="335" y="96" on="0"/>
        <pt x="366" y="117" on="0"/>
        <pt x="369" y="117" on="1"/>
        <pt x="381" y="117" on="0"/>
        <pt x="409" y="71" on="0"/>
        <pt x="409" y="59" on="1"/>
        <pt x="409" y="48" on="0"/>
        <pt x="385" y="25" on="0"/>
        <pt x="364" y="16" on="1"/>
        <pt x="353" y="-5" on="0"/>
        <pt x="341" y="-47" on="0"/>
        <pt x="341" y="-63" on="1"/>
        <pt x="341" y="-88" on="0"/>
        <pt x="369" y="-106" on="0"/>
        <pt x="390" y="-106" on="1"/>
        <pt x="398" y="-106" on="0"/>
        <pt x="423" y="-100" on="0"/>
        <pt x="426" y="-100" on="1"/>
      </contour>
      <contour>
        <pt x="198" y="447" on="0"/>
        <pt x="154" y="375" on="0"/>
        <pt x="150" y="297" on="1"/>
        <pt x="319" y="297" on="1"/>
        <pt x="319" y="373" on="0"/>
        <pt x="281" y="447" on="0"/>
        <pt x="241" y="447" on="1"/>
      </contour>
    </TTGlyph>
    <TTGlyph name="equal" xMin="35" yMin="153" xMax="414" yMax="296">
      <contour>
        <pt x="414" y="253" on="1"/>
        <pt x="414" y="233" on="0"/>
        <pt x="407" y="225" on="1"/>
        <pt x="414" y="218" on="0"/>
        <pt x="414" y="197" on="1"/>
        <pt x="414" y="189" on="1"/>
        <pt x="414" y="153" on="0"/>
        <pt x="391" y="153" on="1"/>
        <pt x="59" y="153" on="1"/>
        <pt x="35" y="153" on="0"/>
        <pt x="35" y="189" on="1"/>
        <pt x="35" y="197" on="1"/>
        <pt x="35" y="218" on="0"/>
        <pt x="42" y="225" on="1"/>
        <pt x="35" y="233" on="0"/>
        <pt x="35" y="253" on="1"/>
        <pt x="35" y="260" on="1"/>
        <pt x="35" y="279" on="0"/>
        <pt x="46" y="296" on="0"/>
        <pt x="59" y="296" on="1"/>
        <pt x="391" y="296" on="1"/>
        <pt x="403" y="296" on="0"/>
        <pt x="414" y="279" on="0"/>
        <pt x="414" y="260" on="1"/>
      </contour>
    </TTGlyph>
    <TTGlyph name="estimated" xMin="22" yMin="-7" xMax="593" yMax="707">
      <contour>
        <pt x="155" y="116" on="1"/>
        <pt x="187" y="83" on="0"/>
        <pt x="272" y="48" on="0"/>
        <pt x="320" y="48" on="1"/>
        <pt x="367" y="48" on="0"/>
        <pt x="464" y="93" on="0"/>
        <pt x="492" y="131" on="1"/>
        <pt x="502" y="146" on="0"/>
        <pt x="513" y="146" on="1"/>
        <pt x="525" y="146" on="0"/>
        <pt x="543" y="128" on="0"/>
        <pt x="543" y="118" on="1"/>
        <pt x="543" y="110" on="0"/>
        <pt x="533" y="97" on="1"/>
        <pt x="491" y="48" on="0"/>
        <pt x="380" y="-7" on="0"/>
        <pt x="320" y="-7" on="1"/>
        <pt x="237" y="-7" on="0"/>
        <pt x="102" y="79" on="0"/>
        <pt x="22" y="243" on="0"/>
        <pt x="22" y="355" on="1"/>
        <pt x="22" y="465" on="0"/>
        <pt x="99" y="624" on="0"/>
        <pt x="231" y="707" on="0"/>
        <pt x="312" y="707" on="1"/>
        <pt x="390" y="707" on="0"/>
        <pt x="518" y="624" on="0"/>
        <pt x="593" y="465" on="0"/>
        <pt x="593" y="355" on="1"/>
        <pt x="155" y="355" on="1"/>
      </contour>
      <contour>
        <pt x="266" y="657" on="0"/>
        <pt x="186" y="623" on="0"/>
        <pt x="155" y="590" on="1"/>
        <pt x="155" y="405" on="1"/>
        <pt x="464" y="405" on="1"/>
        <pt x="464" y="589" on="1"/>
        <pt x="434" y="622" on="0"/>
        <pt x="355" y="657" on="0"/>
        <pt x="312" y="657" on="1"/>
      </contour>
    </TTGlyph>
    <TTGlyph name="eth" xMin="43" yMin="-7" xMax="434" yMax="714">
      <contour>
        <pt x="434" y="439" on="0"/>
        <pt x="434" y="261" on="1"/>
        <pt x="434" y="130" on="0"/>
        <pt x="335" y="-7" on="0"/>
        <pt x="239" y="-7" on="1"/>
        <pt x="143" y="-7" on="0"/>
        <pt x="43" y="130" on="0"/>
        <pt x="43" y="260" on="1"/>
        <pt x="43" y="389" on="0"/>
        <pt x="144" y="526" on="0"/>
        <pt x="239" y="526" on="1"/>
        <pt x="262" y="526" on="0"/>
        <pt x="281" y="522" on="1"/>
        <pt x="266" y="558" on="0"/>
        <pt x="241" y="602" on="1"/>
        <pt x="162" y="591" on="1"/>
        <pt x="150" y="591" on="0"/>
        <pt x="132" y="614" on="0"/>
        <pt x="132" y="626" on="1"/>
        <pt x="132" y="637" on="0"/>
        <pt x="149" y="640" on="1"/>
        <pt x="213" y="649" on="1"/>
        <pt x="202" y="664" on="0"/>
        <pt x="183" y="691" on="0"/>
        <pt x="183" y="697" on="1"/>
        <pt x="183" y="708" on="0"/>
        <pt x="200" y="711" on="1"/>
        <pt x="233" y="714" on="0"/>
        <pt x="237" y="714" on="1"/>
        <pt x="254" y="714" on="0"/>
        <pt x="267" y="703" on="1"/>
        <pt x="277" y="692" on="0"/>
        <pt x="302" y="660" on="1"/>
        <pt x="366" y="671" on="0"/>
        <pt x="377" y="671" on="1"/>
        <pt x="389" y="671" on="0"/>
        <pt x="405" y="645" on="0"/>
        <pt x="405" y="636" on="1"/>
        <pt x="405" y="623" on="0"/>
        <pt x="388" y="622" on="1"/>
        <pt x="332" y="615" on="1"/>
      </contour>
      <contour>
        <pt x="285" y="78" on="0"/>
        <pt x="328" y="166" on="0"/>
        <pt x="328" y="261" on="1"/>
        <pt x="328" y="355" on="0"/>
        <pt x="285" y="441" on="0"/>
        <pt x="238" y="441" on="1"/>
        <pt x="191" y="441" on="0"/>
        <pt x="149" y="355" on="0"/>
        <pt x="149" y="261" on="1"/>
        <pt x="149" y="166" on="0"/>
        <pt x="192" y="78" on="0"/>
        <pt x="238" y="78" on="1"/>
      </contour>
    </TTGlyph>
    <TTGlyph name="exclam" xMin="66" yMin="-2" xMax="196" yMax="702">
      <contour>
        <pt x="96" y="208" on="0"/>
        <pt x="80" y="220" on="0"/>
        <pt x="80" y="233" on="1"/>
        <pt x="80" y="677" on="1"/>
        <pt x="80" y="702" on="0"/>
        <pt x="124" y="702" on="1"/>
        <pt x="153" y="702" on="1"/>
        <pt x="174" y="702" on="0"/>
        <pt x="196" y="689" on="0"/>
        <pt x="196" y="678" on="1"/>
        <pt x="162" y="233" on="1"/>
        <pt x="160" y="220" on="0"/>
        <pt x="145" y="208" on="0"/>
        <pt x="125" y="208" on="1"/>
        <pt x="117" y="208" on="1"/>
      </contour>
      <contour>
        <pt x="66" y="-2" on="0"/>
        <pt x="66" y="23" on="1"/>
        <pt x="66" y="96" on="1"/>
        <pt x="66" y="121" on="0"/>
        <pt x="109" y="121" on="1"/>
        <pt x="132" y="121" on="1"/>
        <pt x="175" y="121" on="0"/>
        <pt x="175" y="96" on="1"/>
        <pt x="175" y="23" on="1"/>
        <pt x="175" y="-2" on="0"/>
        <pt x="132" y="-2" on="1"/>
        <pt x="109" y="-2" on="1"/>
      </contour>
    </TTGlyph>
    <TTGlyph name="exclamdown" xMin="51" yMin="-179" xMax="182" yMax="525">
      <contour>
        <pt x="72" y="402" on="0"/>
        <pt x="72" y="427" on="1"/>
        <pt x="72" y="500" on="1"/>
        <pt x="72" y="525" on="0"/>
        <pt x="116" y="525" on="1"/>
        <pt x="138" y="525" on="1"/>
        <pt x="182" y="525" on="0"/>
        <pt x="182" y="500" on="1"/>
        <pt x="182" y="427" on="1"/>
        <pt x="182" y="402" on="0"/>
        <pt x="138" y="402" on="1"/>
        <pt x="116" y="402" on="1"/>
      </contour>
      <contour>
        <pt x="51" y="-179" on="0"/>
        <pt x="51" y="-156" on="1"/>
        <pt x="51" y="-120" on="0"/>
        <pt x="87" y="290" on="1"/>
        <pt x="88" y="303" on="0"/>
        <pt x="102" y="315" on="0"/>
        <pt x="122" y="315" on="1"/>
        <pt x="131" y="315" on="1"/>
        <pt x="152" y="315" on="0"/>
        <pt x="167" y="303" on="0"/>
        <pt x="167" y="290" on="1"/>
        <pt x="167" y="-154" on="1"/>
        <pt x="167" y="-179" on="0"/>
        <pt x="124" y="-179" on="1"/>
        <pt x="94" y="-179" on="1"/>
      </contour>
    </TTGlyph>
    <TTGlyph name="f" xMin="41" yMin="-2" xMax="287" yMax="757">
      <contour>
        <pt x="88" y="-2" on="0"/>
        <pt x="88" y="23" on="1"/>
        <pt x="88" y="438" on="1"/>
        <pt x="64" y="438" on="1"/>
        <pt x="52" y="438" on="0"/>
        <pt x="41" y="455" on="0"/>
        <pt x="41" y="474" on="1"/>
        <pt x="41" y="487" on="1"/>
        <pt x="41" y="506" on="0"/>
        <pt x="52" y="523" on="0"/>
        <pt x="64" y="523" on="1"/>
        <pt x="88" y="523" on="1"/>
        <pt x="88" y="620" on="1"/>
        <pt x="88" y="695" on="0"/>
        <pt x="159" y="757" on="0"/>
        <pt x="210" y="757" on="1"/>
        <pt x="238" y="757" on="0"/>
        <pt x="287" y="739" on="0"/>
        <pt x="287" y="721" on="1"/>
        <pt x="287" y="710" on="0"/>
        <pt x="272" y="666" on="0"/>
        <pt x="262" y="666" on="1"/>
        <pt x="259" y="666" on="0"/>
        <pt x="239" y="672" on="0"/>
        <pt x="228" y="672" on="1"/>
        <pt x="209" y="672" on="0"/>
        <pt x="190" y="648" on="0"/>
        <pt x="190" y="615" on="1"/>
        <pt x="190" y="523" on="1"/>
        <pt x="247" y="523" on="1"/>
        <pt x="259" y="523" on="0"/>
        <pt x="270" y="506" on="0"/>
        <pt x="270" y="487" on="1"/>
        <pt x="270" y="474" on="1"/>
        <pt x="270" y="455" on="0"/>
        <pt x="259" y="438" on="0"/>
        <pt x="247" y="438" on="1"/>
        <pt x="190" y="438" on="1"/>
        <pt x="190" y="23" on="1"/>
        <pt x="190" y="-2" on="0"/>
        <pt x="144" y="-2" on="1"/>
        <pt x="134" y="-2" on="1"/>
      </contour>
    </TTGlyph>
    <TTGlyph name="f_f" xMin="41" yMin="-2" xMax="573" yMax="757">
      <contour>
        <pt x="545" y="523" on="0"/>
        <pt x="556" y="506" on="0"/>
        <pt x="556" y="487" on="1"/>
        <pt x="556" y="474" on="1"/>
        <pt x="556" y="455" on="0"/>
        <pt x="545" y="438" on="0"/>
        <pt x="533" y="438" on="1"/>
        <pt x="476" y="438" on="1"/>
        <pt x="476" y="23" on="1"/>
        <pt x="476" y="-2" on="0"/>
        <pt x="430" y="-2" on="1"/>
        <pt x="420" y="-2" on="1"/>
        <pt x="374" y="-2" on="0"/>
        <pt x="374" y="23" on="1"/>
        <pt x="374" y="438" on="1"/>
        <pt x="190" y="438" on="1"/>
        <pt x="190" y="23" on="1"/>
        <pt x="190" y="-2" on="0"/>
        <pt x="144" y="-2" on="1"/>
        <pt x="134" y="-2" on="1"/>
        <pt x="88" y="-2" on="0"/>
        <pt x="88" y="23" on="1"/>
        <pt x="88" y="438" on="1"/>
        <pt x="64" y="438" on="1"/>
        <pt x="52" y="438" on="0"/>
        <pt x="41" y="455" on="0"/>
        <pt x="41" y="474" on="1"/>
        <pt x="41" y="487" on="1"/>
        <pt x="41" y="506" on="0"/>
        <pt x="52" y="523" on="0"/>
        <pt x="64" y="523" on="1"/>
        <pt x="88" y="523" on="1"/>
        <pt x="88" y="620" on="1"/>
        <pt x="88" y="695" on="0"/>
        <pt x="159" y="757" on="0"/>
        <pt x="210" y="757" on="1"/>
        <pt x="238" y="757" on="0"/>
        <pt x="287" y="739" on="0"/>
        <pt x="287" y="721" on="1"/>
        <pt x="287" y="710" on="0"/>
        <pt x="272" y="666" on="0"/>
        <pt x="262" y="666" on="1"/>
        <pt x="259" y="666" on="0"/>
        <pt x="239" y="672" on="0"/>
        <pt x="228" y="672" on="1"/>
        <pt x="209" y="672" on="0"/>
        <pt x="190" y="648" on="0"/>
        <pt x="190" y="615" on="1"/>
        <pt x="190" y="523" on="1"/>
        <pt x="374" y="523" on="1"/>
        <pt x="374" y="620" on="1"/>
        <pt x="374" y="695" on="0"/>
        <pt x="445" y="757" on="0"/>
        <pt x="496" y="757" on="1"/>
        <pt x="524" y="757" on="0"/>
        <pt x="573" y="739" on="0"/>
        <pt x="573" y="721" on="1"/>
        <pt x="573" y="710" on="0"/>
        <pt x="558" y="666" on="0"/>
        <pt x="548" y="666" on="1"/>
        <pt x="545" y="666" on="0"/>
        <pt x="525" y="672" on="0"/>
        <pt x="514" y="672" on="1"/>
        <pt x="495" y="672" on="0"/>
        <pt x="476" y="648" on="0"/>
        <pt x="476" y="615" on="1"/>
        <pt x="476" y="523" on="1"/>
        <pt x="533" y="523" on="1"/>
      </contour>
    </TTGlyph>
    <TTGlyph name="f_t" xMin="41" yMin="-7" xMax="560" yMax="757">
      <contour>
        <pt x="547" y="83" on="0"/>
        <pt x="560" y="40" on="0"/>
        <pt x="560" y="28" on="1"/>
        <pt x="560" y="9" on="0"/>
        <pt x="510" y="-7" on="0"/>
        <pt x="483" y="-7" on="1"/>
        <pt x="435" y="-7" on="0"/>
        <pt x="367" y="54" on="0"/>
        <pt x="367" y="125" on="1"/>
        <pt x="367" y="438" on="1"/>
        <pt x="190" y="438" on="1"/>
        <pt x="190" y="23" on="1"/>
        <pt x="190" y="-2" on="0"/>
        <pt x="144" y="-2" on="1"/>
        <pt x="134" y="-2" on="1"/>
        <pt x="88" y="-2" on="0"/>
        <pt x="88" y="23" on="1"/>
        <pt x="88" y="438" on="1"/>
        <pt x="64" y="438" on="1"/>
        <pt x="52" y="438" on="0"/>
        <pt x="41" y="455" on="0"/>
        <pt x="41" y="474" on="1"/>
        <pt x="41" y="487" on="1"/>
        <pt x="41" y="506" on="0"/>
        <pt x="52" y="523" on="0"/>
        <pt x="64" y="523" on="1"/>
        <pt x="88" y="523" on="1"/>
        <pt x="88" y="620" on="1"/>
        <pt x="88" y="695" on="0"/>
        <pt x="159" y="757" on="0"/>
        <pt x="210" y="757" on="1"/>
        <pt x="238" y="757" on="0"/>
        <pt x="287" y="739" on="0"/>
        <pt x="287" y="721" on="1"/>
        <pt x="287" y="710" on="0"/>
        <pt x="272" y="666" on="0"/>
        <pt x="262" y="666" on="1"/>
        <pt x="259" y="666" on="0"/>
        <pt x="239" y="672" on="0"/>
        <pt x="228" y="672" on="1"/>
        <pt x="209" y="672" on="0"/>
        <pt x="190" y="648" on="0"/>
        <pt x="190" y="615" on="1"/>
        <pt x="190" y="523" on="1"/>
        <pt x="367" y="523" on="1"/>
        <pt x="380" y="625" on="1"/>
        <pt x="382" y="650" on="0"/>
        <pt x="418" y="650" on="1"/>
        <pt x="434" y="650" on="1"/>
        <pt x="470" y="650" on="0"/>
        <pt x="470" y="625" on="1"/>
        <pt x="470" y="523" on="1"/>
        <pt x="528" y="523" on="1"/>
        <pt x="540" y="523" on="0"/>
        <pt x="550" y="506" on="0"/>
        <pt x="550" y="487" on="1"/>
        <pt x="550" y="474" on="1"/>
        <pt x="550" y="455" on="0"/>
        <pt x="540" y="438" on="0"/>
        <pt x="528" y="438" on="1"/>
        <pt x="470" y="438" on="1"/>
        <pt x="470" y="133" on="1"/>
        <pt x="470" y="102" on="0"/>
        <pt x="488" y="78" on="0"/>
        <pt x="505" y="78" on="1"/>
        <pt x="515" y="78" on="0"/>
        <pt x="533" y="83" on="0"/>
        <pt x="537" y="83" on="1"/>
      </contour>
    </TTGlyph>
    <TTGlyph name="fi" xMin="41" yMin="-2" xMax="466" yMax="757">
      <contour>
        <pt x="464" y="523" on="0"/>
        <pt x="464" y="500" on="1"/>
        <pt x="464" y="23" on="1"/>
        <pt x="464" y="-2" on="0"/>
        <pt x="418" y="-2" on="1"/>
        <pt x="408" y="-2" on="1"/>
        <pt x="362" y="-2" on="0"/>
        <pt x="362" y="23" on="1"/>
        <pt x="362" y="438" on="1"/>
        <pt x="190" y="438" on="1"/>
        <pt x="190" y="23" on="1"/>
        <pt x="190" y="-2" on="0"/>
        <pt x="144" y="-2" on="1"/>
        <pt x="134" y="-2" on="1"/>
        <pt x="88" y="-2" on="0"/>
        <pt x="88" y="23" on="1"/>
        <pt x="88" y="438" on="1"/>
        <pt x="64" y="438" on="1"/>
        <pt x="52" y="438" on="0"/>
        <pt x="41" y="455" on="0"/>
        <pt x="41" y="474" on="1"/>
        <pt x="41" y="487" on="1"/>
        <pt x="41" y="506" on="0"/>
        <pt x="52" y="523" on="0"/>
        <pt x="64" y="523" on="1"/>
        <pt x="88" y="523" on="1"/>
        <pt x="88" y="620" on="1"/>
        <pt x="88" y="695" on="0"/>
        <pt x="159" y="757" on="0"/>
        <pt x="210" y="757" on="1"/>
        <pt x="238" y="757" on="0"/>
        <pt x="287" y="739" on="0"/>
        <pt x="287" y="721" on="1"/>
        <pt x="287" y="710" on="0"/>
        <pt x="272" y="666" on="0"/>
        <pt x="262" y="666" on="1"/>
        <pt x="259" y="666" on="0"/>
        <pt x="239" y="672" on="0"/>
        <pt x="228" y="672" on="1"/>
        <pt x="209" y="672" on="0"/>
        <pt x="190" y="648" on="0"/>
        <pt x="190" y="615" on="1"/>
        <pt x="190" y="523" on="1"/>
        <pt x="418" y="523" on="1"/>
      </contour>
      <contour>
        <pt x="466" y="702" on="0"/>
        <pt x="466" y="677" on="1"/>
        <pt x="466" y="624" on="1"/>
        <pt x="466" y="599" on="0"/>
        <pt x="414" y="599" on="1"/>
        <pt x="362" y="599" on="0"/>
        <pt x="362" y="624" on="1"/>
        <pt x="362" y="677" on="1"/>
        <pt x="362" y="702" on="0"/>
        <pt x="414" y="702" on="1"/>
      </contour>
    </TTGlyph>
    <TTGlyph name="five" xMin="32" yMin="-7" xMax="419" yMax="700">
      <contour>
        <pt x="153" y="-7" on="0"/>
        <pt x="76" y="12" on="0"/>
        <pt x="32" y="42" on="0"/>
        <pt x="32" y="57" on="1"/>
        <pt x="32" y="71" on="0"/>
        <pt x="62" y="115" on="0"/>
        <pt x="72" y="115" on="1"/>
        <pt x="78" y="115" on="0"/>
        <pt x="92" y="107" on="1"/>
        <pt x="117" y="94" on="0"/>
        <pt x="164" y="78" on="0"/>
        <pt x="197" y="78" on="1"/>
        <pt x="247" y="78" on="0"/>
        <pt x="315" y="149" on="0"/>
        <pt x="315" y="212" on="1"/>
        <pt x="315" y="276" on="0"/>
        <pt x="243" y="342" on="0"/>
        <pt x="172" y="342" on="1"/>
        <pt x="92" y="342" on="1"/>
        <pt x="74" y="342" on="0"/>
        <pt x="61" y="357" on="0"/>
        <pt x="61" y="375" on="1"/>
        <pt x="79" y="667" on="1"/>
        <pt x="80" y="684" on="0"/>
        <pt x="96" y="700" on="0"/>
        <pt x="113" y="700" on="1"/>
        <pt x="367" y="700" on="1"/>
        <pt x="379" y="700" on="0"/>
        <pt x="390" y="683" on="0"/>
        <pt x="390" y="664" on="1"/>
        <pt x="390" y="648" on="1"/>
        <pt x="390" y="631" on="0"/>
        <pt x="379" y="615" on="0"/>
        <pt x="367" y="615" on="1"/>
        <pt x="175" y="615" on="1"/>
        <pt x="163" y="427" on="1"/>
        <pt x="199" y="427" on="1"/>
        <pt x="293" y="427" on="0"/>
        <pt x="419" y="328" on="0"/>
        <pt x="419" y="212" on="1"/>
        <pt x="419" y="96" on="0"/>
        <pt x="292" y="-7" on="0"/>
        <pt x="201" y="-7" on="1"/>
      </contour>
    </TTGlyph>
    <TTGlyph name="fl" xMin="41" yMin="-7" xMax="543" yMax="757">
      <component glyphName="f" x="0" y="0" flags="0x0"/>
      <component glyphName="l" x="286" y="0" flags="0x0"/>
    </TTGlyph>
    <TTGlyph name="florin" xMin="10" yMin="-207" xMax="327" yMax="757">
      <contour>
        <pt x="28" y="-207" on="0"/>
        <pt x="10" y="-196" on="0"/>
        <pt x="10" y="-183" on="1"/>
        <pt x="18" y="-112" on="1"/>
        <pt x="48" y="140" on="0"/>
        <pt x="77" y="431" on="1"/>
        <pt x="38" y="431" on="1"/>
        <pt x="19" y="431" on="0"/>
        <pt x="19" y="453" on="1"/>
        <pt x="19" y="476" on="0"/>
        <pt x="31" y="516" on="0"/>
        <pt x="50" y="516" on="1"/>
        <pt x="86" y="516" on="1"/>
        <pt x="97" y="612" on="1"/>
        <pt x="106" y="692" on="0"/>
        <pt x="194" y="757" on="0"/>
        <pt x="251" y="757" on="1"/>
        <pt x="283" y="757" on="0"/>
        <pt x="327" y="743" on="0"/>
        <pt x="327" y="722" on="1"/>
        <pt x="326" y="710" on="0"/>
        <pt x="306" y="667" on="0"/>
        <pt x="295" y="667" on="1"/>
        <pt x="290" y="667" on="0"/>
        <pt x="271" y="672" on="0"/>
        <pt x="257" y="672" on="1"/>
        <pt x="232" y="672" on="0"/>
        <pt x="203" y="645" on="0"/>
        <pt x="199" y="607" on="1"/>
        <pt x="188" y="516" on="1"/>
        <pt x="262" y="516" on="1"/>
        <pt x="281" y="516" on="0"/>
        <pt x="281" y="493" on="1"/>
        <pt x="281" y="474" on="0"/>
        <pt x="269" y="431" on="0"/>
        <pt x="250" y="431" on="1"/>
        <pt x="179" y="431" on="1"/>
        <pt x="113" y="-183" on="1"/>
        <pt x="111" y="-195" on="0"/>
        <pt x="90" y="-207" on="0"/>
        <pt x="66" y="-207" on="1"/>
        <pt x="50" y="-207" on="1"/>
      </contour>
    </TTGlyph>
    <TTGlyph name="four" xMin="10" yMin="-2" xMax="445" yMax="702">
      <contour>
        <pt x="273" y="-2" on="0"/>
        <pt x="273" y="23" on="1"/>
        <pt x="273" y="160" on="1"/>
        <pt x="37" y="160" on="1"/>
        <pt x="28" y="160" on="0"/>
        <pt x="10" y="206" on="0"/>
        <pt x="10" y="223" on="1"/>
        <pt x="10" y="228" on="0"/>
        <pt x="12" y="234" on="1"/>
        <pt x="264" y="686" on="1"/>
        <pt x="274" y="702" on="0"/>
        <pt x="307" y="702" on="1"/>
        <pt x="336" y="702" on="1"/>
        <pt x="374" y="702" on="0"/>
        <pt x="374" y="677" on="1"/>
        <pt x="374" y="245" on="1"/>
        <pt x="422" y="245" on="1"/>
        <pt x="434" y="245" on="0"/>
        <pt x="445" y="228" on="0"/>
        <pt x="445" y="209" on="1"/>
        <pt x="445" y="196" on="1"/>
        <pt x="445" y="177" on="0"/>
        <pt x="434" y="160" on="0"/>
        <pt x="422" y="160" on="1"/>
        <pt x="374" y="160" on="1"/>
        <pt x="374" y="23" on="1"/>
        <pt x="374" y="-2" on="0"/>
        <pt x="336" y="-2" on="1"/>
        <pt x="311" y="-2" on="1"/>
      </contour>
      <contour>
        <pt x="272" y="245" on="1"/>
        <pt x="272" y="415" on="1"/>
        <pt x="272" y="478" on="0"/>
        <pt x="282" y="541" on="1"/>
        <pt x="278" y="543" on="1"/>
        <pt x="114" y="245" on="1"/>
      </contour>
    </TTGlyph>
</ttFont>
